<?xml version="1.0" standalone="no"?>
<!DOCTYPE svg PUBLIC "-//W3C//DTD SVG 1.1//EN" "http://www.w3.org/Graphics/SVG/1.1/DTD/svg11.dtd" >
<svg>
<metadata>
Created by FontForge 20090914 at Thu Mar 14 08:52:05 2019
 By www-data
&#194;&#169; 2017 The Monotype Corporation. All Rights Reserved. 

Hebrew OpenType Layout logic copyright &#194;&#169; 2003 &#38; 2007, Ralph Hancock &#38; John Hudson. This layout logic for Biblical Hebrew is open source software under the MIT License; see embedded license description for details.
</metadata>
<defs>
<font id="Arial-BoldMT" horiz-adv-x="0" >
  <font-face 
    font-family="Arial"
    font-weight="700"
    font-stretch="normal"
    units-per-em="2048"
    panose-1="2 11 7 4 2 2 2 2 2 4"
    ascent="1638"
    descent="-410"
    x-height="1062"
    cap-height="1466"
    bbox="-1285.02 -771 4096 2162"
    underline-thickness="215"
    underline-position="-110"
    unicode-range="U+0020-U+FFFC"
  />
<missing-glyph horiz-adv-x="1536" 
d="M256 0v1280h1024v-1280h-1024zM288 32h960v1216h-960v-1216z" />
    <glyph glyph-name="uniFB4F" unicode="&#x5d0;&#x200d;&#x5dc;" horiz-adv-x="1243" 
d="M308 819l-243 -0.00195312v648h280v-406h123l307 -434c52 38 83.667 124.667 95 260l14 174h260l-12 -129c-14 -150 -40 -256.833 -78 -320.5s-90 -117.167 -156 -160.5l320 -451h-330l-371 524c-46.667 -46 -76 -150.333 -88 -313l-16 -211h-272l20 225
c13.333 152.667 39.333 262.334 78 329.001s87.667 118.334 147 155.001z" />
    <glyph glyph-name="uniFDF2" unicode="&#x627;&#x627;&#xfedf;&#xfee0;&#xfbab;" horiz-adv-x="1744" arabic-form="isolated" 
d="M1354 570c0 -34 -5.16797 -81.002 -15.501 -141.002s-20.5 -109 -30.5 -147c-6 -22 -16.333 -35.5 -31 -40.5s-49 -7.5 -103 -7.5c-53.333 0 -92 6 -116 18s-46.667 34.667 -68 68c-43.333 -47.333 -89.333 -82 -138 -104c-44 -20 -90.667 -30 -140 -30
c-51.333 0 -92 15 -122 45s-56.667 83 -80 159c-37.333 -42 -68.333 -74 -93 -96c-34.667 -30.667 -62.334 -46 -83.001 -46c-71.333 0 -137.166 8.5 -197.499 25.5s-90.5 33.833 -90.5 50.5c0 24.667 20 77.334 60 158.001s78 144 114 190c22.667 30 45 51.667 67 65
l111 59l2 52c0 26.667 4.5 55.834 13.5 87.501s25.167 72.5 48.5 122.5l126 -453c12.667 -45.333 28.167 -77.5 46.5 -96.5s46.166 -28.5 83.499 -28.5c34 0 68.333 8.33301 103 25s63.334 37.667 86.001 63l-97 314c-6 20.667 -9.83301 35.5 -11.5 44.5
s-2.5 18.167 -2.5 27.5c0 35.333 6 73 18 113c9.33301 30.667 24 65 44 103l142 -442c30 -91.333 56.167 -149.5 78.5 -174.5s58.833 -37.5 109.5 -37.5c31.333 0 50 10 56 30l-122 391c-5.33301 18 -9.66602 34.833 -12.999 50.5s-5 28.5 -5 38.5
c0 30.667 4.83301 63.167 14.5 97.5s24.167 71.833 43.5 112.5l152 -466c14.667 -44 25 -80.667 31 -110s9 -59.333 9 -90zM471.999 547.998l-34 108c-45.333 -18.667 -81.666 -38.667 -108.999 -60s-41 -40 -41 -56c0 -4 14.667 -9.66699 44 -17s52.666 -11 69.999 -11
c8 0 18.833 3.5 32.5 10.5s26.167 15.5 37.5 25.5zM1670 583.998c0 -59.333 -7 -113.501 -21 -162.501s-41 -114.833 -81 -197.5l-60 24c16 85.333 24 154.666 24 207.999c0 40.667 -3.33301 100.334 -10 179.001s-15 156.5 -25 233.5s-26.333 168.833 -49 275.5
c-8 37.333 -12 63 -12 77c0 20.667 10.333 55.834 31 105.501s49.667 109.834 87 180.501l60 -354c22 -134.667 37.333 -251.334 46 -350.001c6.66699 -76 10 -149 10 -219zM848.999 1682c0 -36 -9.00098 -79 -27.001 -129l-29 4c2.66699 24.667 4 42.667 4 54
c0 45.333 -11.333 91 -34 137c12.667 25.333 28.334 54.333 47.001 87c26 -78.667 39 -129.667 39 -153zM991.998 1473c0 -50 -8.66797 -90.999 -26.001 -122.999c-19.333 -36 -46 -54 -80 -54c-12 0 -23 2 -33 6s-21.333 10.333 -34 19c-14 -24 -27 -42 -39 -54
c-21.333 -21.333 -43.666 -32 -66.999 -32c-28 0 -49 9.5 -63 28.5s-21 45.167 -21 78.5c0 17.333 2.33301 34.333 7 51s11.334 35.667 20.001 57l21 9c0 -5.33301 -0.666992 -14 -2 -26s-2 -22 -2 -30c0 -14.667 3 -27.834 9 -39.501s15 -17.5 27 -17.5
c28.667 0 51.667 18.667 69 56c8 17.333 18 51 30 101l21 6c5.33301 -32.667 9.66602 -52.667 12.999 -60c8 -20.667 21.333 -31 40 -31c25.333 0 45.333 16.667 60 50c12 26.667 18 54.334 18 83.001l21 6c2.66699 -12.667 5.16699 -26.834 7.5 -42.501
s3.5 -29.5 3.5 -41.5z" />
    <glyph glyph-name="uniFDFC" unicode="&#x631;&#xfbfe;&#xfe8e;&#x644;" horiz-adv-x="2436" arabic-form="isolated" 
d="M924 318c0 -102.667 -53.332 -193.665 -159.999 -272.998s-228.334 -119 -365.001 -119c-114 0 -203.167 28.833 -267.5 86.5s-96.5 138.167 -96.5 241.5c0 96.667 12 181 36 253c27.333 81.333 80.666 181 159.999 299l62 -42c-52 -78 -89 -145.667 -111 -203
s-33 -114.333 -33 -171c0 -60.667 22.5 -107.5 67.5 -140.5s108.5 -49.5 190.5 -49.5c117.333 0 212.666 22.667 285.999 68s110 104.666 110 177.999v30v17c0 26 -2.16699 54.667 -6.5 86s-15.5 96 -33.5 194l-86 475l-50 36c0 65.333 30.667 165.333 92 300l46 -22
c-2.66699 -9.33301 -4 -20 -4 -32c0 -26.667 13.667 -48.334 41 -65.001l115 -65c-7.33301 -57.333 -14.666 -98.333 -21.999 -123s-22.666 -61.667 -45.999 -111l-30 12c0 -10 9.5 -66.833 28.5 -170.5l48.5 -268.5c18.667 -108 28 -173.667 28 -197v-224zM1480 293.002
h-140c-78 0 -134.333 32 -169 96c-38.667 70.667 -58 189.667 -58 357v285c0 64.667 -9 115 -27 151c-8.66699 17.333 -28.667 42.333 -60 75l108 250c38.667 -53.333 65.667 -106 81 -158c18 -60.667 27 -138 27 -232v-197c0 -139.333 9.33301 -236 28 -290
c14.667 -43.333 38 -65 70 -65h140v-272zM1956 293.002l-626.001 0.000976562v272h526c-7.33301 45.333 -20.666 83.666 -39.999 114.999c-10 17.333 -33.333 47.333 -70 90l80 238c50 -56.667 84.167 -116 102.5 -178s27.5 -154 27.5 -276v-261zM1540 117.003l-104 -194
l-148 74l-84 -162l-182 102l110 204l142 -80l80 158zM2436 270.003c0 -40.667 -23.333 -94.499 -70 -161.499s-101.334 -125.167 -164 -174.5c-69.333 -54.667 -128.666 -82 -178 -82c-58.667 0 -121.667 16.667 -189 50c-58.667 28.667 -150.334 86 -275.001 172l42 62
c60 -40 108.333 -67 145 -81s76.334 -21 119.001 -21c46 0 92 13 138 39s108.667 74.333 188 145c110.667 98.667 166 174.667 166 228c0 26.667 -10.667 61.667 -32 105c-24 49.333 -53.333 90.333 -88 123l56 270c45.333 -46.667 80.333 -100.334 105 -161.001
s37 -129.667 37 -207v-306z" />
    <glyph glyph-name="uniFEF5" unicode="&#xfedf;&#xfe82;" horiz-adv-x="1108" arabic-form="isolated" 
d="M1076 1356c0 -46.667 -4.66797 -93.666 -14.001 -140.999c-4 -20 -13.333 -56.333 -28 -109l-72 28c0 -78.667 -9.33301 -157 -28 -235s-48.667 -155 -90 -231l64 -116c16 -30.667 24 -58.334 24 -83.001v-31c0 -16.667 -5.33301 -84.667 -16 -204
c-76 -36 -143.833 -59.333 -203.5 -70s-148.5 -16 -266.5 -16v296c67.333 34.667 115.5 63.834 144.5 87.501s66.833 64.5 113.5 122.5c-76 96 -131.333 163.667 -166 203c-28 32 -64 69 -108 111c-10.667 -22 -18.5 -36.5 -23.5 -43.5s-9.83301 -10.5 -14.5 -10.5
c-16 0 -46 13.667 -90 41c-39.333 24.667 -69.666 46.667 -90.999 66s-37.5 55.5 -48.5 108.5s-16.5 120.5 -16.5 202.5c0 36 2.16699 61 6.5 75s13.5 21 27.5 21c26 0 78.667 -37.333 158 -112c68 -64 128.667 -128 182 -192c42 -46 80 -92 114 -138
c30.667 -40.667 78.667 -110.667 144 -210c30 56.667 50.667 129 62 217c6.66699 53.333 10 117 10 191c-24 11.333 -40.333 22.5 -49 33.5s-13 25.833 -13 44.5c0 40 4.33301 80.667 13 122s23 84.666 43 129.999l42 -14c0 -42.667 10 -71 30 -85
c16 -11.333 69.333 -31 160 -59zM813.999 486.001l-48.001 74.002c-29.333 -32.667 -51.833 -55.834 -67.5 -69.501s-43.167 -34.5 -82.5 -62.5c50.667 5.33301 86.834 11.166 108.501 17.499s51.5 19.833 89.5 40.5zM489.998 1667
c-25.333 -45.333 -56.3311 -77.832 -92.998 -97.499s-80 -29.5 -130 -29.5c-24.667 0 -55.334 4 -92.001 12c-15.333 3.33301 -28.333 5.83301 -39 7.5s-20.334 2.5 -29.001 2.5c-7.33301 0 -13.5 -0.5 -18.5 -1.5s-10 -2.5 -15 -4.5s-10.667 -4.83301 -17 -8.5
s-14.5 -7.83398 -24.5 -12.501l-16 12c13.333 32.667 28.666 57 45.999 73s40 24 68 24c10.667 0 22.5 -0.833008 35.5 -2.5s27.167 -4.16699 42.5 -7.5c17.333 -3.33301 33.833 -6 49.5 -8s30.834 -3 45.501 -3c32.667 0 63.5 5.33301 92.5 16s54.5 24.667 76.5 42z" />
    <glyph glyph-name="uniFEF6" unicode="&#xfee0;&#xfe82;" horiz-adv-x="1220" arabic-form="final" 
d="M828 794c0 -20 -3.00195 -38.5 -9.00195 -55.5s-17 -39.167 -33 -66.5c-39.333 88.667 -82.666 161.334 -129.999 218.001s-103.333 102 -168 136c0 -28.667 -3.33301 -49.5 -10 -62.5s-16 -19.5 -28 -19.5c-20 0 -56.667 19 -110 57
c-57.333 40.667 -98.666 79.667 -123.999 117c-18 26 -31.5 63.667 -40.5 113s-13.5 89.666 -13.5 120.999c0 48 12.667 72 38 72c39.333 0 98 -23.167 176 -69.5s151.333 -101.833 220 -166.5c154.667 -142.667 232 -274 232 -394zM1220 293h-73
c-42 0 -81.667 34.333 -119 103c-40 73.333 -60 157.333 -60 252c-58.667 -175.333 -140.667 -295.666 -246 -360.999c-102 -63.333 -258 -95 -468 -95l-116 2v64l142.5 49.5c47 16.333 82.167 30.5 105.5 42.5c136 68.667 228 118.667 276 150
c85.333 55.333 147 113.333 185 174c44.667 71.333 67 158.666 67 261.999c0 62 -4.83301 122.333 -14.5 181l-29.5 175c0 45.333 38.667 137.333 116 276c34.667 -114 56.667 -263 66 -447c5.33301 -130 11 -260 17 -390c10.667 -110.667 36.667 -166 78 -166h73v-272z
M489.998 1667c-25.333 -45.333 -56.3311 -77.832 -92.998 -97.499s-80 -29.5 -130 -29.5c-24.667 0 -55.334 4 -92.001 12c-15.333 3.33301 -28.333 5.83301 -39 7.5s-20.334 2.5 -29.001 2.5c-7.33301 0 -13.5 -0.5 -18.5 -1.5s-10 -2.5 -15 -4.5
s-10.667 -4.83301 -17 -8.5s-14.5 -7.83398 -24.5 -12.501l-16 12c13.333 32.667 28.666 57 45.999 73s40 24 68 24c10.667 0 22.5 -0.833008 35.5 -2.5s27.167 -4.16699 42.5 -7.5c17.333 -3.33301 33.833 -6 49.5 -8s30.834 -3 45.501 -3c32.667 0 63.5 5.33301 92.5 16
s54.5 24.667 76.5 42z" />
    <glyph glyph-name="uniFEF7" unicode="&#xfedf;&#xfe84;" horiz-adv-x="996" arabic-form="isolated" 
d="M964 1356c0 -46.667 -4.66797 -93.666 -14.001 -140.999c-4 -20 -13.333 -56.333 -28 -109l-72 28c0 -78.667 -9.33301 -157 -28 -235s-48.667 -155 -90 -231l64 -116c16 -30.667 24 -58.334 24 -83.001v-31c0 -16.667 -5.33301 -84.667 -16 -204
c-76 -36 -143.833 -59.333 -203.5 -70s-148.5 -16 -266.5 -16v296c67.333 34.667 115.5 63.834 144.5 87.501s66.833 64.5 113.5 122.5c-76 96 -131.333 163.667 -166 203c-28 32 -64 69 -108 111c-10.667 -22 -18.5 -36.5 -23.5 -43.5s-9.83301 -10.5 -14.5 -10.5
c-16 0 -46 13.667 -90 41c-39.333 24.667 -69.666 46.667 -90.999 66s-37.5 55.5 -48.5 108.5s-16.5 120.5 -16.5 202.5c0 36 2.16699 61 6.5 75s13.5 21 27.5 21c26 0 78.667 -37.333 158 -112c68 -64 128.667 -128 182 -192c42 -46 80 -92 114 -138
c30.667 -40.667 78.667 -110.667 144 -210c30 56.667 50.667 129 62 217c6.66699 53.333 10 117 10 191c-24 11.333 -40.333 22.5 -49 33.5s-13 25.833 -13 44.5c0 40 4.33301 80.667 13 122s23 84.666 43 129.999l42 -14c0 -42.667 10 -71 30 -85
c16 -11.333 69.333 -31 160 -59zM701.999 486.001l-48.001 74.002c-29.333 -32.667 -51.833 -55.834 -67.5 -69.501s-43.167 -34.5 -82.5 -62.5c50.667 5.33301 86.834 11.166 108.501 17.499s51.5 19.833 89.5 40.5zM336.998 1634
c-7.33301 -19.333 -16.002 -34 -26.002 -44c-7.33301 -7.33301 -18.666 -13.333 -33.999 -18l-216 -66c13.333 24 25 40.5 35 49.5s28 17.167 54 24.5c-18.667 12 -32.167 23.167 -40.5 33.5s-12.5 20.5 -12.5 30.5c0 8.66699 2.66699 18.5 8 29.5s12.333 21.833 21 32.5
c43.333 58 86.333 87 129 87c12.667 0 22.834 -4.16699 30.501 -12.5s11.5 -19.166 11.5 -32.499c0 -10.667 -1.5 -19.834 -4.5 -27.501s-9.16699 -19.167 -18.5 -34.5c-33.333 16.667 -56 25 -68 25s-24 -3 -36 -9c-8 -4 -15.333 -9.33301 -22 -16
c0 -8.66699 16 -22 48 -40s55 -27 69 -27c8.66699 0 32.667 5 72 15z" />
    <glyph glyph-name="uniFEF8" unicode="&#xfee0;&#xfe84;" horiz-adv-x="1108" arabic-form="final" 
d="M716 794c0 -20 -3.00195 -38.5 -9.00195 -55.5s-17 -39.167 -33 -66.5c-39.333 88.667 -82.666 161.334 -129.999 218.001s-103.333 102 -168 136c0 -28.667 -3.33301 -49.5 -10 -62.5s-16 -19.5 -28 -19.5c-20 0 -56.667 19 -110 57
c-57.333 40.667 -98.666 79.667 -123.999 117c-18 26 -31.5 63.667 -40.5 113s-13.5 89.666 -13.5 120.999c0 48 12.667 72 38 72c39.333 0 98 -23.167 176 -69.5s151.333 -101.833 220 -166.5c154.667 -142.667 232 -274 232 -394zM1108 293h-73
c-42 0 -81.667 34.333 -119 103c-40 73.333 -60 157.333 -60 252c-58.667 -175.333 -140.667 -295.666 -246 -360.999c-102 -63.333 -258 -95 -468 -95l-116 2v64l142.5 49.5c47 16.333 82.167 30.5 105.5 42.5c136 68.667 228 118.667 276 150
c85.333 55.333 147 113.333 185 174c44.667 71.333 67 158.666 67 261.999c0 62 -4.83301 122.333 -14.5 181l-29.5 175c0 45.333 38.667 137.333 116 276c34.667 -114 56.667 -263 66 -447c5.33301 -130 11 -260 17 -390c10.667 -110.667 36.667 -166 78 -166h73v-272z
M336.998 1634c-7.33301 -19.333 -16.002 -34 -26.002 -44c-7.33301 -7.33301 -18.666 -13.333 -33.999 -18l-216 -66c13.333 24 25 40.5 35 49.5s28 17.167 54 24.5c-18.667 12 -32.167 23.167 -40.5 33.5s-12.5 20.5 -12.5 30.5c0 8.66699 2.66699 18.5 8 29.5
s12.333 21.833 21 32.5c43.333 58 86.333 87 129 87c12.667 0 22.834 -4.16699 30.501 -12.5s11.5 -19.166 11.5 -32.499c0 -10.667 -1.5 -19.834 -4.5 -27.501s-9.16699 -19.167 -18.5 -34.5c-33.333 16.667 -56 25 -68 25s-24 -3 -36 -9c-8 -4 -15.333 -9.33301 -22 -16
c0 -8.66699 16 -22 48 -40s55 -27 69 -27c8.66699 0 32.667 5 72 15z" />
    <glyph glyph-name="uniFEF9" unicode="&#xfedf;&#xfe88;" horiz-adv-x="996" arabic-form="isolated" 
d="M964 1356c0 -46.667 -4.66797 -93.666 -14.001 -140.999c-4 -20 -13.333 -56.333 -28 -109l-72 28c0 -78.667 -9.33301 -157 -28 -235s-48.667 -155 -90 -231l64 -116c16 -30.667 24 -58.334 24 -83.001v-31c0 -16.667 -5.33301 -84.667 -16 -204
c-76 -36 -143.833 -59.333 -203.5 -70s-148.5 -16 -266.5 -16v296c67.333 34.667 115.5 63.834 144.5 87.501s66.833 64.5 113.5 122.5c-76 96 -131.333 163.667 -166 203c-28 32 -64 69 -108 111c-10.667 -22 -18.5 -36.5 -23.5 -43.5s-9.83301 -10.5 -14.5 -10.5
c-16 0 -46 13.667 -90 41c-39.333 24.667 -69.666 46.667 -90.999 66s-37.5 55.5 -48.5 108.5s-16.5 120.5 -16.5 202.5c0 36 2.16699 61 6.5 75s13.5 21 27.5 21c26 0 78.667 -37.333 158 -112c68 -64 128.667 -128 182 -192c42 -46 80 -92 114 -138
c30.667 -40.667 78.667 -110.667 144 -210c30 56.667 50.667 129 62 217c6.66699 53.333 10 117 10 191c-24 11.333 -40.333 22.5 -49 33.5s-13 25.833 -13 44.5c0 40 4.33301 80.667 13 122s23 84.666 43 129.999l42 -14c0 -42.667 10 -71 30 -85
c16 -11.333 69.333 -31 160 -59zM701.999 486.001l-48.001 74.002c-29.333 -32.667 -51.833 -55.834 -67.5 -69.501s-43.167 -34.5 -82.5 -62.5c50.667 5.33301 86.834 11.166 108.501 17.499s51.5 19.833 89.5 40.5zM667.998 -114.997
c-7.33301 -19.333 -16.002 -34 -26.002 -44c-7.33301 -7.33301 -18.666 -13.333 -33.999 -18l-216 -66c13.333 24 25 40.5 35 49.5s28 17.167 54 24.5c-18.667 12 -32.167 23.167 -40.5 33.5s-12.5 20.5 -12.5 30.5c0 8.66699 2.66699 18.5 8 29.5s12.333 21.833 21 32.5
c43.333 58 86.333 87 129 87c12.667 0 22.834 -4.16699 30.501 -12.5s11.5 -19.166 11.5 -32.499c0 -10.667 -1.5 -19.834 -4.5 -27.501s-9.16699 -19.167 -18.5 -34.5c-33.333 16.667 -56 25 -68 25s-24 -3 -36 -9c-8 -4 -15.333 -9.33301 -22 -16
c0 -8.66699 16 -22 48 -40s55 -27 69 -27c8.66699 0 32.667 5 72 15z" />
    <glyph glyph-name="uniFEFA" unicode="&#xfee0;&#xfe88;" horiz-adv-x="1108" arabic-form="final" 
d="M716 794c0 -20 -3.00195 -38.5 -9.00195 -55.5s-17 -39.167 -33 -66.5c-39.333 88.667 -82.666 161.334 -129.999 218.001s-103.333 102 -168 136c0 -28.667 -3.33301 -49.5 -10 -62.5s-16 -19.5 -28 -19.5c-20 0 -56.667 19 -110 57
c-57.333 40.667 -98.666 79.667 -123.999 117c-18 26 -31.5 63.667 -40.5 113s-13.5 89.666 -13.5 120.999c0 48 12.667 72 38 72c39.333 0 98 -23.167 176 -69.5s151.333 -101.833 220 -166.5c154.667 -142.667 232 -274 232 -394zM1108 293h-73
c-42 0 -81.667 34.333 -119 103c-40 73.333 -60 157.333 -60 252c-58.667 -175.333 -140.667 -295.666 -246 -360.999c-102 -63.333 -258 -95 -468 -95l-116 2v64l142.5 49.5c47 16.333 82.167 30.5 105.5 42.5c136 68.667 228 118.667 276 150
c85.333 55.333 147 113.333 185 174c44.667 71.333 67 158.666 67 261.999c0 62 -4.83301 122.333 -14.5 181l-29.5 175c0 45.333 38.667 137.333 116 276c34.667 -114 56.667 -263 66 -447c5.33301 -130 11 -260 17 -390c10.667 -110.667 36.667 -166 78 -166h73v-272z
M418.998 -115c-7.33301 -19.333 -16.002 -34 -26.002 -44c-7.33301 -7.33301 -18.666 -13.333 -33.999 -18l-216 -66c13.333 24 25 40.5 35 49.5s28 17.167 54 24.5c-18.667 12 -32.167 23.167 -40.5 33.5s-12.5 20.5 -12.5 30.5c0 8.66699 2.66699 18.5 8 29.5
s12.333 21.833 21 32.5c43.333 58 86.333 87 129 87c12.667 0 22.834 -4.16699 30.501 -12.5s11.5 -19.166 11.5 -32.499c0 -10.667 -1.5 -19.834 -4.5 -27.501s-9.16699 -19.167 -18.5 -34.5c-33.333 16.667 -56 25 -68 25s-24 -3 -36 -9c-8 -4 -15.333 -9.33301 -22 -16
c0 -8.66699 16 -22 48 -40s55 -27 69 -27c8.66699 0 32.667 5 72 15z" />
    <glyph glyph-name="uniFEFB" unicode="&#xfedf;&#xfe8e;" horiz-adv-x="996" arabic-form="isolated" 
d="M964 1356c0 -46.667 -4.66797 -93.666 -14.001 -140.999c-4 -20 -13.333 -56.333 -28 -109l-72 28c0 -78.667 -9.33301 -157 -28 -235s-48.667 -155 -90 -231l64 -116c16 -30.667 24 -58.334 24 -83.001v-31c0 -16.667 -5.33301 -84.667 -16 -204
c-76 -36 -143.833 -59.333 -203.5 -70s-148.5 -16 -266.5 -16v296c67.333 34.667 115.5 63.834 144.5 87.501s66.833 64.5 113.5 122.5c-76 96 -131.333 163.667 -166 203c-28 32 -64 69 -108 111c-10.667 -22 -18.5 -36.5 -23.5 -43.5s-9.83301 -10.5 -14.5 -10.5
c-16 0 -46 13.667 -90 41c-39.333 24.667 -69.666 46.667 -90.999 66s-37.5 55.5 -48.5 108.5s-16.5 120.5 -16.5 202.5c0 36 2.16699 61 6.5 75s13.5 21 27.5 21c26 0 78.667 -37.333 158 -112c68 -64 128.667 -128 182 -192c42 -46 80 -92 114 -138
c30.667 -40.667 78.667 -110.667 144 -210c30 56.667 50.667 129 62 217c6.66699 53.333 10 117 10 191c-24 11.333 -40.333 22.5 -49 33.5s-13 25.833 -13 44.5c0 40 4.33301 80.667 13 122s23 84.666 43 129.999l42 -14c0 -42.667 10 -71 30 -85
c16 -11.333 69.333 -31 160 -59zM701.999 486.001l-48.001 74.002c-29.333 -32.667 -51.833 -55.834 -67.5 -69.501s-43.167 -34.5 -82.5 -62.5c50.667 5.33301 86.834 11.166 108.501 17.499s51.5 19.833 89.5 40.5z" />
    <glyph glyph-name="uniFEFC" unicode="&#xfee0;&#xfe8e;" horiz-adv-x="1108" arabic-form="final" 
d="M716 794c0 -20 -3.00195 -38.5 -9.00195 -55.5s-17 -39.167 -33 -66.5c-39.333 88.667 -82.666 161.334 -129.999 218.001s-103.333 102 -168 136c0 -28.667 -3.33301 -49.5 -10 -62.5s-16 -19.5 -28 -19.5c-20 0 -56.667 19 -110 57
c-57.333 40.667 -98.666 79.667 -123.999 117c-18 26 -31.5 63.667 -40.5 113s-13.5 89.666 -13.5 120.999c0 48 12.667 72 38 72c39.333 0 98 -23.167 176 -69.5s151.333 -101.833 220 -166.5c154.667 -142.667 232 -274 232 -394zM1108 293h-73
c-42 0 -81.667 34.333 -119 103c-40 73.333 -60 157.333 -60 252c-58.667 -175.333 -140.667 -295.666 -246 -360.999c-102 -63.333 -258 -95 -468 -95l-116 2v64l142.5 49.5c47 16.333 82.167 30.5 105.5 42.5c136 68.667 228 118.667 276 150
c85.333 55.333 147 113.333 185 174c44.667 71.333 67 158.666 67 261.999c0 62 -4.83301 122.333 -14.5 181l-29.5 175c0 45.333 38.667 137.333 116 276c34.667 -114 56.667 -263 66 -447c5.33301 -130 11 -260 17 -390c10.667 -110.667 36.667 -166 78 -166h73v-272z" />
    <glyph glyph-name="uniFEDF_uniFEE0_uniFBAB.liga" unicode="&#xfedf;&#xfee0;&#xfbab;" horiz-adv-x="1440" 
d="M1354 570c0 -34 -5.16797 -81.002 -15.501 -141.002s-20.5 -109 -30.5 -147c-6 -22 -16.333 -35.5 -31 -40.5s-49 -7.5 -103 -7.5c-53.333 0 -92 6 -116 18s-46.667 34.667 -68 68c-43.333 -47.333 -89.333 -82 -138 -104c-44 -20 -90.667 -30 -140 -30
c-51.333 0 -92 15 -122 45s-56.667 83 -80 159c-37.333 -42 -68.333 -74 -93 -96c-34.667 -30.667 -62.334 -46 -83.001 -46c-71.333 0 -137.166 8.5 -197.499 25.5s-90.5 33.833 -90.5 50.5c0 24.667 20 77.334 60 158.001s78 144 114 190c22.667 30 45 51.667 67 65
l111 59l2 52c0 26.667 4.5 55.834 13.5 87.501s25.167 72.5 48.5 122.5l126 -453c12.667 -45.333 28.167 -77.5 46.5 -96.5s46.166 -28.5 83.499 -28.5c34 0 68.333 8.33301 103 25s63.334 37.667 86.001 63l-97 314c-6 20.667 -9.83301 35.5 -11.5 44.5
s-2.5 18.167 -2.5 27.5c0 35.333 6 73 18 113c9.33301 30.667 24 65 44 103l142 -442c30 -91.333 56.167 -149.5 78.5 -174.5s58.833 -37.5 109.5 -37.5c31.333 0 50 10 56 30l-122 391c-5.33301 18 -9.66602 34.833 -12.999 50.5s-5 28.5 -5 38.5
c0 30.667 4.83301 63.167 14.5 97.5s24.167 71.833 43.5 112.5l152 -466c14.667 -44 25 -80.667 31 -110s9 -59.333 9 -90zM471.999 547.998l-34 108c-45.333 -18.667 -81.666 -38.667 -108.999 -60s-41 -40 -41 -56c0 -4 14.667 -9.66699 44 -17s52.666 -11 69.999 -11
c8 0 18.833 3.5 32.5 10.5s26.167 15.5 37.5 25.5zM848.999 1643c0 -36 -9.00098 -79 -27.001 -129l-29 4c2.66699 24.667 4 42.667 4 54c0 45.333 -11.333 91 -34 137c12.667 25.333 28.334 54.333 47.001 87c26 -78.667 39 -129.667 39 -153zM991.998 1434
c0 -50 -8.66797 -90.999 -26.001 -122.999c-19.333 -36 -46 -54 -80 -54c-12 0 -23 2 -33 6s-21.333 10.333 -34 19c-14 -24 -27 -42 -39 -54c-21.333 -21.333 -43.666 -32 -66.999 -32c-28 0 -49 9.5 -63 28.5s-21 45.167 -21 78.5c0 17.333 2.33301 34.333 7 51
s11.334 35.667 20.001 57l21 9c0 -5.33301 -0.666992 -14 -2 -26s-2 -22 -2 -30c0 -14.667 3 -27.834 9 -39.501s15 -17.5 27 -17.5c28.667 0 51.667 18.667 69 56c8 17.333 18 51 30 101l21 6c5.33301 -32.667 9.66602 -52.667 12.999 -60c8 -20.667 21.333 -31 40 -31
c25.333 0 45.333 16.667 60 50c12 26.667 18 54.334 18 83.001l21 6c2.66699 -12.667 5.16699 -26.834 7.5 -42.501s3.5 -29.5 3.5 -41.5z" />
    <glyph glyph-name="uniFEDF_uniFB51.rlig" unicode="&#xfedf;&#xfb51;" horiz-adv-x="996" 
d="M964 1356c0 -46.667 -4.66797 -93.666 -14.001 -140.999c-4 -20 -13.333 -56.333 -28 -109l-72 28c0 -78.667 -9.33301 -157 -28 -235s-48.667 -155 -90 -231l64 -116c16 -30.667 24 -58.334 24 -83.001v-31c0 -16.667 -5.33301 -84.667 -16 -204
c-76 -36 -143.833 -59.333 -203.5 -70s-148.5 -16 -266.5 -16v296c67.333 34.667 115.5 63.834 144.5 87.501s66.833 64.5 113.5 122.5c-76 96 -131.333 163.667 -166 203c-28 32 -64 69 -108 111c-10.667 -22 -18.5 -36.5 -23.5 -43.5s-9.83301 -10.5 -14.5 -10.5
c-16 0 -46 13.667 -90 41c-39.333 24.667 -69.666 46.667 -90.999 66s-37.5 55.5 -48.5 108.5s-16.5 120.5 -16.5 202.5c0 36 2.16699 61 6.5 75s13.5 21 27.5 21c26 0 78.667 -37.333 158 -112c68 -64 128.667 -128 182 -192c42 -46 80 -92 114 -138
c30.667 -40.667 78.667 -110.667 144 -210c30 56.667 50.667 129 62 217c6.66699 53.333 10 117 10 191c-24 11.333 -40.333 22.5 -49 33.5s-13 25.833 -13 44.5c0 40 4.33301 80.667 13 122s23 84.666 43 129.999l42 -14c0 -42.667 10 -71 30 -85
c16 -11.333 69.333 -31 160 -59zM701.999 486.001l-48.001 74.002c-29.333 -32.667 -51.833 -55.834 -67.5 -69.501s-43.167 -34.5 -82.5 -62.5c50.667 5.33301 86.834 11.166 108.501 17.499s51.5 19.833 89.5 40.5zM430.998 1724c0 -35.333 -16 -67.668 -48 -97.001
c-34.667 -32 -76 -48 -124 -48h-167c-20.667 0 -31 -15 -31 -45c0 -3.33301 0.666992 -9.33301 2 -18c0.666992 -8 0.666992 -14 0 -18c-32 32.667 -48 66.334 -48 101.001c0 44 25.333 66 76 66h24c78.667 106 156.667 159 234 159c54.667 0 82 -33.333 82 -100z
M340.998 1725c0 25.333 -10.666 38 -31.999 38c-36.667 0 -83.334 -32.667 -140.001 -98h82c60 0 90 20 90 60z" />
    <glyph glyph-name="uniFEE0_uniFB51.rlig" unicode="&#xfee0;&#xfb51;" horiz-adv-x="1108" 
d="M716 794c0 -20 -3.00195 -38.5 -9.00195 -55.5s-17 -39.167 -33 -66.5c-39.333 88.667 -82.666 161.334 -129.999 218.001s-103.333 102 -168 136c0 -28.667 -3.33301 -49.5 -10 -62.5s-16 -19.5 -28 -19.5c-20 0 -56.667 19 -110 57
c-57.333 40.667 -98.666 79.667 -123.999 117c-18 26 -31.5 63.667 -40.5 113s-13.5 89.666 -13.5 120.999c0 48 12.667 72 38 72c39.333 0 98 -23.167 176 -69.5s151.333 -101.833 220 -166.5c154.667 -142.667 232 -274 232 -394zM1108 293h-73
c-42 0 -81.667 34.333 -119 103c-40 73.333 -60 157.333 -60 252c-58.667 -175.333 -140.667 -295.666 -246 -360.999c-102 -63.333 -258 -95 -468 -95l-116 2v64l142.5 49.5c47 16.333 82.167 30.5 105.5 42.5c136 68.667 228 118.667 276 150
c85.333 55.333 147 113.333 185 174c44.667 71.333 67 158.666 67 261.999c0 62 -4.83301 122.333 -14.5 181l-29.5 175c0 45.333 38.667 137.333 116 276c34.667 -114 56.667 -263 66 -447c5.33301 -130 11 -260 17 -390c10.667 -110.667 36.667 -166 78 -166h73v-272z
M430.998 1724c0 -35.333 -16 -67.668 -48 -97.001c-34.667 -32 -76 -48 -124 -48h-167c-20.667 0 -31 -15 -31 -45c0 -3.33301 0.666992 -9.33301 2 -18c0.666992 -8 0.666992 -14 0 -18c-32 32.667 -48 66.334 -48 101.001c0 44 25.333 66 76 66h24
c78.667 106 156.667 159 234 159c54.667 0 82 -33.333 82 -100zM340.998 1725c0 25.333 -10.666 38 -31.999 38c-36.667 0 -83.334 -32.667 -140.001 -98h82c60 0 90 20 90 60z" />
    <glyph glyph-name="uniFEDF_uniFEE0_uni06C1.liga" unicode="&#xfedf;&#xfee0;&#x6c1;" horiz-adv-x="1440" 
d="M1354 570c0 -34 -5.16797 -81.002 -15.501 -141.002s-20.5 -109 -30.5 -147c-6 -22 -16.333 -35.5 -31 -40.5s-49 -7.5 -103 -7.5c-53.333 0 -92 6 -116 18s-46.667 34.667 -68 68c-43.333 -47.333 -89.333 -82 -138 -104c-44 -20 -90.667 -30 -140 -30
c-51.333 0 -92 15 -122 45s-56.667 83 -80 159c-37.333 -42 -68.333 -74 -93 -96c-34.667 -30.667 -62.334 -46 -83.001 -46c-71.333 0 -137.166 8.5 -197.499 25.5s-90.5 33.833 -90.5 50.5c0 24.667 20 77.334 60 158.001s78 144 114 190c22.667 30 45 51.667 67 65
l111 59l2 52c0 26.667 4.5 55.834 13.5 87.501s25.167 72.5 48.5 122.5l126 -453c12.667 -45.333 28.167 -77.5 46.5 -96.5s46.166 -28.5 83.499 -28.5c34 0 68.333 8.33301 103 25s63.334 37.667 86.001 63l-97 314c-6 20.667 -9.83301 35.5 -11.5 44.5
s-2.5 18.167 -2.5 27.5c0 35.333 6 73 18 113c9.33301 30.667 24 65 44 103l142 -442c30 -91.333 56.167 -149.5 78.5 -174.5s58.833 -37.5 109.5 -37.5c31.333 0 50 10 56 30l-122 391c-5.33301 18 -9.66602 34.833 -12.999 50.5s-5 28.5 -5 38.5
c0 30.667 4.83301 63.167 14.5 97.5s24.167 71.833 43.5 112.5l152 -466c14.667 -44 25 -80.667 31 -110s9 -59.333 9 -90zM471.999 547.998l-34 108c-45.333 -18.667 -81.666 -38.667 -108.999 -60s-41 -40 -41 -56c0 -4 14.667 -9.66699 44 -17s52.666 -11 69.999 -11
c8 0 18.833 3.5 32.5 10.5s26.167 15.5 37.5 25.5z" />
    <glyph glyph-name="afii57415_afii57415_uniFEDF_uniFEE0_uniFBAB.liga" unicode="&#x627;&#x627;&#xfedf;&#xfee0;&#xfbab;" horiz-adv-x="1744" 
d="M1354 570c0 -34 -5.16797 -81.002 -15.501 -141.002s-20.5 -109 -30.5 -147c-6 -22 -16.333 -35.5 -31 -40.5s-49 -7.5 -103 -7.5c-53.333 0 -92 6 -116 18s-46.667 34.667 -68 68c-43.333 -47.333 -89.333 -82 -138 -104c-44 -20 -90.667 -30 -140 -30
c-51.333 0 -92 15 -122 45s-56.667 83 -80 159c-37.333 -42 -68.333 -74 -93 -96c-34.667 -30.667 -62.334 -46 -83.001 -46c-71.333 0 -137.166 8.5 -197.499 25.5s-90.5 33.833 -90.5 50.5c0 24.667 20 77.334 60 158.001s78 144 114 190c22.667 30 45 51.667 67 65
l111 59l2 52c0 26.667 4.5 55.834 13.5 87.501s25.167 72.5 48.5 122.5l126 -453c12.667 -45.333 28.167 -77.5 46.5 -96.5s46.166 -28.5 83.499 -28.5c34 0 68.333 8.33301 103 25s63.334 37.667 86.001 63l-97 314c-6 20.667 -9.83301 35.5 -11.5 44.5
s-2.5 18.167 -2.5 27.5c0 35.333 6 73 18 113c9.33301 30.667 24 65 44 103l142 -442c30 -91.333 56.167 -149.5 78.5 -174.5s58.833 -37.5 109.5 -37.5c31.333 0 50 10 56 30l-122 391c-5.33301 18 -9.66602 34.833 -12.999 50.5s-5 28.5 -5 38.5
c0 30.667 4.83301 63.167 14.5 97.5s24.167 71.833 43.5 112.5l152 -466c14.667 -44 25 -80.667 31 -110s9 -59.333 9 -90zM471.999 547.998l-34 108c-45.333 -18.667 -81.666 -38.667 -108.999 -60s-41 -40 -41 -56c0 -4 14.667 -9.66699 44 -17s52.666 -11 69.999 -11
c8 0 18.833 3.5 32.5 10.5s26.167 15.5 37.5 25.5zM1670 583.998c0 -59.333 -7 -113.501 -21 -162.501s-41 -114.833 -81 -197.5l-60 24c16 85.333 24 154.666 24 207.999c0 40.667 -3.33301 100.334 -10 179.001s-15 156.5 -25 233.5s-26.333 168.833 -49 275.5
c-8 37.333 -12 63 -12 77c0 20.667 10.333 55.834 31 105.501s49.667 109.834 87 180.501l60 -354c22 -134.667 37.333 -251.334 46 -350.001c6.66699 -76 10 -149 10 -219z" />
    <glyph glyph-name="afii57410" unicode="&#x622;" horiz-adv-x="488" arabic-form="isolated" 
d="M370 584c0 -59.333 -7 -113.501 -21 -162.501s-41 -114.833 -81 -197.5l-60 24c16 85.333 24 154.666 24 207.999c0 40.667 -3.33301 100.334 -10 179.001s-15 156.5 -25 233.5s-26.333 168.833 -49 275.5c-8 37.333 -12 63 -12 77c0 20.667 10.333 55.834 31 105.501
s49.667 109.834 87 180.501l60 -354c22 -134.667 37.333 -251.334 46 -350.001c6.66699 -76 10 -149 10 -219zM480 1687c-25.333 -45.333 -56.3311 -77.832 -92.998 -97.499s-80 -29.5 -130 -29.5c-24.667 0 -55.334 4 -92.001 12c-15.333 3.33301 -28.333 5.83301 -39 7.5
s-20.334 2.5 -29.001 2.5c-7.33301 0 -13.5 -0.5 -18.5 -1.5s-10 -2.5 -15 -4.5s-10.667 -4.83301 -17 -8.5s-14.5 -7.83398 -24.5 -12.501l-16 12c13.333 32.667 28.666 57 45.999 73s40 24 68 24c10.667 0 22.5 -0.833008 35.5 -2.5s27.167 -4.16699 42.5 -7.5
c17.333 -3.33301 33.833 -6 49.5 -8s30.834 -3 45.501 -3c32.667 0 63.5 5.33301 92.5 16s54.5 24.667 76.5 42z" />
    <glyph glyph-name="afii57411" unicode="&#x623;" horiz-adv-x="444" arabic-form="isolated" 
d="M370 1635c-7.33301 -19.333 -16.002 -34 -26.002 -44c-7.33301 -7.33301 -18.666 -13.333 -33.999 -18l-216 -66c13.333 24 25 40.5 35 49.5s28 17.167 54 24.5c-18.667 12 -32.167 23.167 -40.5 33.5s-12.5 20.5 -12.5 30.5c0 8.66699 2.66699 18.5 8 29.5
s12.333 21.833 21 32.5c43.333 58 86.333 87 129 87c12.667 0 22.834 -4.16699 30.501 -12.5s11.5 -19.166 11.5 -32.499c0 -10.667 -1.5 -19.834 -4.5 -27.501s-9.16699 -19.167 -18.5 -34.5c-33.333 16.667 -56 25 -68 25s-24 -3 -36 -9c-8 -4 -15.333 -9.33301 -22 -16
c0 -8.66699 16 -22 48 -40s55 -27 69 -27c8.66699 0 32.667 5 72 15zM371.998 584c0 -59.333 -7 -113.501 -21 -162.501s-41 -114.833 -81 -197.5l-60 24c16 85.333 24 154.666 24 207.999c0 40.667 -3.33301 100.334 -10 179.001s-15 156.5 -25 233.5
s-26.333 168.833 -49 275.5c-8 37.333 -12 63 -12 77c0 20.667 10.333 55.834 31 105.501s49.667 109.834 87 180.501l60 -354c22 -134.667 37.333 -251.334 46 -350.001c6.66699 -76 10 -149 10 -219z" />
    <glyph glyph-name="afii57412" unicode="&#x624;" horiz-adv-x="924" arabic-form="isolated" 
d="M924 362c0 -114.667 -48.666 -228 -145.999 -340s-193.333 -168 -288 -168c-55.333 0 -115.833 17.667 -181.5 53s-166.5 105 -302.5 209l42 58c72 -48 131 -80 177 -96c38 -13.333 81 -20 129 -20c64.667 0 128.667 18 192 54c74.667 42.667 152 111.334 232 206.001
c-28 -4 -51.333 -6 -70 -6c-66 0 -118.5 21.5 -157.5 64.5s-58.5 101.5 -58.5 175.5c0 100 23 196.333 69 289c50 100.667 107 151 171 151c53.333 0 98.666 -36.333 135.999 -109s56 -160.334 56 -263.001v-258zM804.001 565
c-18.667 107.333 -56.666 160.999 -113.999 160.999c-20.667 0 -37.167 -8.16699 -49.5 -24.5s-18.5 -34.166 -18.5 -53.499c0 -24 13.167 -43.833 39.5 -59.5s61.166 -23.5 104.499 -23.5h38zM546.002 1194c-7.33301 -19.333 -16.002 -34 -26.002 -44
c-7.33301 -7.33301 -18.666 -13.333 -33.999 -18l-216 -66c13.333 24 25 40.5 35 49.5s28 17.167 54 24.5c-18.667 12 -32.167 23.167 -40.5 33.5s-12.5 20.5 -12.5 30.5c0 8.66699 2.66699 18.5 8 29.5s12.333 21.833 21 32.5c43.333 58 86.333 87 129 87
c12.667 0 22.834 -4.16699 30.501 -12.5s11.5 -19.166 11.5 -32.499c0 -10.667 -1.5 -19.834 -4.5 -27.501s-9.16699 -19.167 -18.5 -34.5c-33.333 16.667 -56 25 -68 25s-24 -3 -36 -9c-8 -4 -15.333 -9.33301 -22 -16c0 -8.66699 16 -22 48 -40s55 -27 69 -27
c8.66699 0 32.667 5 72 15z" />
    <glyph glyph-name="afii57413" unicode="&#x625;" horiz-adv-x="444" arabic-form="isolated" 
d="M368 -50c-6 -21.333 -14.002 -37 -24.002 -47c-7.33301 -7.33301 -18.666 -13.333 -33.999 -18l-216 -66c13.333 24 25 40.5 35 49.5s27.333 18.167 52 27.5c-18.667 12 -32.167 23.167 -40.5 33.5s-12.5 20.5 -12.5 30.5c0 8.66699 2.66699 18.5 8 29.5
s12.333 21.833 21 32.5c43.333 58 86.333 87 129 87c12.667 0 22.834 -4.16699 30.501 -12.5s11.5 -19.166 11.5 -32.499c0 -10.667 -1.5 -19.834 -4.5 -27.501s-9.16699 -19.167 -18.5 -34.5c-33.333 16.667 -56 25 -68 25s-24 -3 -36 -9c-8 -4 -15.333 -9.33301 -22 -16
c0 -8.66699 16 -22 48 -40s55 -27 69 -27c8.66699 0 32.667 5 72 15zM369.998 584c0 -59.333 -7 -113.501 -21 -162.501s-41 -114.833 -81 -197.5l-60 24c16 85.333 24 154.666 24 207.999c0 40.667 -3.33301 100.334 -10 179.001s-15 156.5 -25 233.5
s-26.333 168.833 -49 275.5c-8 37.333 -12 63 -12 77c0 20.667 10.333 55.834 31 105.501s49.667 109.834 87 180.501l60 -354c22 -134.667 37.333 -251.334 46 -350.001c6.66699 -76 10 -149 10 -219z" />
    <glyph glyph-name="afii57414" unicode="&#x626;" horiz-adv-x="1320" arabic-form="isolated" 
d="M1177 780c0 -36.667 -3.67188 -67.001 -11.0049 -91.001s-23 -55.667 -47 -95c-18 47.333 -33.167 78.166 -45.5 92.499s-30.166 21.5 -53.499 21.5c-36 0 -85.5 -20.5 -148.5 -61.5s-94.5 -75.5 -94.5 -103.5c0 -14.667 12.667 -25 38 -31c18 -4 46 -6 84 -6h29.5
c9.66699 0 19.5 0.333008 29.5 1c72.667 0 121 -7.33301 145 -22c20.667 -12.667 31 -37.334 31 -74.001c0 -72 -13.333 -141 -40 -207c-33.333 -83.333 -81.666 -142.666 -144.999 -177.999c-79.333 -44.667 -161.833 -80.667 -247.5 -108s-165.5 -41 -239.5 -41
c-207.333 0 -311 93 -311 279c0 94 11.667 175 35 243c26 76 81 179 165 309l46 -30c-49.333 -83.333 -86.333 -157.5 -111 -222.5s-37 -121.833 -37 -170.5c0 -126 71 -189 213 -189c53.333 0 104 4.83301 152 14.5s96.667 23.167 146 40.5c32 11.333 68.667 26 110 44
c66 29.333 101 45 105 47c30 16 45 30.333 45 43c0 6.66699 -16.167 10.834 -48.5 12.501s-55.166 2.5 -68.499 2.5c-102.667 0 -171.334 14.667 -206.001 44c-28 24 -42 68.333 -42 133c0 30.667 9.83301 69.334 29.5 116.001s45.5 93 77.5 139
c48.667 70 97.334 123 146.001 159s96.334 54 143.001 54c38.667 0 69.334 -15 92.001 -45s34 -70 34 -120zM460.995 959.999c-6 -21.333 -14.002 -37 -24.002 -47c-7.33301 -7.33301 -18.666 -13.333 -33.999 -18l-216 -66c13.333 24 25 40.5 35 49.5
s27.333 18.167 52 27.5c-18.667 12 -32.167 23.167 -40.5 33.5s-12.5 20.5 -12.5 30.5c0 8.66699 2.66699 18.5 8 29.5s12.333 21.833 21 32.5c43.333 58 86.333 87 129 87c12.667 0 22.834 -4.16699 30.501 -12.5s11.5 -19.166 11.5 -32.499
c0 -10.667 -1.5 -19.834 -4.5 -27.501s-9.16699 -19.167 -18.5 -34.5c-33.333 16.667 -56 25 -68 25s-24 -3 -36 -9c-8 -4 -15.333 -9.33301 -22 -16c0 -8.66699 16 -22 48 -40s55 -27 69 -27c8.66699 0 32.667 5 72 15z" />
    <glyph glyph-name="afii57415" unicode="&#x627;" horiz-adv-x="444" arabic-form="isolated" 
d="M370 584c0 -59.333 -7 -113.501 -21 -162.501s-41 -114.833 -81 -197.5l-60 24c16 85.333 24 154.666 24 207.999c0 40.667 -3.33301 100.334 -10 179.001s-15 156.5 -25 233.5s-26.333 168.833 -49 275.5c-8 37.333 -12 63 -12 77c0 20.667 10.333 55.834 31 105.501
s49.667 109.834 87 180.501l60 -354c22 -134.667 37.333 -251.334 46 -350.001c6.66699 -76 10 -149 10 -219z" />
    <glyph glyph-name="afii57416" unicode="&#x628;" horiz-adv-x="1330" arabic-form="isolated" 
d="M1330 293l-838.996 -0.000976562c-40.667 0 -74.334 0.333008 -101.001 1s-46.667 1.66699 -60 3c-25.333 2.66699 -53.666 9.66699 -84.999 21c-55.333 18.667 -100.333 56.667 -135 114c-35.333 57.333 -53 121.333 -53 192c0 28 1.83301 56.667 5.5 86
s11.167 60.666 22.5 93.999c13.333 40 29.166 75.833 47.499 107.5s37.166 61.834 56.499 90.501l56 -36c-14.667 -26.667 -26.834 -51 -36.501 -73s-17.167 -40.667 -22.5 -56c-10 -31.333 -15 -61.666 -15 -90.999c0 -38 12 -72.333 36 -103
c25.333 -30.667 57.333 -50.334 96 -59.001c23.333 -6 53.666 -10.667 90.999 -14s77 -5 119 -5h723c-19.333 52.667 -34.666 88.667 -45.999 108c-14.667 26 -37.334 58.333 -68.001 97l90 232c50 -71.333 82.667 -136.666 98 -195.999c13.333 -53.333 20 -130 20 -230
v-283zM940.004 84.999l-120 -224l-234 122l121 226z" />
    <glyph glyph-name="afii57417" unicode="&#x629;" horiz-adv-x="702" arabic-form="isolated" 
d="M572 1461l-110 -204l-142 80l-80 -158l-186 102l104 194l148 -74l84 162zM622 668c0 -40 -3.16797 -80.502 -9.50098 -121.502s-14.5 -74.5 -24.5 -100.5c-18.667 -50.667 -64.667 -95.334 -138 -134.001c-68 -36 -132 -54 -192 -54c-52 0 -93.333 18 -124 54
s-46 84 -46 144c0 54.667 7.83301 108.334 23.5 161.001s43.834 119 84.501 199l-36 24c11.333 30.667 26.666 67.834 45.999 111.501s36.666 80.5 51.999 110.5l98 -58c42.667 -26 83.334 -54 122.001 -84c54.667 -41.333 92.334 -80.166 113.001 -116.499
s31 -81.5 31 -135.5zM473.999 587.998c0 12.667 -23.167 38.999 -69.5 78.999s-91.833 74.333 -136.5 103c-42.667 -67.333 -64 -123.333 -64 -168c0 -21.333 8.83301 -39.666 26.5 -54.999s38.834 -23 63.501 -23c33.333 0 71.666 7.83301 114.999 23.5s65 29.167 65 40.5z
" />
    <glyph glyph-name="afii57418" unicode="&#x62a;" horiz-adv-x="1330" arabic-form="isolated" 
d="M1330 293l-838.996 -0.000976562c-40.667 0 -74.334 0.333008 -101.001 1s-46.667 1.66699 -60 3c-25.333 2.66699 -53.666 9.66699 -84.999 21c-55.333 18.667 -100.333 56.667 -135 114c-35.333 57.333 -53 121.333 -53 192c0 28 1.83301 56.667 5.5 86
s11.167 60.666 22.5 93.999c13.333 40 29.166 75.833 47.499 107.5s37.166 61.834 56.499 90.501l56 -36c-14.667 -26.667 -26.834 -51 -36.501 -73s-17.167 -40.667 -22.5 -56c-10 -31.333 -15 -61.666 -15 -90.999c0 -38 12 -72.333 36 -103
c25.333 -30.667 57.333 -50.334 96 -59.001c23.333 -6 53.666 -10.667 90.999 -14s77 -5 119 -5h723c-19.333 52.667 -34.666 88.667 -45.999 108c-14.667 26 -37.334 58.333 -68.001 97l90 232c50 -71.333 82.667 -136.666 98 -195.999c13.333 -53.333 20 -130 20 -230
v-283zM977.004 1242l-104 -194l-148 74l-84 -162l-182 102l110 204l142 -80l80 158z" />
    <glyph glyph-name="afii57419" unicode="&#x62b;" horiz-adv-x="1330" arabic-form="isolated" 
d="M1330 293l-838.996 -0.000976562c-40.667 0 -74.334 0.333008 -101.001 1s-46.667 1.66699 -60 3c-25.333 2.66699 -53.666 9.66699 -84.999 21c-55.333 18.667 -100.333 56.667 -135 114c-35.333 57.333 -53 121.333 -53 192c0 28 1.83301 56.667 5.5 86
s11.167 60.666 22.5 93.999c13.333 40 29.166 75.833 47.499 107.5s37.166 61.834 56.499 90.501l56 -36c-14.667 -26.667 -26.834 -51 -36.501 -73s-17.167 -40.667 -22.5 -56c-10 -31.333 -15 -61.666 -15 -90.999c0 -38 12 -72.333 36 -103
c25.333 -30.667 57.333 -50.334 96 -59.001c23.333 -6 53.666 -10.667 90.999 -14s77 -5 119 -5h723c-19.333 52.667 -34.666 88.667 -45.999 108c-14.667 26 -37.334 58.333 -68.001 97l90 232c50 -71.333 82.667 -136.666 98 -195.999c13.333 -53.333 20 -130 20 -230
v-283zM781.004 1473l-100 -208l-188 100l102 204zM975.004 1236l-110 -204l-142 80l-80 -158l-186 102l104 194l148 -74l84 162z" />
    <glyph glyph-name="afii57420" unicode="&#x62c;" horiz-adv-x="1182" arabic-form="isolated" 
d="M1152 -178l-386.001 -238c-237.333 0 -412 45.333 -524 136c-114.667 93.333 -172 240 -172 440c0 138 27.333 259.833 82 365.5s141.334 200.5 260.001 284.5c-79.333 0 -149.333 -11.667 -210 -35c-22 -8.66699 -72 -31 -150 -67c32 248 150 372 354 372
c30.667 0 81 -3.5 151 -10.5s131.667 -12.167 185 -15.5c101.333 -6.66699 201.333 -10 300 -10l-60 -246c-255.333 -32 -450.166 -93.5 -584.499 -184.5s-201.5 -207.5 -201.5 -349.5c0 -133.333 55.167 -235.333 165.5 -306s269.166 -106 476.499 -106
c5.33301 0 55.666 3 150.999 9c52.667 3.33301 100.334 5 143.001 5zM833.999 355l-120 -224l-234 122l121 226z" />
    <glyph glyph-name="afii57421" unicode="&#x62d;" horiz-adv-x="1182" arabic-form="isolated" 
d="M1152 -178l-386.001 -238c-237.333 0 -412 45.333 -524 136c-114.667 93.333 -172 240 -172 440c0 138 27.333 259.833 82 365.5s141.334 200.5 260.001 284.5c-79.333 0 -149.333 -11.667 -210 -35c-22 -8.66699 -72 -31 -150 -67c32 248 150 372 354 372
c30.667 0 81 -3.5 151 -10.5s131.667 -12.167 185 -15.5c101.333 -6.66699 201.333 -10 300 -10l-60 -246c-255.333 -32 -450.166 -93.5 -584.499 -184.5s-201.5 -207.5 -201.5 -349.5c0 -133.333 55.167 -235.333 165.5 -306s269.166 -106 476.499 -106
c5.33301 0 55.666 3 150.999 9c52.667 3.33301 100.334 5 143.001 5z" />
    <glyph glyph-name="afii57422" unicode="&#x62e;" horiz-adv-x="1182" arabic-form="isolated" 
d="M1152 -178l-386.001 -238c-237.333 0 -412 45.333 -524 136c-114.667 93.333 -172 240 -172 440c0 138 27.333 259.833 82 365.5s141.334 200.5 260.001 284.5c-79.333 0 -149.333 -11.667 -210 -35c-22 -8.66699 -72 -31 -150 -67c32 248 150 372 354 372
c30.667 0 81 -3.5 151 -10.5s131.667 -12.167 185 -15.5c101.333 -6.66699 201.333 -10 300 -10l-60 -246c-255.333 -32 -450.166 -93.5 -584.499 -184.5s-201.5 -207.5 -201.5 -349.5c0 -133.333 55.167 -235.333 165.5 -306s269.166 -106 476.499 -106
c5.33301 0 55.666 3 150.999 9c52.667 3.33301 100.334 5 143.001 5zM711.999 1403l-120 -224l-234 122l121 226z" />
    <glyph glyph-name="afii57423" unicode="&#x62f;" horiz-adv-x="702" arabic-form="isolated" 
d="M702 293h-452.999c-44 0 -77.667 9.33301 -101 28c-28.667 22.667 -43 59.667 -43 111c0 29.333 1.5 61 4.5 95s7.5 68.333 13.5 103l38 2c5.33301 -23.333 17.166 -40.333 35.499 -51s40.5 -16 66.5 -16h344c-15.333 98 -42 176.333 -80 235
c-31.333 48.667 -75 90.667 -131 126l72 312c86.667 -64.667 148 -148 184 -250c33.333 -94 50 -218.667 50 -374v-321z" />
    <glyph glyph-name="afii57424" unicode="&#x630;" horiz-adv-x="702" arabic-form="isolated" 
d="M702 293h-452.999c-44 0 -77.667 9.33301 -101 28c-28.667 22.667 -43 59.667 -43 111c0 29.333 1.5 61 4.5 95s7.5 68.333 13.5 103l38 2c5.33301 -23.333 17.166 -40.333 35.499 -51s40.5 -16 66.5 -16h344c-15.333 98 -42 176.333 -80 235
c-31.333 48.667 -75 90.667 -131 126l72 312c86.667 -64.667 148 -148 184 -250c33.333 -94 50 -218.667 50 -374v-321zM531.001 1607l-120 -224l-234 122l121 226z" />
    <glyph glyph-name="afii57425" unicode="&#x631;" horiz-adv-x="886" arabic-form="isolated" 
d="M886 270c0 -40.667 -23.333 -94.499 -70 -161.499s-101.334 -125.167 -164.001 -174.5c-69.333 -54.667 -128.666 -82 -177.999 -82c-58.667 0 -121.667 16.667 -189 50c-58.667 28.667 -150.334 86 -275.001 172l42 62c60 -40 108.333 -67 145 -81
s76.334 -21 119.001 -21c46 0 92 13 138 39s108.667 74.333 188 145c110.667 98.667 166 174.667 166 228c0 26.667 -10.667 61.667 -32 105c-24 49.333 -53.333 90.333 -88 123l56 270c45.333 -46.667 80.333 -100.334 105 -161.001s37 -129.667 37 -207v-306z" />
    <glyph glyph-name="afii57426" unicode="&#x632;" horiz-adv-x="886" arabic-form="isolated" 
d="M886 270c0 -40.667 -23.333 -94.499 -70 -161.499s-101.334 -125.167 -164.001 -174.5c-69.333 -54.667 -128.666 -82 -177.999 -82c-58.667 0 -121.667 16.667 -189 50c-58.667 28.667 -150.334 86 -275.001 172l42 62c60 -40 108.333 -67 145 -81
s76.334 -21 119.001 -21c46 0 92 13 138 39s108.667 74.333 188 145c110.667 98.667 166 174.667 166 228c0 26.667 -10.667 61.667 -32 105c-24 49.333 -53.333 90.333 -88 123l56 270c45.333 -46.667 80.333 -100.334 105 -161.001s37 -129.667 37 -207v-306zM835 1295
l-120 -224l-234 122l121 226z" />
    <glyph glyph-name="afii57427" unicode="&#x633;" horiz-adv-x="1842" arabic-form="isolated" 
d="M1842 294c-73.333 0 -125.669 3.33301 -157.002 10s-89.666 25.334 -174.999 56.001c-38.667 -27.333 -73.167 -45.333 -103.5 -54s-75.833 -13 -136.5 -13h-163c0 -154.667 -49.333 -266 -148 -334c-86 -59.333 -215.667 -89 -389 -89c-162 0 -286.833 29.5 -374.5 88.5
s-131.5 142.833 -131.5 251.5c0 92.667 14 177.334 42 254.001c30.667 84.667 90.667 194.667 180 330l60 -42c-66 -112.667 -109.167 -194.334 -129.5 -245.001s-30.5 -103 -30.5 -157c0 -70 37.5 -127.167 112.5 -171.5s173.5 -66.5 295.5 -66.5c120 0 221 23 303 69
s123 102.333 123 169c0 41.333 -7.16699 82.333 -21.5 123s-45.166 105.667 -92.499 195l88 270c47.333 -80 78.666 -146 93.999 -198c13.333 -45.333 20 -103.666 20 -174.999h92c100.667 0 170.834 11.833 210.501 35.5s59.5 66.167 59.5 127.5
c0 26.667 2.5 46.167 7.5 58.5s16.833 25.166 35.5 38.499l47 33c1.33301 -12.667 2.33301 -29.834 3 -51.501s1 -35.834 1 -42.501c0 -36.667 -5.33301 -85.334 -16 -146.001c30.667 -10 61.5 -19.167 92.5 -27.5s60.167 -14.5 87.5 -18.5c0 24 -8.33301 53.333 -25 88
s-25 57.334 -25 68.001c0 8 1.16699 15.667 3.5 23s7.83301 17 16.5 29l94 134c18 -42 30.833 -80.167 38.5 -114.5s11.5 -77.166 11.5 -128.499v-377z" />
    <glyph glyph-name="afii57428" unicode="&#x634;" horiz-adv-x="1842" arabic-form="isolated" 
d="M1842 294c-73.333 0 -125.669 3.33301 -157.002 10s-89.666 25.334 -174.999 56.001c-38.667 -27.333 -73.167 -45.333 -103.5 -54s-75.833 -13 -136.5 -13h-163c0 -154.667 -49.333 -266 -148 -334c-86 -59.333 -215.667 -89 -389 -89c-162 0 -286.833 29.5 -374.5 88.5
s-131.5 142.833 -131.5 251.5c0 92.667 14 177.334 42 254.001c30.667 84.667 90.667 194.667 180 330l60 -42c-66 -112.667 -109.167 -194.334 -129.5 -245.001s-30.5 -103 -30.5 -157c0 -70 37.5 -127.167 112.5 -171.5s173.5 -66.5 295.5 -66.5c120 0 221 23 303 69
s123 102.333 123 169c0 41.333 -7.16699 82.333 -21.5 123s-45.166 105.667 -92.499 195l88 270c47.333 -80 78.666 -146 93.999 -198c13.333 -45.333 20 -103.666 20 -174.999h92c100.667 0 170.834 11.833 210.501 35.5s59.5 66.167 59.5 127.5
c0 26.667 2.5 46.167 7.5 58.5s16.833 25.166 35.5 38.499l47 33c1.33301 -12.667 2.33301 -29.834 3 -51.501s1 -35.834 1 -42.501c0 -36.667 -5.33301 -85.334 -16 -146.001c30.667 -10 61.5 -19.167 92.5 -27.5s60.167 -14.5 87.5 -18.5c0 24 -8.33301 53.333 -25 88
s-25 57.334 -25 68.001c0 8 1.16699 15.667 3.5 23s7.83301 17 16.5 29l94 134c18 -42 30.833 -80.167 38.5 -114.5s11.5 -77.166 11.5 -128.499v-377zM1566 1489l-100 -208l-188 100l102 204zM1760 1252l-110 -204l-142 80l-80 -158l-186 102l104 194l148 -74l84 162z" />
    <glyph glyph-name="afii57429" unicode="&#x635;" horiz-adv-x="2176" arabic-form="isolated" 
d="M2176 293l-1069 0.000976562c0 -155.333 -49.333 -267 -148 -335c-85.333 -58.667 -215 -88 -389 -88c-162 0 -286.833 29.5 -374.5 88.5s-131.5 142.833 -131.5 251.5c0 92.667 14 177.334 42 254.001c30.667 84.667 90.667 194.667 180 330l60 -42
c-66 -112.667 -109.167 -194.334 -129.5 -245.001s-30.5 -103 -30.5 -157c0 -70 37.5 -127.167 112.5 -171.5s173.5 -66.5 295.5 -66.5c120 0 221 23 303 69s123 102.333 123 169c0 41.333 -7.16699 82.333 -21.5 123s-45.166 105.667 -92.499 195l88 270
c36.667 -70.667 57.334 -111.334 62.001 -122.001c19.333 -40.667 32.833 -78.667 40.5 -114s11.5 -81 11.5 -137c43.333 0 82.666 11 117.999 33c4 2.66699 37 26 99 70l358 256c56 39.333 98 66 126 80c38.667 18.667 77.667 28 117 28
c74.667 0 133.334 -26.333 176.001 -79c49.333 -60.667 74 -153 74 -277v-383zM2044 667.001c0 25.333 -20.667 47.666 -62 66.999s-91 29 -149 29c-44 0 -93.5 -14.167 -148.5 -42.5s-134.833 -80.166 -239.5 -155.499h262c224.667 0 337 34 337 102z" />
    <glyph glyph-name="afii57430" unicode="&#x636;" horiz-adv-x="2176" arabic-form="isolated" 
d="M2176 293l-1069 0.000976562c0 -155.333 -49.333 -267 -148 -335c-85.333 -58.667 -215 -88 -389 -88c-162 0 -286.833 29.5 -374.5 88.5s-131.5 142.833 -131.5 251.5c0 92.667 14 177.334 42 254.001c30.667 84.667 90.667 194.667 180 330l60 -42
c-66 -112.667 -109.167 -194.334 -129.5 -245.001s-30.5 -103 -30.5 -157c0 -70 37.5 -127.167 112.5 -171.5s173.5 -66.5 295.5 -66.5c120 0 221 23 303 69s123 102.333 123 169c0 41.333 -7.16699 82.333 -21.5 123s-45.166 105.667 -92.499 195l88 270
c36.667 -70.667 57.334 -111.334 62.001 -122.001c19.333 -40.667 32.833 -78.667 40.5 -114s11.5 -81 11.5 -137c43.333 0 82.666 11 117.999 33c4 2.66699 37 26 99 70l358 256c56 39.333 98 66 126 80c38.667 18.667 77.667 28 117 28
c74.667 0 133.334 -26.333 176.001 -79c49.333 -60.667 74 -153 74 -277v-383zM2044 667.001c0 25.333 -20.667 47.666 -62 66.999s-91 29 -149 29c-44 0 -93.5 -14.167 -148.5 -42.5s-134.833 -80.166 -239.5 -155.499h262c224.667 0 337 34 337 102zM1658 1367l-120 -224
l-234 122l121 226z" />
    <glyph glyph-name="afii57431" unicode="&#x637;" horiz-adv-x="1072" arabic-form="isolated" 
d="M1072 293l-1142 0.00195312v272h133c16 0 61 27.667 135 83c24.667 18 60.334 46 107.001 84c0 82 -3 151.333 -9 208s-15.667 115.667 -29 177c-3.33301 14.667 -21.333 87 -54 217l-58 36c15.333 70 28 120.167 38 150.5s29.333 78.166 58 143.499l46 -18
c0 -4 -1.33301 -12.667 -4 -26c0 -23.333 33 -51 99 -83c22 -10.667 55 -24.334 99 -41.001c-6.66699 -52 -17.334 -100.667 -32.001 -146c-7.33301 -22.667 -20.666 -58 -39.999 -106l-36 12c20.667 -94.667 34.5 -164.5 41.5 -209.5s10.5 -85.167 10.5 -120.5v-11
c0 -19.333 -0.5 -34.5 -1.5 -45.5s-3.83301 -28.167 -8.5 -51.5l105 76c54 38 102.333 68.667 145 92c56 30.667 98.667 46 128 46c78.667 0 141.667 -20.333 189 -61c53.333 -46 80 -112.333 80 -199v-479zM932.999 667.002c0 23.333 -24.668 45.166 -74.001 65.499
s-92.666 30.5 -129.999 30.5c-44 0 -93.5 -14.167 -148.5 -42.5s-134.833 -80.166 -239.5 -155.499h262c220 0 330 34 330 102z" />
    <glyph glyph-name="afii57432" unicode="&#x638;" horiz-adv-x="1072" arabic-form="isolated" 
d="M1072 293l-1142 0.00195312v272h133c16 0 61 27.667 135 83c24.667 18 60.334 46 107.001 84c0 82 -3 151.333 -9 208s-15.667 115.667 -29 177c-3.33301 14.667 -21.333 87 -54 217l-58 36c15.333 70 28 120.167 38 150.5s29.333 78.166 58 143.499l46 -18
c0 -4 -1.33301 -12.667 -4 -26c0 -23.333 33 -51 99 -83c22 -10.667 55 -24.334 99 -41.001c-6.66699 -52 -17.334 -100.667 -32.001 -146c-7.33301 -22.667 -20.666 -58 -39.999 -106l-36 12c20.667 -94.667 34.5 -164.5 41.5 -209.5s10.5 -85.167 10.5 -120.5v-11
c0 -19.333 -0.5 -34.5 -1.5 -45.5s-3.83301 -28.167 -8.5 -51.5l105 76c54 38 102.333 68.667 145 92c56 30.667 98.667 46 128 46c78.667 0 141.667 -20.333 189 -61c53.333 -46 80 -112.333 80 -199v-479zM932.999 667.002c0 23.333 -24.668 45.166 -74.001 65.499
s-92.666 30.5 -129.999 30.5c-44 0 -93.5 -14.167 -148.5 -42.5s-134.833 -80.166 -239.5 -155.499h262c220 0 330 34 330 102zM915.998 1367l-120 -224l-234 122l121 226z" />
    <glyph glyph-name="afii57433" unicode="&#x639;" horiz-adv-x="1108" arabic-form="isolated" 
d="M1096 -182l-378.001 -233.999l-102 -2c-186 0 -326.5 39.833 -421.5 119.5s-142.5 196.5 -142.5 350.5c0 99.333 13 187 39 263c29.333 86 76.333 161 141 225c-33.333 38 -62.666 82 -87.999 132s-38 90.667 -38 122c0 38 14.333 94.667 43 170s57 128.666 85 159.999
c22.667 28.667 56.834 51.5 102.501 68.5s94.834 25.5 147.501 25.5c73.333 0 141 -16.833 203 -50.5s114.333 -82.167 157 -145.5c-20 0 -39 0.333008 -57 1s-37 1.66699 -57 3c-138 0 -249.5 -11 -334.5 -33s-127.5 -51 -127.5 -87c0 -28 14.667 -56 44 -84
c34.667 -33.333 90.667 -66.666 168 -99.999c92 40 162.667 67.833 212 83.5s126 35.167 230 58.5c-18.667 -58 -33 -100.333 -43 -127c-12 -30.667 -29.667 -70.334 -53 -119.001c-202.667 -48 -363.334 -115 -482.001 -201s-178 -177.667 -178 -275
c0 -91.333 51 -161.333 153 -210c116.667 -56 299.667 -84 549 -84h24c39.333 0 68.166 0.5 86.499 1.5s51.5 3.83301 99.5 8.5z" />
    <glyph glyph-name="afii57434" unicode="&#x63a;" horiz-adv-x="1108" arabic-form="isolated" 
d="M1096 -182l-378.001 -233.999l-102 -2c-186 0 -326.5 39.833 -421.5 119.5s-142.5 196.5 -142.5 350.5c0 99.333 13 187 39 263c29.333 86 76.333 161 141 225c-33.333 38 -62.666 82 -87.999 132s-38 90.667 -38 122c0 38 14.333 94.667 43 170s57 128.666 85 159.999
c22.667 28.667 56.834 51.5 102.501 68.5s94.834 25.5 147.501 25.5c73.333 0 141 -16.833 203 -50.5s114.333 -82.167 157 -145.5c-20 0 -39 0.333008 -57 1s-37 1.66699 -57 3c-138 0 -249.5 -11 -334.5 -33s-127.5 -51 -127.5 -87c0 -28 14.667 -56 44 -84
c34.667 -33.333 90.667 -66.666 168 -99.999c92 40 162.667 67.833 212 83.5s126 35.167 230 58.5c-18.667 -58 -33 -100.333 -43 -127c-12 -30.667 -29.667 -70.334 -53 -119.001c-202.667 -48 -363.334 -115 -482.001 -201s-178 -177.667 -178 -275
c0 -91.333 51 -161.333 153 -210c116.667 -56 299.667 -84 549 -84h24c39.333 0 68.166 0.5 86.499 1.5s51.5 3.83301 99.5 8.5zM598.999 1559l-120 -224l-234 122l121 226z" />
    <glyph glyph-name="uni063B.init" unicode="&#x63b;" horiz-adv-x="738" 
d="M738 293l-808 0.000976562v272h649c-26 31.333 -51.333 58.666 -76 81.999c-20 18.667 -47 41.334 -81 68.001l-113 88l-32 -36c-59.333 58.667 -94.666 94.334 -105.999 107.001c-33.333 38 -50 81.667 -50 131c0 67.333 4.66699 114.666 14 141.999
c13.333 38.667 41.666 73 84.999 103c38.667 26.667 80 51 124 73c34.667 17.333 80.667 37.666 138 60.999l169 66v-238c-3.33301 0 -31.333 -8.66699 -84 -26c-65.333 -21.333 -117.333 -40 -156 -56c-56 -22.667 -84 -39.667 -84 -51c0 -6 23.667 -32 71 -78
c64.667 -62.667 119 -120 163 -172c72.667 -86 131.667 -171.667 177 -257v-279zM590 1697l-104 -194l-148 74l-84 -162l-182 102l110 204l142 -80l80 158z" />
    <glyph glyph-name="uni063B.medi" unicode="&#x63b;" horiz-adv-x="1110" 
d="M-70 293l0.00195312 271.999h170c72 0 126.333 1.66699 163 5c57.333 5.33301 101.333 15.666 132 30.999c36 18 54 44.667 54 80c0 18 -11.333 40.333 -34 67s-47.667 47.334 -75 62.001l-35 -35c-51.333 48.667 -83.333 80 -96 94c-37.333 42 -56 87.333 -56 136
c0 67.333 4.66699 114.666 14 141.999c13.333 38.667 41.666 73 84.999 103c36.667 25.333 86 52 148 80c50 22.667 110.667 47.667 182 75l193 73v-238l-107 -33c-82 -26 -149 -49 -201 -69c-72 -28 -108 -47.667 -108 -59c-0.666992 -10 -1 -17 -1 -21
c0 -15.333 7 -31 21 -47c18.667 -21.333 57.667 -55.333 117 -102c43.333 -34.667 104 -89 182 -163c66 -63.333 115.333 -106.333 148 -129c49.333 -34.667 96 -52 140 -52h144v-272h-136c-50 0 -105.667 21.667 -167 65c-50 35.333 -101.333 82 -154 140
c-28 30.667 -64.667 75.334 -110 134.001c0 -111.333 -36.667 -194.666 -110 -249.999c-78.667 -59.333 -204.334 -89 -377.001 -89h-126zM590.002 1697l-104 -194l-148 74l-84 -162l-182 102l110 204l142 -80l80 158z" />
    <glyph glyph-name="uni063B.fina" unicode="&#x63b;" horiz-adv-x="1800" 
d="M790 565c72 0 126.336 1.66504 163.003 4.99805c57.333 5.33301 101.333 15.666 132 30.999c36 18 54 44.667 54 80c0 18 -11.333 40.333 -34 67s-47.667 47.334 -75 62.001l-35 -35c-51.333 48.667 -83.333 80 -96 94c-37.333 42 -56 87.333 -56 136
c0 67.333 4.66699 114.666 14 141.999c13.333 38.667 41.666 73 84.999 103c36.667 25.333 86 52 148 80c50 22.667 110.667 47.667 182 75l193 73v-238l-107 -33c-82 -26 -149 -49 -201 -69c-72 -28 -108 -47.667 -108 -59c-0.666992 -10 -1 -17 -1 -21
c0 -15.333 7 -31 21 -47c18.667 -21.333 57.667 -55.333 117 -102c43.333 -34.667 104 -89 182 -163c66 -63.333 115.333 -106.333 148 -129c49.333 -34.667 96 -52 140 -52h144v-272h-136c-50 0 -105.667 21.667 -167 65c-50 35.333 -101.333 82 -154 140
c-28 30.667 -64.667 75.334 -110 134.001c0 -111.333 -36.667 -194.666 -110 -249.999c-78.667 -59.333 -204.334 -89 -377.001 -89h-309c-144 0 -247.667 24.667 -311 74c-56.667 44 -85 112.333 -85 205c0 62 9.5 122.833 28.5 182.5s51.5 130.834 97.5 213.501l60 -42
c-26 -51.333 -42.833 -89.5 -50.5 -114.5s-11.5 -51.5 -11.5 -79.5c0 -64 23.667 -107.833 71 -131.5s137.666 -35.5 270.999 -35.5h283zM1337 1697l-104 -194l-148 74l-84 -162l-182 102l110 204l142 -80l80 158z" />
    <glyph glyph-name="uni063C.init" unicode="&#x63c;" horiz-adv-x="738" 
d="M738 293l-808 0.000976562v272h649c-26 31.333 -51.333 58.666 -76 81.999c-20 18.667 -47 41.334 -81 68.001l-113 88l-32 -36c-59.333 58.667 -94.666 94.334 -105.999 107.001c-33.333 38 -50 81.667 -50 131c0 67.333 4.66699 114.666 14 141.999
c13.333 38.667 41.666 73 84.999 103c38.667 26.667 80 51 124 73c34.667 17.333 80.667 37.666 138 60.999l169 66v-238c-3.33301 0 -31.333 -8.66699 -84 -26c-65.333 -21.333 -117.333 -40 -156 -56c-56 -22.667 -84 -39.667 -84 -51c0 -6 23.667 -32 71 -78
c64.667 -62.667 119 -120 163 -172c72.667 -86 131.667 -171.667 177 -257v-279zM755 117.001l-104 -194l-148 74l-84 -162l-182 102l110 204l142 -80l80 158zM719 -191.999l-102 -204l-186 96l100 208z" />
    <glyph glyph-name="uni063C.medi" unicode="&#x63c;" horiz-adv-x="1110" 
d="M-70 293l0.00195312 271.999h170c72 0 126.333 1.66699 163 5c57.333 5.33301 101.333 15.666 132 30.999c36 18 54 44.667 54 80c0 18 -11.333 40.333 -34 67s-47.667 47.334 -75 62.001l-35 -35c-51.333 48.667 -83.333 80 -96 94c-37.333 42 -56 87.333 -56 136
c0 67.333 4.66699 114.666 14 141.999c13.333 38.667 41.666 73 84.999 103c36.667 25.333 86 52 148 80c50 22.667 110.667 47.667 182 75l193 73v-238l-107 -33c-82 -26 -149 -49 -201 -69c-72 -28 -108 -47.667 -108 -59c-0.666992 -10 -1 -17 -1 -21
c0 -15.333 7 -31 21 -47c18.667 -21.333 57.667 -55.333 117 -102c43.333 -34.667 104 -89 182 -163c66 -63.333 115.333 -106.333 148 -129c49.333 -34.667 96 -52 140 -52h144v-272h-136c-50 0 -105.667 21.667 -167 65c-50 35.333 -101.333 82 -154 140
c-28 30.667 -64.667 75.334 -110 134.001c0 -111.333 -36.667 -194.666 -110 -249.999c-78.667 -59.333 -204.334 -89 -377.001 -89h-126zM655.002 116.999l-104 -194l-148 74l-84 -162l-182 102l110 204l142 -80l80 158zM619.002 -192.001l-102 -204l-186 96l100 208z" />
    <glyph glyph-name="uni063C.fina" unicode="&#x63c;" horiz-adv-x="1800" 
d="M790 565c72 0 126.336 1.66504 163.003 4.99805c57.333 5.33301 101.333 15.666 132 30.999c36 18 54 44.667 54 80c0 18 -11.333 40.333 -34 67s-47.667 47.334 -75 62.001l-35 -35c-51.333 48.667 -83.333 80 -96 94c-37.333 42 -56 87.333 -56 136
c0 67.333 4.66699 114.666 14 141.999c13.333 38.667 41.666 73 84.999 103c36.667 25.333 86 52 148 80c50 22.667 110.667 47.667 182 75l193 73v-238l-107 -33c-82 -26 -149 -49 -201 -69c-72 -28 -108 -47.667 -108 -59c-0.666992 -10 -1 -17 -1 -21
c0 -15.333 7 -31 21 -47c18.667 -21.333 57.667 -55.333 117 -102c43.333 -34.667 104 -89 182 -163c66 -63.333 115.333 -106.333 148 -129c49.333 -34.667 96 -52 140 -52h144v-272h-136c-50 0 -105.667 21.667 -167 65c-50 35.333 -101.333 82 -154 140
c-28 30.667 -64.667 75.334 -110 134.001c0 -111.333 -36.667 -194.666 -110 -249.999c-78.667 -59.333 -204.334 -89 -377.001 -89h-309c-144 0 -247.667 24.667 -311 74c-56.667 44 -85 112.333 -85 205c0 62 9.5 122.833 28.5 182.5s51.5 130.834 97.5 213.501l60 -42
c-26 -51.333 -42.833 -89.5 -50.5 -114.5s-11.5 -51.5 -11.5 -79.5c0 -64 23.667 -107.833 71 -131.5s137.666 -35.5 270.999 -35.5h283zM1255 116.998l-104 -194l-148 74l-84 -162l-182 102l110 204l142 -80l80 158zM1219 -192.002l-102 -204l-186 96l100 208z" />
    <glyph glyph-name="uni063D.init" unicode="&#x63d;" horiz-adv-x="556" 
d="M556 293l-626.001 0.000976562v272h526c-7.33301 45.333 -20.666 83.666 -39.999 114.999c-10 17.333 -33.333 47.333 -70 90l80 238c50 -56.667 84.167 -116 102.5 -178s27.5 -154 27.5 -276v-261zM539.999 117.001l-104 -194l-148 74l-84 -162l-182 102l110 204
l142 -80l80 158zM584.999 1086h-117l-67 120l-67 -120h-117l136 230h96z" />
    <glyph glyph-name="uni063D.medi" unicode="&#x63d;" horiz-adv-x="556" 
d="M556 293l-626.001 0.000976562v272h526c-7.33301 45.333 -20.666 83.666 -39.999 114.999c-10 17.333 -33.333 47.333 -70 90l80 238c50 -56.667 84.167 -116 102.5 -178s27.5 -154 27.5 -276v-261zM539.999 117.001l-104 -194l-148 74l-84 -162l-182 102l110 204
l142 -80l80 158zM584.999 1086h-117l-67 120l-67 -120h-117l136 230h96z" />
    <glyph glyph-name="uni063D.fina" unicode="&#x63d;" horiz-adv-x="1135" 
d="M1135 293l-84.999 0.00292969c-24.667 0 -44.5 -2 -59.5 -6s-22.5 -9.66699 -22.5 -17c0 -4 16.333 -12.333 49 -25s49 -32.334 49 -59.001c0 -36.667 -5.5 -80.834 -16.5 -132.501s-26.167 -98.167 -45.5 -139.5c-14.667 -32 -55.667 -68.667 -123 -110
c-72 -44 -153.667 -80.667 -245 -110c-104.667 -33.333 -204 -50 -298 -50c-108 0 -189.667 25 -245 75s-83 123 -83 219c0 105.333 12.667 196.666 38 273.999c30.667 93.333 93.334 215.333 188.001 366l56 -42c-62.667 -106.667 -105.667 -191.667 -129 -255
s-35 -125.666 -35 -186.999s19.667 -109.666 59 -144.999s93.666 -53 162.999 -53c84.667 0 175.667 13 273 39c88 23.333 163.5 51.5 226.5 84.5s94.5 60.167 94.5 81.5c0 6.66699 -18.667 10.667 -56 12s-70.666 2 -99.999 2c-70.667 0 -116.334 2.66699 -137.001 8
s-31 17.666 -31 36.999c0 36 6.5 74 19.5 114s28.5 70.667 46.5 92c44 53.333 96 98.666 156 135.999c67.333 42 127.666 63 180.999 63h112v-272zM753.001 690.003h-117l-67 120l-67 -120h-117l136 230h96z" />
    <glyph glyph-name="uni063E.init" unicode="&#x63e;" horiz-adv-x="556" 
d="M556 293l-626.001 0.000976562v272h526c-7.33301 45.333 -20.666 83.666 -39.999 114.999c-10 17.333 -33.333 47.333 -70 90l80 238c50 -56.667 84.167 -116 102.5 -178s27.5 -154 27.5 -276v-261zM539.999 117.001l-104 -194l-148 74l-84 -162l-182 102l110 204
l142 -80l80 158zM545.999 1341l-104 -194l-148 74l-84 -162l-182 102l110 204l142 -80l80 158z" />
    <glyph glyph-name="uni063E.medi" unicode="&#x63e;" horiz-adv-x="556" 
d="M556 293l-626.001 0.000976562v272h526c-7.33301 45.333 -20.666 83.666 -39.999 114.999c-10 17.333 -33.333 47.333 -70 90l80 238c50 -56.667 84.167 -116 102.5 -178s27.5 -154 27.5 -276v-261zM539.999 117.001l-104 -194l-148 74l-84 -162l-182 102l110 204
l142 -80l80 158zM545.999 1341l-104 -194l-148 74l-84 -162l-182 102l110 204l142 -80l80 158z" />
    <glyph glyph-name="uni063E.fina" unicode="&#x63e;" horiz-adv-x="1135" 
d="M1135 293l-84.999 0.00292969c-24.667 0 -44.5 -2 -59.5 -6s-22.5 -9.66699 -22.5 -17c0 -4 16.333 -12.333 49 -25s49 -32.334 49 -59.001c0 -36.667 -5.5 -80.834 -16.5 -132.501s-26.167 -98.167 -45.5 -139.5c-14.667 -32 -55.667 -68.667 -123 -110
c-72 -44 -153.667 -80.667 -245 -110c-104.667 -33.333 -204 -50 -298 -50c-108 0 -189.667 25 -245 75s-83 123 -83 219c0 105.333 12.667 196.666 38 273.999c30.667 93.333 93.334 215.333 188.001 366l56 -42c-62.667 -106.667 -105.667 -191.667 -129 -255
s-35 -125.666 -35 -186.999s19.667 -109.666 59 -144.999s93.666 -53 162.999 -53c84.667 0 175.667 13 273 39c88 23.333 163.5 51.5 226.5 84.5s94.5 60.167 94.5 81.5c0 6.66699 -18.667 10.667 -56 12s-70.666 2 -99.999 2c-70.667 0 -116.334 2.66699 -137.001 8
s-31 17.666 -31 36.999c0 36 6.5 74 19.5 114s28.5 70.667 46.5 92c44 53.333 96 98.666 156 135.999c67.333 42 127.666 63 180.999 63h112v-272zM865.001 902.003l-104 -194l-148 74l-84 -162l-182 102l110 204l142 -80l80 158z" />
    <glyph glyph-name="uni063F.init" unicode="&#x63f;" horiz-adv-x="556" 
d="M556 293l-626.001 0.000976562v272h526c-7.33301 45.333 -20.666 83.666 -39.999 114.999c-10 17.333 -33.333 47.333 -70 90l80 238c50 -56.667 84.167 -116 102.5 -178s27.5 -154 27.5 -276v-261zM539.999 117.001l-104 -194l-148 74l-84 -162l-182 102l110 204
l142 -80l80 158zM345.999 1529l-100 -208l-188 100l102 204zM539.999 1292l-110 -204l-142 80l-80 -158l-186 102l104 194l148 -74l84 162z" />
    <glyph glyph-name="uni063F.medi" unicode="&#x63f;" horiz-adv-x="556" 
d="M556 293l-626.001 0.000976562v272h526c-7.33301 45.333 -20.666 83.666 -39.999 114.999c-10 17.333 -33.333 47.333 -70 90l80 238c50 -56.667 84.167 -116 102.5 -178s27.5 -154 27.5 -276v-261zM539.999 117.001l-104 -194l-148 74l-84 -162l-182 102l110 204
l142 -80l80 158zM345.999 1529l-100 -208l-188 100l102 204zM539.999 1292l-110 -204l-142 80l-80 -158l-186 102l104 194l148 -74l84 162z" />
    <glyph glyph-name="uni063F.fina" unicode="&#x63f;" horiz-adv-x="1135" 
d="M1135 293l-84.999 0.00292969c-24.667 0 -44.5 -2 -59.5 -6s-22.5 -9.66699 -22.5 -17c0 -4 16.333 -12.333 49 -25s49 -32.334 49 -59.001c0 -36.667 -5.5 -80.834 -16.5 -132.501s-26.167 -98.167 -45.5 -139.5c-14.667 -32 -55.667 -68.667 -123 -110
c-72 -44 -153.667 -80.667 -245 -110c-104.667 -33.333 -204 -50 -298 -50c-108 0 -189.667 25 -245 75s-83 123 -83 219c0 105.333 12.667 196.666 38 273.999c30.667 93.333 93.334 215.333 188.001 366l56 -42c-62.667 -106.667 -105.667 -191.667 -129 -255
s-35 -125.666 -35 -186.999s19.667 -109.666 59 -144.999s93.666 -53 162.999 -53c84.667 0 175.667 13 273 39c88 23.333 163.5 51.5 226.5 84.5s94.5 60.167 94.5 81.5c0 6.66699 -18.667 10.667 -56 12s-70.666 2 -99.999 2c-70.667 0 -116.334 2.66699 -137.001 8
s-31 17.666 -31 36.999c0 36 6.5 74 19.5 114s28.5 70.667 46.5 92c44 53.333 96 98.666 156 135.999c67.333 42 127.666 63 180.999 63h112v-272zM664.001 1087l-100 -208l-188 100l102 204zM858.001 850.003l-110 -204l-142 80l-80 -158l-186 102l104 194l148 -74l84 162z
" />
    <glyph glyph-name="afii57441" unicode="&#x641;" horiz-adv-x="1552" arabic-form="isolated" 
d="M1552 293l-134.001 0.000976562c-116.667 0 -249 -2.66699 -397 -8c-89.333 -3.33301 -205.333 -8.33301 -348 -15s-219.334 -10 -230.001 -10c-142 0 -244.667 25 -308 75c-58.667 46.667 -88 119 -88 217c0 76 7.33301 142.333 22 199s48.667 148.334 102 275.001
l66 -30c-48 -114 -72 -197.333 -72 -250c0 -68.667 27 -118 81 -148c60 -33.333 163.667 -50 311 -50c102 6 201.333 11.167 298 15.5s189.334 6.5 278.001 6.5c-27.333 13.333 -46.166 28.166 -56.499 44.499s-15.5 40.166 -15.5 71.499c0 95.333 29 190.333 87 285
c62.667 102 131.667 153 207 153c70.667 0 122 -49.333 154 -148c28.667 -89.333 43 -226.333 43 -411v-272zM1396 692.001c-23.333 65.333 -42.666 108.333 -57.999 129s-35.333 31 -60 31c-12.667 0 -23.834 -4.83301 -33.501 -14.5s-14.5 -22.167 -14.5 -37.5
c0 -20.667 14.333 -40 43 -58s69.667 -34.667 123 -50zM1474 1472l-120 -224l-234 122l121 226z" />
    <glyph glyph-name="afii57442" unicode="&#x642;" horiz-adv-x="1254" arabic-form="isolated" 
d="M1254 266c0 -131.333 -7.33203 -218.168 -21.999 -260.501s-49.667 -85.5 -105 -129.5c-120.667 -94.667 -291.334 -142 -512.001 -142c-185.333 0 -327.666 30.333 -426.999 91s-149 147.667 -149 261c0 98 15.333 187 46 267c34 88 97.333 196.333 190 325l60 -42
c-60.667 -88 -103.834 -162.333 -129.501 -223s-38.5 -119.667 -38.5 -177c0 -81.333 42 -144.666 126 -189.999s202 -68 354 -68c137.333 0 258.666 26.667 363.999 80s158 114 158 182c0 8.66699 -0.166992 17.667 -0.5 27s-2.16602 20.333 -5.49902 33
c-70 -6.66699 -122 -10 -156 -10c-73.333 0 -130.666 18.333 -171.999 55s-62 88.334 -62 155.001c0 98 24.667 195.667 74 293c53.333 104.667 112.666 157 177.999 157c72 0 129 -51.667 171 -155c38.667 -94.667 58 -212.334 58 -353.001v-176zM1073 565.998
c-18 41.333 -36.332 70.667 -54.999 88s-41 26 -67 26c-16.667 0 -29.834 -5.16699 -39.501 -15.5s-14.5 -23.833 -14.5 -40.5c0 -44 28 -66 84 -66c20 0 34.667 0.5 44 1.5s25.333 3.16699 48 6.5zM1214 1246l-104 -194l-148 74l-84 -162l-182 102l110 204l142 -80l80 158z
" />
    <glyph glyph-name="afii57443" unicode="&#x643;" horiz-adv-x="1108" arabic-form="isolated" 
d="M765 1038c0 -88.667 -26.168 -157.834 -78.501 -207.501s-125.5 -74.5 -219.5 -74.5c-26 0 -46.833 0.666992 -62.5 2s-41.5 5.33301 -77.5 12l12 64h18c66 0 126.833 9.16699 182.5 27.5s83.5 39.833 83.5 64.5c0 9.33301 -3.33301 15.833 -10 19.5s-20 6.5 -40 8.5
c-64 0 -96 28 -96 84c0 40 7.83301 84.5 23.5 133.5s37.834 98.5 66.501 148.5c18.667 30.667 37.667 53.334 57 68.001s48.333 28 87 40c-1.33301 -26 -2.33301 -54.333 -3 -85s-1 -57.667 -1 -81c-36 -10 -66 -24 -90 -42c-21.333 -16 -32 -30 -32 -42
c0 -14 22.667 -24 68 -30c41.333 0 70.333 -8.33301 87 -25s25 -45 25 -85zM1108 293l-670.998 0.000976562c-144 0 -247.667 24.667 -311 74c-56.667 44 -85 112.333 -85 205c0 62 9.5 122.833 28.5 182.5s51.5 130.834 97.5 213.501l60 -42
c-26 -51.333 -42.833 -89.5 -50.5 -114.5s-11.5 -51.5 -11.5 -79.5c0 -64 23.667 -107.833 71 -131.5s137.666 -35.5 270.999 -35.5h481l-121 679l-64 42c0 39.333 6 79 18 119c15.333 50.667 41.333 111 78 181l46 -24c0 -4 -1.33301 -14.667 -4 -32
c0 -22 14 -43.333 42 -64c24.667 -18.667 64 -39.334 118 -62.001c-6 -42.667 -14.833 -84.334 -26.5 -125.001s-24.834 -77 -39.501 -109l-36 14l109 -619v-272z" />
    <glyph glyph-name="afii57444" unicode="&#x644;" horiz-adv-x="924" arabic-form="isolated" 
d="M924 318c0 -102.667 -53.332 -193.665 -159.999 -272.998s-228.334 -119 -365.001 -119c-114 0 -203.167 28.833 -267.5 86.5s-96.5 138.167 -96.5 241.5c0 96.667 12 181 36 253c27.333 81.333 80.666 181 159.999 299l62 -42c-52 -78 -89 -145.667 -111 -203
s-33 -114.333 -33 -171c0 -60.667 22.5 -107.5 67.5 -140.5s108.5 -49.5 190.5 -49.5c117.333 0 212.666 22.667 285.999 68s110 104.666 110 177.999v30v17c0 26 -2.16699 54.667 -6.5 86s-15.5 96 -33.5 194l-86 475l-50 36c0 65.333 30.667 165.333 92 300l46 -22
c-2.66699 -9.33301 -4 -20 -4 -32c0 -26.667 13.667 -48.334 41 -65.001l115 -65c-7.33301 -57.333 -14.666 -98.333 -21.999 -123s-22.666 -61.667 -45.999 -111l-30 12c0 -10 9.5 -66.833 28.5 -170.5l48.5 -268.5c18.667 -108 28 -173.667 28 -197v-224z" />
    <glyph glyph-name="afii57445" unicode="&#x645;" horiz-adv-x="738" arabic-form="isolated" 
d="M738 293l-130.002 1.00098c-122 0 -230 -10.333 -324 -31s-141 -44.334 -141 -71.001c26 -80 49.167 -155 69.5 -225s30.5 -136.333 30.5 -199c0 -45.333 -4.5 -82 -13.5 -110s-25.833 -58.667 -50.5 -92c-7.33301 88 -23.666 180.333 -48.999 277
c-8.66699 34 -30.334 105.667 -65.001 215c-21.333 67.333 -32 112 -32 134c0 31.333 8.66699 70.333 26 117c14 38 30 71.667 48 101c21.333 33.333 58.5 59.666 111.5 78.999s133.833 35 242.5 47c-53.333 74.667 -100 112 -140 112
c-17.333 0 -33.666 -6.66699 -48.999 -20s-40.333 -42.666 -75 -87.999l-48 24c29.333 102 65.5 180.5 108.5 235.5s90.167 82.5 141.5 82.5c44.667 0 94.334 -25.667 149.001 -77s118 -131.333 190 -240v-272z" />
    <glyph glyph-name="afii57446" unicode="&#x646;" horiz-adv-x="1108" arabic-form="isolated" 
d="M1108 342c0 -92 -9.00195 -165.833 -27.002 -221.5s-47.5 -100.5 -88.5 -134.5s-101 -61.833 -180 -83.5s-160.5 -32.5 -244.5 -32.5c-162 0 -286.833 29.5 -374.5 88.5s-131.5 142.833 -131.5 251.5c0 92.667 14 177.334 42 254.001
c30.667 84.667 90.667 194.667 180 330l60 -42c-66 -112.667 -109.167 -194.334 -129.5 -245.001s-30.5 -103 -30.5 -157c0 -70 37.5 -127.167 112.5 -171.5s173.5 -66.5 295.5 -66.5c120 0 221 23 303 69s123 102.333 123 169c0 41.333 -7.16699 82.333 -21.5 123
s-45.166 105.667 -92.499 195l88 270c46.667 -84.667 75.334 -143 86.001 -175c20 -58 30 -131.667 30 -221v-200zM778.998 1129l-120 -224l-234 122l121 226z" />
    <glyph glyph-name="afii57470" unicode="&#x647;" horiz-adv-x="702" arabic-form="isolated" 
d="M622 668c0 -40 -3.16797 -80.502 -9.50098 -121.502s-14.5 -74.5 -24.5 -100.5c-18.667 -50.667 -64.667 -95.334 -138 -134.001c-68 -36 -132 -54 -192 -54c-52 0 -93.333 18 -124 54s-46 84 -46 144c0 54.667 7.83301 108.334 23.5 161.001s43.834 119 84.501 199
l-36 24c11.333 30.667 26.666 67.834 45.999 111.501s36.666 80.5 51.999 110.5l98 -58c42.667 -26 83.334 -54 122.001 -84c54.667 -41.333 92.334 -80.166 113.001 -116.499s31 -81.5 31 -135.5zM473.999 587.998c0 12.667 -23.167 38.999 -69.5 78.999
s-91.833 74.333 -136.5 103c-42.667 -67.333 -64 -123.333 -64 -168c0 -21.333 8.83301 -39.666 26.5 -54.999s38.834 -23 63.501 -23c33.333 0 71.666 7.83301 114.999 23.5s65 29.167 65 40.5z" />
    <glyph glyph-name="afii57448" unicode="&#x648;" horiz-adv-x="924" arabic-form="isolated" 
d="M924 362c0 -114.667 -48.666 -228 -145.999 -340s-193.333 -168 -288 -168c-55.333 0 -115.833 17.667 -181.5 53s-166.5 105 -302.5 209l42 58c72 -48 131 -80 177 -96c38 -13.333 81 -20 129 -20c64.667 0 128.667 18 192 54c74.667 42.667 152 111.334 232 206.001
c-28 -4 -51.333 -6 -70 -6c-66 0 -118.5 21.5 -157.5 64.5s-58.5 101.5 -58.5 175.5c0 100 23 196.333 69 289c50 100.667 107 151 171 151c53.333 0 98.666 -36.333 135.999 -109s56 -160.334 56 -263.001v-258zM804.001 565
c-18.667 107.333 -56.666 160.999 -113.999 160.999c-20.667 0 -37.167 -8.16699 -49.5 -24.5s-18.5 -34.166 -18.5 -53.499c0 -24 13.167 -43.833 39.5 -59.5s61.166 -23.5 104.499 -23.5h38z" />
    <glyph glyph-name="afii57449" unicode="&#x649;" horiz-adv-x="1320" arabic-form="isolated" 
d="M1177 780c0 -36.667 -3.67188 -67.001 -11.0049 -91.001s-23 -55.667 -47 -95c-18 47.333 -33.167 78.166 -45.5 92.499s-30.166 21.5 -53.499 21.5c-36 0 -85.5 -20.5 -148.5 -61.5s-94.5 -75.5 -94.5 -103.5c0 -14.667 12.667 -25 38 -31c18 -4 46 -6 84 -6h29.5
c9.66699 0 19.5 0.333008 29.5 1c72.667 0 121 -7.33301 145 -22c20.667 -12.667 31 -37.334 31 -74.001c0 -72 -13.333 -141 -40 -207c-33.333 -83.333 -81.666 -142.666 -144.999 -177.999c-79.333 -44.667 -161.833 -80.667 -247.5 -108s-165.5 -41 -239.5 -41
c-207.333 0 -311 93 -311 279c0 94 11.667 175 35 243c26 76 81 179 165 309l46 -30c-49.333 -83.333 -86.333 -157.5 -111 -222.5s-37 -121.833 -37 -170.5c0 -126 71 -189 213 -189c53.333 0 104 4.83301 152 14.5s96.667 23.167 146 40.5c32 11.333 68.667 26 110 44
c66 29.333 101 45 105 47c30 16 45 30.333 45 43c0 6.66699 -16.167 10.834 -48.5 12.501s-55.166 2.5 -68.499 2.5c-102.667 0 -171.334 14.667 -206.001 44c-28 24 -42 68.333 -42 133c0 30.667 9.83301 69.334 29.5 116.001s45.5 93 77.5 139
c48.667 70 97.334 123 146.001 159s96.334 54 143.001 54c38.667 0 69.334 -15 92.001 -45s34 -70 34 -120z" />
    <glyph glyph-name="afii57450" unicode="&#x64a;" horiz-adv-x="1320" arabic-form="isolated" 
d="M1177 780c0 -36.667 -3.67188 -67.001 -11.0049 -91.001s-23 -55.667 -47 -95c-18 47.333 -33.167 78.166 -45.5 92.499s-30.166 21.5 -53.499 21.5c-36 0 -85.5 -20.5 -148.5 -61.5s-94.5 -75.5 -94.5 -103.5c0 -14.667 12.667 -25 38 -31c18 -4 46 -6 84 -6h29.5
c9.66699 0 19.5 0.333008 29.5 1c72.667 0 121 -7.33301 145 -22c20.667 -12.667 31 -37.334 31 -74.001c0 -72 -13.333 -141 -40 -207c-33.333 -83.333 -81.666 -142.666 -144.999 -177.999c-79.333 -44.667 -161.833 -80.667 -247.5 -108s-165.5 -41 -239.5 -41
c-207.333 0 -311 93 -311 279c0 94 11.667 175 35 243c26 76 81 179 165 309l46 -30c-49.333 -83.333 -86.333 -157.5 -111 -222.5s-37 -121.833 -37 -170.5c0 -126 71 -189 213 -189c53.333 0 104 4.83301 152 14.5s96.667 23.167 146 40.5c32 11.333 68.667 26 110 44
c66 29.333 101 45 105 47c30 16 45 30.333 45 43c0 6.66699 -16.167 10.834 -48.5 12.501s-55.166 2.5 -68.499 2.5c-102.667 0 -171.334 14.667 -206.001 44c-28 24 -42 68.333 -42 133c0 30.667 9.83301 69.334 29.5 116.001s45.5 93 77.5 139
c48.667 70 97.334 123 146.001 159s96.334 54 143.001 54c38.667 0 69.334 -15 92.001 -45s34 -70 34 -120zM911.995 -208.001l-74 -136l-154 78l-74 -132l-154 82l76 138l150 -78l74 128z" />
    <glyph glyph-name="uni066F.init" unicode="&#x66f;" horiz-adv-x="624" 
d="M624 293l-694 0.000976562v272h600c0 58 -1.66699 99.333 -5 124c-5.33301 38 -16.333 71 -33 99c-21.333 -41.333 -50 -73 -86 -95s-74.333 -33 -115 -33c-53.333 0 -98.333 17.667 -135 53s-55 79.666 -55 132.999c0 78.667 24 172 72 280
c52.667 118.667 106 178 160 178c70 0 136 -61 198 -183s93 -251 93 -387v-441zM407 966.001c-18 31.333 -33.833 53.166 -47.5 65.499s-28.5 18.5 -44.5 18.5c-20 0 -38 -9 -54 -27s-24 -39 -24 -63c0 -15.333 6.16699 -28.166 18.5 -38.499s28.166 -15.5 47.499 -15.5
c15.333 0 30.833 4.5 46.5 13.5s34.834 24.5 57.501 46.5z" />
    <glyph glyph-name="uni066F.medi" unicode="&#x66f;" horiz-adv-x="664" 
d="M664 293l-733.999 0.000976562v272h180c30.667 0 59.667 -1.33301 87 -4l251 -27c-99.333 22 -168.833 51.167 -208.5 87.5s-59.5 89.166 -59.5 158.499c0 103.333 23.833 196.5 71.5 279.5s101.167 124.5 160.5 124.5c67.333 0 126.166 -58.167 176.499 -174.5
s75.5 -256.833 75.5 -421.5v-295zM528.001 708.001c-24 57.333 -50.668 102 -80.001 134s-58.666 48 -87.999 48c-13.333 0 -25 -4.33301 -35 -13s-15 -19 -15 -31c0 -28.667 21.5 -56.5 64.5 -83.5s94.167 -45.167 153.5 -54.5z" />
    <glyph glyph-name="uni066F.fina" unicode="&#x66f;" horiz-adv-x="1254" 
d="M1254 266c0 -132 -7.33008 -219.002 -21.9971 -261.002c-15.333 -42 -50.333 -85 -105 -129c-120.667 -94.667 -291.334 -142 -512.001 -142c-92.667 0 -174.834 7.66699 -246.501 23s-131.834 38 -180.501 68s-85.667 66.833 -111 110.5s-38 93.834 -38 150.501
c0 98.667 15.333 187.667 46 267c34 88 97.333 196.333 190 325l60 -42c-60.667 -87.333 -104 -161.666 -130 -222.999c-25.333 -62 -38 -121 -38 -177c0 -82 42 -145.333 126 -190c84.667 -45.333 202.667 -68 354 -68c137.333 0 258.666 26.667 363.999 80
s158 114 158 182c0 8.66699 -0.166992 16.5 -0.5 23.5s-2.16602 16.833 -5.49902 29.5l-156 -3c-74 -1.33301 -131.5 16.667 -172.5 54s-61.5 89.333 -61.5 156c0 98 24.667 195.667 74 293c52.667 104.667 112 157 178 157c72 0 129 -51.667 171 -155
c38.667 -94 58 -211.667 58 -353v-176zM1073 565.998c-18 42 -36.332 71.5 -54.999 88.5s-41 25.5 -67 25.5c-16.667 0 -29.834 -5.16699 -39.501 -15.5s-14.5 -23.833 -14.5 -40.5c0 -44 28 -66 84 -66h26c7.33301 0 13.333 0.333008 18 1z" />
    <glyph glyph-name="uni0671" unicode="&#x671;" horiz-adv-x="444" arabic-form="isolated" 
d="M370 584c0 -59.333 -7 -113.501 -21 -162.501s-41 -114.833 -81 -197.5l-60 24c16 85.333 24 154.666 24 207.999c0 40.667 -3.33301 100.334 -10 179.001s-15 156.5 -25 233.5s-26.333 168.833 -49 275.5c-8 37.333 -12 63 -12 77c0 20.667 10.333 55.834 31 105.501
s49.667 109.834 87 180.501l60 -354c22 -134.667 37.333 -251.334 46 -350.001c6.66699 -76 10 -149 10 -219zM431 1724c0 -35.333 -16 -67.668 -48 -97.001c-34.667 -32 -76 -48 -124 -48h-167c-20.667 0 -31 -15 -31 -45c0 -3.33301 0.666992 -9.33301 2 -18
c0.666992 -8 0.666992 -14 0 -18c-32 32.667 -48 66.334 -48 101.001c0 44 25.333 66 76 66h24c78.667 106 156.667 159 234 159c54.667 0 82 -33.333 82 -100zM341 1725c0 25.333 -10.666 38 -31.999 38c-36.667 0 -83.334 -32.667 -140.001 -98h82c60 0 90 20 90 60z" />
    <glyph glyph-name="uni0672.fina" unicode="&#x672;" horiz-adv-x="480" 
d="M480 293h-140c-78 0 -134.333 32 -169 96c-38.667 70.667 -58 189.667 -58 357v285c0 64.667 -9 115 -27 151c-8.66699 17.333 -28.667 42.333 -60 75l108 250c38.667 -53.333 65.667 -106 81 -158c18 -60.667 27 -138 27 -232v-197c0 -139.333 9.33301 -236 28 -290
c14.667 -43.333 38 -65 70 -65h140v-272zM326 1658c0 -26.667 -31.334 -51 -94.001 -73l-129 -43c-4.66699 -1.33301 -10 -2 -16 -2c-10.667 0 -25.5 3.83301 -44.5 11.5s-32.167 11.5 -39.5 11.5c-11.333 0 -25.666 -11.667 -42.999 -35l-11 13c26.667 46.667 50 70 70 70
c13.333 0 28 -3.66699 44 -11s30.333 -11 43 -11c14.667 0 28 4.33301 40 13c-45.333 23.333 -68 47 -68 71c0 20.667 17.667 49.667 53 87c39.333 41.333 74 62 104 62c32.667 0 49 -16.333 49 -49c0 -15.333 -7.66699 -35.666 -23 -60.999c-20.667 18.667 -43 28 -67 28
c-43.333 0 -65 -10 -65 -30c0 -12.667 17.667 -27.334 53 -44.001c32.667 -15.333 57 -23 73 -23c22 0 45.667 5 71 15z" />
    <glyph glyph-name="uni0673.fina" unicode="&#x673;" horiz-adv-x="480" 
d="M480 293h-140c-78 0 -134.333 32 -169 96c-38.667 70.667 -58 189.667 -58 357v285c0 64.667 -9 115 -27 151c-8.66699 17.333 -28.667 42.333 -60 75l108 250c38.667 -53.333 65.667 -106 81 -158c18 -60.667 27 -138 27 -232v-197c0 -139.333 9.33301 -236 28 -290
c14.667 -43.333 38 -65 70 -65h140v-272zM386 -42c0 -26.667 -31.334 -51 -94.001 -73l-129 -43c-4.66699 -1.33301 -10 -2 -16 -2c-10.667 0 -25.5 3.83301 -44.5 11.5s-32.167 11.5 -39.5 11.5c-11.333 0 -25.666 -11.667 -42.999 -35l-11 13c26.667 46.667 50 70 70 70
c13.333 0 28 -3.66699 44 -11s30.333 -11 43 -11c14.667 0 28 4.33301 40 13c-45.333 23.333 -68 47 -68 71c0 20.667 17.667 49.667 53 87c39.333 41.333 74 62 104 62c32.667 0 49 -16.333 49 -49c0 -15.333 -7.66699 -35.666 -23 -60.999c-20.667 18.667 -43 28 -67 28
c-43.333 0 -65 -10 -65 -30c0 -12.667 17.667 -27.334 53 -44.001c32.667 -15.333 57 -23 73 -23c22 0 45.667 5 71 15z" />
    <glyph glyph-name="uni0675.fina" unicode="&#x675;" horiz-adv-x="480" 
d="M480 293h-140c-78 0 -134.333 32 -169 96c-38.667 70.667 -58 189.667 -58 357v285c0 64.667 -9 115 -27 151c-8.66699 17.333 -28.667 42.333 -60 75l108 250c38.667 -53.333 65.667 -106 81 -158c18 -60.667 27 -138 27 -232v-197c0 -139.333 9.33301 -236 28 -290
c14.667 -43.333 38 -65 70 -65h140v-272zM550 1363c-7.33301 -19.333 -16.002 -34 -26.002 -44c-7.33301 -7.33301 -18.666 -13.333 -33.999 -18l-216 -66c13.333 24 25 40.5 35 49.5s28 17.167 54 24.5c-18.667 12 -32.167 23.167 -40.5 33.5s-12.5 20.5 -12.5 30.5
c0 8.66699 2.66699 18.5 8 29.5s12.333 21.833 21 32.5c43.333 58 86.333 87 129 87c12.667 0 22.834 -4.16699 30.501 -12.5s11.5 -19.166 11.5 -32.499c0 -10.667 -1.5 -19.834 -4.5 -27.501s-9.16699 -19.167 -18.5 -34.5c-33.333 16.667 -56 25 -68 25s-24 -3 -36 -9
c-8 -4 -15.333 -9.33301 -22 -16c0 -8.66699 16 -22 48 -40s55 -27 69 -27c8.66699 0 32.667 5 72 15z" />
    <glyph glyph-name="uni0677" unicode="&#x677;" horiz-adv-x="924" arabic-form="isolated" 
d="M924 362c0 -114.667 -48.666 -228 -145.999 -340s-193.333 -168 -288 -168c-55.333 0 -115.833 17.667 -181.5 53s-166.5 105 -302.5 209l42 58c72 -48 131 -80 177 -96c38 -13.333 81 -20 129 -20c64.667 0 128.667 18 192 54c74.667 42.667 152 111.334 232 206.001
c-28 -4 -51.333 -6 -70 -6c-66 0 -118.5 21.5 -157.5 64.5s-58.5 101.5 -58.5 175.5c0 100 23 196.333 69 289c50 100.667 107 151 171 151c53.333 0 98.666 -36.333 135.999 -109s56 -160.334 56 -263.001v-258zM804.001 565
c-18.667 107.333 -56.666 160.999 -113.999 160.999c-20.667 0 -37.167 -8.16699 -49.5 -24.5s-18.5 -34.166 -18.5 -53.499c0 -24 13.167 -43.833 39.5 -59.5s61.166 -23.5 104.499 -23.5h38zM1020 1263c-7.33301 -19.333 -16.002 -34 -26.002 -44
c-7.33301 -7.33301 -18.666 -13.333 -33.999 -18l-216 -66c13.333 24 25 40.5 35 49.5s28 17.167 54 24.5c-18.667 12 -32.167 23.167 -40.5 33.5s-12.5 20.5 -12.5 30.5c0 8.66699 2.66699 18.5 8 29.5s12.333 21.833 21 32.5c43.333 58 86.333 87 129 87
c12.667 0 22.834 -4.16699 30.501 -12.5s11.5 -19.166 11.5 -32.499c0 -10.667 -1.5 -19.834 -4.5 -27.501s-9.16699 -19.167 -18.5 -34.5c-33.333 16.667 -56 25 -68 25s-24 -3 -36 -9c-8 -4 -15.333 -9.33301 -22 -16c0 -8.66699 16 -22 48 -40s55 -27 69 -27
c8.66699 0 32.667 5 72 15zM679 1224c0 -11.333 -0.999023 -22.998 -2.99902 -34.998l-6 -36l-83 50c-33.333 -36.667 -56 -61 -68 -73c-49.333 -48 -90.666 -72 -123.999 -72h-73c35.333 16.667 76.666 43.667 123.999 81c42.667 34 75 64 97 90
c-20.667 12.667 -36.334 26 -47.001 40c-13.333 17.333 -20 36.333 -20 57c0 44 12.833 82.833 38.5 116.5s53.5 50.5 83.5 50.5c17.333 0 33 -9.33301 47 -28s21 -41.334 21 -68.001c0 -12.667 -1.83301 -25.834 -5.5 -39.501s-12.167 -38.834 -25.5 -75.501
c10.667 -9.33301 21.667 -18.333 33 -27c7.33301 -7.33301 11 -17.666 11 -30.999zM604.001 1337c0 18 -6.33203 34.6689 -18.999 50.002s-25 23 -37 23c-6.66699 0 -11.834 -2.33301 -15.501 -7s-5.5 -9.33398 -5.5 -14.001c0 -14.667 8.33301 -30 25 -46l44 -34
c5.33301 13.333 8 22.666 8 27.999z" />
    <glyph glyph-name="uni0678.fina" unicode="&#x678;" horiz-adv-x="1135" 
d="M1135 293l-84.999 0.00292969c-24.667 0 -44.5 -2 -59.5 -6s-22.5 -9.66699 -22.5 -17c0 -4 16.333 -12.333 49 -25s49 -32.334 49 -59.001c0 -36.667 -5.5 -80.834 -16.5 -132.501s-26.167 -98.167 -45.5 -139.5c-14.667 -32 -55.667 -68.667 -123 -110
c-72 -44 -153.667 -80.667 -245 -110c-104.667 -33.333 -204 -50 -298 -50c-108 0 -189.667 25 -245 75s-83 123 -83 219c0 105.333 12.667 196.666 38 273.999c30.667 93.333 93.334 215.333 188.001 366l56 -42c-62.667 -106.667 -105.667 -191.667 -129 -255
s-35 -125.666 -35 -186.999s19.667 -109.666 59 -144.999s93.666 -53 162.999 -53c84.667 0 175.667 13 273 39c88 23.333 163.5 51.5 226.5 84.5s94.5 60.167 94.5 81.5c0 6.66699 -18.667 10.667 -56 12s-70.666 2 -99.999 2c-70.667 0 -116.334 2.66699 -137.001 8
s-31 17.666 -31 36.999c0 36 6.5 74 19.5 114s28.5 70.667 46.5 92c44 53.333 96 98.666 156 135.999c67.333 42 127.666 63 180.999 63h112v-272zM1130 863.003c-7.33301 -19.333 -16.002 -34 -26.002 -44c-7.33301 -7.33301 -18.666 -13.333 -33.999 -18l-216 -66
c13.333 24 25 40.5 35 49.5s28 17.167 54 24.5c-18.667 12 -32.167 23.167 -40.5 33.5s-12.5 20.5 -12.5 30.5c0 8.66699 2.66699 18.5 8 29.5s12.333 21.833 21 32.5c43.333 58 86.333 87 129 87c12.667 0 22.834 -4.16699 30.501 -12.5s11.5 -19.166 11.5 -32.499
c0 -10.667 -1.5 -19.834 -4.5 -27.501s-9.16699 -19.167 -18.5 -34.5c-33.333 16.667 -56 25 -68 25s-24 -3 -36 -9c-8 -4 -15.333 -9.33301 -22 -16c0 -8.66699 16 -22 48 -40s55 -27 69 -27c8.66699 0 32.667 5 72 15z" />
    <glyph glyph-name="afii57511" unicode="&#x679;" horiz-adv-x="1330" arabic-form="isolated" 
d="M1330 293l-838.996 -0.000976562c-40.667 0 -74.334 0.333008 -101.001 1s-46.667 1.66699 -60 3c-25.333 2.66699 -53.666 9.66699 -84.999 21c-55.333 18.667 -100.333 56.667 -135 114c-35.333 57.333 -53 121.333 -53 192c0 28 1.83301 56.667 5.5 86
s11.167 60.666 22.5 93.999c13.333 40 29.166 75.833 47.499 107.5s37.166 61.834 56.499 90.501l56 -36c-14.667 -26.667 -26.834 -51 -36.501 -73s-17.167 -40.667 -22.5 -56c-10 -31.333 -15 -61.666 -15 -90.999c0 -38 12 -72.333 36 -103
c25.333 -30.667 57.333 -50.334 96 -59.001c23.333 -6 53.666 -10.667 90.999 -14s77 -5 119 -5h723c-19.333 52.667 -34.666 88.667 -45.999 108c-14.667 26 -37.334 58.333 -68.001 97l90 232c50 -71.333 82.667 -136.666 98 -195.999c13.333 -53.333 20 -130 20 -230
v-283zM965.004 1062l-544.001 -0.00292969v130h64c8 0 29.333 13 64 39c14.667 10.667 31.667 24 51 40c0 67.333 -6 128.333 -18 183l-26 104l-28 17c10 46.667 25.333 93.334 46 140.001l22 -9c-1.33301 -4 -2 -8 -2 -12c0 -11.333 15.667 -24.666 47 -39.999
c7.33301 -3.33301 23 -9.66602 47 -18.999c-3.33301 -26 -8.33301 -49.333 -15 -70c-3.33301 -9.33301 -9.66602 -26 -18.999 -50l-17 6c16.667 -76.667 25 -129 25 -157v-6c0 -14 -1.66699 -29.333 -5 -46c26 19.333 65.667 46 119 80c26.667 14.667 47 22 61 22
c85.333 0 128 -41.333 128 -124v-228zM899.003 1240c0 18.667 -12 31.667 -36 39c-14 4.66699 -34.333 7 -61 7c-40 0 -101.667 -31.333 -185 -94h125c104.667 0 157 16 157 48z" />
    <glyph glyph-name="uni067A" unicode="&#x67a;" horiz-adv-x="1330" arabic-form="isolated" 
d="M1330 293l-838.996 -0.000976562c-40.667 0 -74.334 0.333008 -101.001 1s-46.667 1.66699 -60 3c-25.333 2.66699 -53.666 9.66699 -84.999 21c-55.333 18.667 -100.333 56.667 -135 114c-35.333 57.333 -53 121.333 -53 192c0 28 1.83301 56.667 5.5 86
s11.167 60.666 22.5 93.999c13.333 40 29.166 75.833 47.499 107.5s37.166 61.834 56.499 90.501l56 -36c-14.667 -26.667 -26.834 -51 -36.501 -73s-17.167 -40.667 -22.5 -56c-10 -31.333 -15 -61.666 -15 -90.999c0 -38 12 -72.333 36 -103
c25.333 -30.667 57.333 -50.334 96 -59.001c23.333 -6 53.666 -10.667 90.999 -14s77 -5 119 -5h723c-19.333 52.667 -34.666 88.667 -45.999 108c-14.667 26 -37.334 58.333 -68.001 97l90 232c50 -71.333 82.667 -136.666 98 -195.999c13.333 -53.333 20 -130 20 -230
v-283zM755.004 1473l-100 -208l-188 100l102 204zM702.004 1304l186 -96l-100 -208l-188 100z" />
    <glyph glyph-name="uni067B" unicode="&#x67b;" horiz-adv-x="1330" arabic-form="isolated" 
d="M1330 293l-838.996 -0.000976562c-40.667 0 -74.334 0.333008 -101.001 1s-46.667 1.66699 -60 3c-25.333 2.66699 -53.666 9.66699 -84.999 21c-55.333 18.667 -100.333 56.667 -135 114c-35.333 57.333 -53 121.333 -53 192c0 28 1.83301 56.667 5.5 86
s11.167 60.666 22.5 93.999c13.333 40 29.166 75.833 47.499 107.5s37.166 61.834 56.499 90.501l56 -36c-14.667 -26.667 -26.834 -51 -36.501 -73s-17.167 -40.667 -22.5 -56c-10 -31.333 -15 -61.666 -15 -90.999c0 -38 12 -72.333 36 -103
c25.333 -30.667 57.333 -50.334 96 -59.001c23.333 -6 53.666 -10.667 90.999 -14s77 -5 119 -5h723c-19.333 52.667 -34.666 88.667 -45.999 108c-14.667 26 -37.334 58.333 -68.001 97l90 232c50 -71.333 82.667 -136.666 98 -195.999c13.333 -53.333 20 -130 20 -230
v-283zM855.004 122.999l-100 -208l-188 100l102 204zM802.004 -46.001l186 -96l-100 -208l-188 100z" />
    <glyph glyph-name="uni067C.medi" unicode="&#x67c;" horiz-adv-x="556" 
d="M556 293l-626.001 0.000976562v272h526c-7.33301 45.333 -20.666 83.666 -39.999 114.999c-10 17.333 -33.333 47.333 -70 90l80 238c50 -56.667 84.167 -116 102.5 -178s27.5 -154 27.5 -276v-261zM376.999 225.001c0 -41.333 -15.332 -78.333 -45.999 -111
s-68.334 -49 -113.001 -49c-36 0 -63 10 -81 30s-27 48 -27 84c0 51.333 13.333 96.833 40 136.5s59.667 59.5 99 59.5c36 0 66.333 -15 91 -45s37 -65 37 -105zM317 198.001c0 18.667 -13 39.3311 -39 61.998s-48 34 -66 34c-17.333 0 -32 -7.5 -44 -22.5
s-18 -30.5 -18 -46.5c0 -23.333 11 -39.666 33 -48.999c17.333 -7.33301 42.333 -11 75 -11c16.667 0 30.667 2.33301 42 7s17 13.334 17 26.001zM540 1362l-104 -194l-148 74l-84 -162l-182 102l110 204l142 -80l80 158z" />
    <glyph glyph-name="uni067D.medi" unicode="&#x67d;" horiz-adv-x="556" 
d="M556 293l-626.001 0.000976562v272h526c-7.33301 45.333 -20.666 83.666 -39.999 114.999c-10 17.333 -33.333 47.333 -70 90l80 238c50 -56.667 84.167 -116 102.5 -178s27.5 -154 27.5 -276v-261zM517.999 1593l-104 -194l-148 74l-84 -162l-182 102l110 204l142 -80
l80 158zM481.999 1284l-102 -204l-186 96l100 208z" />
    <glyph glyph-name="afii57506" unicode="&#x67e;" horiz-adv-x="1330" arabic-form="isolated" 
d="M1330 293l-838.996 -0.000976562c-40.667 0 -74.334 0.333008 -101.001 1s-46.667 1.66699 -60 3c-25.333 2.66699 -53.666 9.66699 -84.999 21c-55.333 18.667 -100.333 56.667 -135 114c-35.333 57.333 -53 121.333 -53 192c0 28 1.83301 56.667 5.5 86
s11.167 60.666 22.5 93.999c13.333 40 29.166 75.833 47.499 107.5s37.166 61.834 56.499 90.501l56 -36c-14.667 -26.667 -26.834 -51 -36.501 -73s-17.167 -40.667 -22.5 -56c-10 -31.333 -15 -61.666 -15 -90.999c0 -38 12 -72.333 36 -103
c25.333 -30.667 57.333 -50.334 96 -59.001c23.333 -6 53.666 -10.667 90.999 -14s77 -5 119 -5h723c-19.333 52.667 -34.666 88.667 -45.999 108c-14.667 26 -37.334 58.333 -68.001 97l90 232c50 -71.333 82.667 -136.666 98 -195.999c13.333 -53.333 20 -130 20 -230
v-283zM984.004 116.999l-104 -194l-148 74l-84 -162l-182 102l110 204l142 -80l80 158zM948.004 -192.001l-102 -204l-186 96l100 208z" />
    <glyph glyph-name="uni067F" unicode="&#x67f;" horiz-adv-x="1330" arabic-form="isolated" 
d="M1330 293l-838.996 -0.000976562c-40.667 0 -74.334 0.333008 -101.001 1s-46.667 1.66699 -60 3c-25.333 2.66699 -53.666 9.66699 -84.999 21c-55.333 18.667 -100.333 56.667 -135 114c-35.333 57.333 -53 121.333 -53 192c0 28 1.83301 56.667 5.5 86
s11.167 60.666 22.5 93.999c13.333 40 29.166 75.833 47.499 107.5s37.166 61.834 56.499 90.501l56 -36c-14.667 -26.667 -26.834 -51 -36.501 -73s-17.167 -40.667 -22.5 -56c-10 -31.333 -15 -61.666 -15 -90.999c0 -38 12 -72.333 36 -103
c25.333 -30.667 57.333 -50.334 96 -59.001c23.333 -6 53.666 -10.667 90.999 -14s77 -5 119 -5h723c-19.333 52.667 -34.666 88.667 -45.999 108c-14.667 26 -37.334 58.333 -68.001 97l90 232c50 -71.333 82.667 -136.666 98 -195.999c13.333 -53.333 20 -130 20 -230
v-283zM872.004 1501l-104 -194l-148 74l-84 -162l-182 102l110 204l142 -80l80 158zM597.004 1260l142 -80l80 158l186 -102l-104 -194l-148 74l-84 -162l-182 102z" />
    <glyph glyph-name="uni0680" unicode="&#x680;" horiz-adv-x="1330" arabic-form="isolated" 
d="M1330 293l-838.996 -0.000976562c-40.667 0 -74.334 0.333008 -101.001 1s-46.667 1.66699 -60 3c-25.333 2.66699 -53.666 9.66699 -84.999 21c-55.333 18.667 -100.333 56.667 -135 114c-35.333 57.333 -53 121.333 -53 192c0 28 1.83301 56.667 5.5 86
s11.167 60.666 22.5 93.999c13.333 40 29.166 75.833 47.499 107.5s37.166 61.834 56.499 90.501l56 -36c-14.667 -26.667 -26.834 -51 -36.501 -73s-17.167 -40.667 -22.5 -56c-10 -31.333 -15 -61.666 -15 -90.999c0 -38 12 -72.333 36 -103
c25.333 -30.667 57.333 -50.334 96 -59.001c23.333 -6 53.666 -10.667 90.999 -14s77 -5 119 -5h723c-19.333 52.667 -34.666 88.667 -45.999 108c-14.667 26 -37.334 58.333 -68.001 97l90 232c50 -71.333 82.667 -136.666 98 -195.999c13.333 -53.333 20 -130 20 -230
v-283zM932.004 116.999l-104 -194l-148 74l-84 -162l-182 102l110 204l142 -80l80 158zM657.004 -124.001l142 -80l80 158l186 -102l-104 -194l-148 74l-84 -162l-182 102z" />
    <glyph glyph-name="uni0681.medi" unicode="&#x681;" horiz-adv-x="1072" 
d="M1072 293l-1142 -0.00195312v272h711c-80.667 83.333 -155.334 143.333 -224.001 180c-60.667 32.667 -120 49 -178 49c-17.333 0 -33.166 -0.833008 -47.499 -2.5s-35.166 -5.5 -62.499 -11.5c36.667 84 77.5 146 122.5 186s96.167 60 153.5 60
c44 0 86.333 -10.667 127 -32s86.334 -55.666 137.001 -102.999c40 -37.333 96.667 -95.666 170 -174.999c50 -56 88.167 -92.333 114.5 -109s65.833 -30.667 118.5 -42v-272zM629.998 1283c-7.33301 -19.333 -16.002 -34 -26.002 -44
c-7.33301 -7.33301 -18.666 -13.333 -33.999 -18l-216 -66c13.333 24 25 40.5 35 49.5s28 17.167 54 24.5c-18.667 12 -32.167 23.167 -40.5 33.5s-12.5 20.5 -12.5 30.5c0 8.66699 2.66699 18.5 8 29.5s12.333 21.833 21 32.5c43.333 58 86.333 87 129 87
c12.667 0 22.834 -4.16699 30.501 -12.5s11.5 -19.166 11.5 -32.499c0 -10.667 -1.5 -19.834 -4.5 -27.501s-9.16699 -19.167 -18.5 -34.5c-33.333 16.667 -56 25 -68 25s-24 -3 -36 -9c-8 -4 -15.333 -9.33301 -22 -16c0 -8.66699 16 -22 48 -40s55 -27 69 -27
c8.66699 0 32.667 5 72 15z" />
    <glyph glyph-name="uni0681.fina" unicode="&#x681;" horiz-adv-x="1144" 
d="M1144 293h-155.999c-117.333 0 -197.333 17 -240 51s-64 98 -64 192c0 42 2.66699 82.333 8 121c2 13.333 7.33301 45 16 95c-152 -35.333 -274.667 -96.333 -368 -183c-96 -89.333 -144 -191 -144 -305c0 -133.333 57.167 -236 171.5 -308s279.166 -108 494.499 -108
c63.333 0 154 6 272 18l18 -32l-380 -244l-96 -2c-195.333 0 -345.833 49.5 -451.5 148.5s-158.5 240.167 -158.5 423.5c0 139.333 31.833 268.5 95.5 387.5s145.167 205.167 244.5 258.5h-22c-62 0 -113.167 -5.83301 -153.5 -17.5s-101.166 -38.5 -182.499 -80.5
c30 248 151.333 372 364 372c24.667 0 71.667 -3.83301 141 -11.5s131 -13.5 185 -17.5c101.333 -7.33301 200.666 -11 297.999 -11l-60 -242c-39.333 0 -73 -2.33301 -101 -7l-101 -21c-2 -12.667 -3.83301 -27 -5.5 -43s-2.5 -28.333 -2.5 -37
c0 -47.333 15.667 -80 47 -98s89.333 -27 174 -27h157v-272zM770.001 1343c-7.33301 -19.333 -16.002 -34 -26.002 -44c-7.33301 -7.33301 -18.666 -13.333 -33.999 -18l-216 -66c13.333 24 25 40.5 35 49.5s28 17.167 54 24.5c-18.667 12 -32.167 23.167 -40.5 33.5
s-12.5 20.5 -12.5 30.5c0 8.66699 2.66699 18.5 8 29.5s12.333 21.833 21 32.5c43.333 58 86.333 87 129 87c12.667 0 22.834 -4.16699 30.501 -12.5s11.5 -19.166 11.5 -32.499c0 -10.667 -1.5 -19.834 -4.5 -27.501s-9.16699 -19.167 -18.5 -34.5
c-33.333 16.667 -56 25 -68 25s-24 -3 -36 -9c-8 -4 -15.333 -9.33301 -22 -16c0 -8.66699 16 -22 48 -40s55 -27 69 -27c8.66699 0 32.667 5 72 15z" />
    <glyph glyph-name="uni0682.medi" unicode="&#x682;" horiz-adv-x="1072" 
d="M1072 293l-1142 -0.00195312v272h711c-80.667 83.333 -155.334 143.333 -224.001 180c-60.667 32.667 -120 49 -178 49c-17.333 0 -33.166 -0.833008 -47.499 -2.5s-35.166 -5.5 -62.499 -11.5c36.667 84 77.5 146 122.5 186s96.167 60 153.5 60
c44 0 86.333 -10.667 127 -32s86.334 -55.666 137.001 -102.999c40 -37.333 96.667 -95.666 170 -174.999c50 -56 88.167 -92.333 114.5 -109s65.833 -30.667 118.5 -42v-272zM564.998 1607l-100 -208l-188 100l102 204zM511.998 1438l186 -96l-100 -208l-188 100z" />
    <glyph glyph-name="uni0682.fina" unicode="&#x682;" horiz-adv-x="1144" 
d="M1144 293h-155.999c-117.333 0 -197.333 17 -240 51s-64 98 -64 192c0 42 2.66699 82.333 8 121c2 13.333 7.33301 45 16 95c-152 -35.333 -274.667 -96.333 -368 -183c-96 -89.333 -144 -191 -144 -305c0 -133.333 57.167 -236 171.5 -308s279.166 -108 494.499 -108
c63.333 0 154 6 272 18l18 -32l-380 -244l-96 -2c-195.333 0 -345.833 49.5 -451.5 148.5s-158.5 240.167 -158.5 423.5c0 139.333 31.833 268.5 95.5 387.5s145.167 205.167 244.5 258.5h-22c-62 0 -113.167 -5.83301 -153.5 -17.5s-101.166 -38.5 -182.499 -80.5
c30 248 151.333 372 364 372c24.667 0 71.667 -3.83301 141 -11.5s131 -13.5 185 -17.5c101.333 -7.33301 200.666 -11 297.999 -11l-60 -242c-39.333 0 -73 -2.33301 -101 -7l-101 -21c-2 -12.667 -3.83301 -27 -5.5 -43s-2.5 -28.333 -2.5 -37
c0 -47.333 15.667 -80 47 -98s89.333 -27 174 -27h157v-272zM615.001 1652l-100 -208l-188 100l102 204zM562.001 1483l186 -96l-100 -208l-188 100z" />
    <glyph glyph-name="uni0683" unicode="&#x683;" horiz-adv-x="1182" arabic-form="isolated" 
d="M1152 -178l-386.001 -238c-237.333 0 -412 45.333 -524 136c-114.667 93.333 -172 240 -172 440c0 138 27.333 259.833 82 365.5s141.334 200.5 260.001 284.5c-79.333 0 -149.333 -11.667 -210 -35c-22 -8.66699 -72 -31 -150 -67c32 248 150 372 354 372
c30.667 0 81 -3.5 151 -10.5s131.667 -12.167 185 -15.5c101.333 -6.66699 201.333 -10 300 -10l-60 -246c-255.333 -32 -450.166 -93.5 -584.499 -184.5s-201.5 -207.5 -201.5 -349.5c0 -133.333 55.167 -235.333 165.5 -306s269.166 -106 476.499 -106
c5.33301 0 55.666 3 150.999 9c52.667 3.33301 100.334 5 143.001 5zM919.999 417l-104 -194l-148 74l-84 -162l-182 102l110 204l142 -80l80 158z" />
    <glyph glyph-name="uni0684" unicode="&#x684;" horiz-adv-x="1182" arabic-form="isolated" 
d="M1152 -178l-386.001 -238c-237.333 0 -412 45.333 -524 136c-114.667 93.333 -172 240 -172 440c0 138 27.333 259.833 82 365.5s141.334 200.5 260.001 284.5c-79.333 0 -149.333 -11.667 -210 -35c-22 -8.66699 -72 -31 -150 -67c32 248 150 372 354 372
c30.667 0 81 -3.5 151 -10.5s131.667 -12.167 185 -15.5c101.333 -6.66699 201.333 -10 300 -10l-60 -246c-255.333 -32 -450.166 -93.5 -584.499 -184.5s-201.5 -207.5 -201.5 -349.5c0 -133.333 55.167 -235.333 165.5 -306s269.166 -106 476.499 -106
c5.33301 0 55.666 3 150.999 9c52.667 3.33301 100.334 5 143.001 5zM734.999 453l-100 -208l-188 100l102 204zM681.999 284l186 -96l-100 -208l-188 100z" />
    <glyph glyph-name="uni0685.medi" unicode="&#x685;" horiz-adv-x="1072" 
d="M1072 293l-1142 -0.00195312v272h711c-80.667 83.333 -155.334 143.333 -224.001 180c-60.667 32.667 -120 49 -178 49c-17.333 0 -33.166 -0.833008 -47.499 -2.5s-35.166 -5.5 -62.499 -11.5c36.667 84 77.5 146 122.5 186s96.167 60 153.5 60
c44 0 86.333 -10.667 127 -32s86.334 -55.666 137.001 -102.999c40 -37.333 96.667 -95.666 170 -174.999c50 -56 88.167 -92.333 114.5 -109s65.833 -30.667 118.5 -42v-272zM565.998 1653l-100 -208l-188 100l102 204zM759.998 1416l-110 -204l-142 80l-80 -158l-186 102
l104 194l148 -74l84 162z" />
    <glyph glyph-name="uni0685.fina" unicode="&#x685;" horiz-adv-x="1144" 
d="M1144 293h-155.999c-117.333 0 -197.333 17 -240 51s-64 98 -64 192c0 42 2.66699 82.333 8 121c2 13.333 7.33301 45 16 95c-152 -35.333 -274.667 -96.333 -368 -183c-96 -89.333 -144 -191 -144 -305c0 -133.333 57.167 -236 171.5 -308s279.166 -108 494.499 -108
c63.333 0 154 6 272 18l18 -32l-380 -244l-96 -2c-195.333 0 -345.833 49.5 -451.5 148.5s-158.5 240.167 -158.5 423.5c0 139.333 31.833 268.5 95.5 387.5s145.167 205.167 244.5 258.5h-22c-62 0 -113.167 -5.83301 -153.5 -17.5s-101.166 -38.5 -182.499 -80.5
c30 248 151.333 372 364 372c24.667 0 71.667 -3.83301 141 -11.5s131 -13.5 185 -17.5c101.333 -7.33301 200.666 -11 297.999 -11l-60 -242c-39.333 0 -73 -2.33301 -101 -7l-101 -21c-2 -12.667 -3.83301 -27 -5.5 -43s-2.5 -28.333 -2.5 -37
c0 -47.333 15.667 -80 47 -98s89.333 -27 174 -27h157v-272zM686.001 1698l-100 -208l-188 100l102 204zM880.001 1461l-110 -204l-142 80l-80 -158l-186 102l104 194l148 -74l84 162z" />
    <glyph glyph-name="afii57507" unicode="&#x686;" horiz-adv-x="1182" arabic-form="isolated" 
d="M1152 -178l-386.001 -238c-237.333 0 -412 45.333 -524 136c-114.667 93.333 -172 240 -172 440c0 138 27.333 259.833 82 365.5s141.334 200.5 260.001 284.5c-79.333 0 -149.333 -11.667 -210 -35c-22 -8.66699 -72 -31 -150 -67c32 248 150 372 354 372
c30.667 0 81 -3.5 151 -10.5s131.667 -12.167 185 -15.5c101.333 -6.66699 201.333 -10 300 -10l-60 -246c-255.333 -32 -450.166 -93.5 -584.499 -184.5s-201.5 -207.5 -201.5 -349.5c0 -133.333 55.167 -235.333 165.5 -306s269.166 -106 476.499 -106
c5.33301 0 55.666 3 150.999 9c52.667 3.33301 100.334 5 143.001 5zM884.999 487l-104 -194l-148 74l-84 -162l-182 102l110 204l142 -80l80 158zM848.999 178l-102 -204l-186 96l100 208z" />
    <glyph glyph-name="uni0687" unicode="&#x687;" horiz-adv-x="1182" arabic-form="isolated" 
d="M1152 -178l-386.001 -238c-237.333 0 -412 45.333 -524 136c-114.667 93.333 -172 240 -172 440c0 138 27.333 259.833 82 365.5s141.334 200.5 260.001 284.5c-79.333 0 -149.333 -11.667 -210 -35c-22 -8.66699 -72 -31 -150 -67c32 248 150 372 354 372
c30.667 0 81 -3.5 151 -10.5s131.667 -12.167 185 -15.5c101.333 -6.66699 201.333 -10 300 -10l-60 -246c-255.333 -32 -450.166 -93.5 -584.499 -184.5s-201.5 -207.5 -201.5 -349.5c0 -133.333 55.167 -235.333 165.5 -306s269.166 -106 476.499 -106
c5.33301 0 55.666 3 150.999 9c52.667 3.33301 100.334 5 143.001 5zM891.999 517l-104 -194l-148 74l-84 -162l-182 102l110 204l142 -80l80 158zM616.999 276l142 -80l80 158l186 -102l-104 -194l-148 74l-84 -162l-182 102z" />
    <glyph glyph-name="afii57512" unicode="&#x688;" horiz-adv-x="702" arabic-form="isolated" 
d="M702 293l-452.999 -0.000976562c-44 0 -77.667 9.33301 -101 28c-28.667 22.667 -43 59.667 -43 111c0 29.333 1.5 61 4.5 95s7.5 68.333 13.5 103l38 2c5.33301 -23.333 17.166 -40.333 35.499 -51s40.5 -16 66.5 -16h344c-15.333 64.667 -42 119.667 -80 165
c-31.333 42 -75 74 -131 96l72 312c86.667 -51.333 148 -124.666 184 -219.999c33.333 -80.667 50 -182 50 -304v-321zM623.001 1172l-544.001 -0.00292969v130h64c8 0 29.333 13 64 39c14.667 10.667 31.667 24 51 40c0 67.333 -6 128.333 -18 183l-26 104l-28 17
c10 46.667 25.333 93.334 46 140.001l22 -9c-1.33301 -4 -2 -8 -2 -12c0 -11.333 15.667 -24.666 47 -39.999c7.33301 -3.33301 23 -9.66602 47 -18.999c-3.33301 -26 -8.33301 -49.333 -15 -70c-3.33301 -9.33301 -9.66602 -26 -18.999 -50l-17 6
c16.667 -76.667 25 -129 25 -157v-6c0 -14 -1.66699 -29.333 -5 -46c26 19.333 65.667 46 119 80c26.667 14.667 47 22 61 22c85.333 0 128 -41.333 128 -124v-228zM557 1350c0 18.667 -12 31.667 -36 39c-14 4.66699 -34.333 7 -61 7c-40 0 -101.667 -31.333 -185 -94h125
c104.667 0 157 16 157 48z" />
    <glyph glyph-name="uni068C" unicode="&#x68c;" horiz-adv-x="702" arabic-form="isolated" 
d="M702 293h-452.999c-44 0 -77.667 9.33301 -101 28c-28.667 22.667 -43 59.667 -43 111c0 29.333 1.5 61 4.5 95s7.5 68.333 13.5 103l38 2c5.33301 -23.333 17.166 -40.333 35.499 -51s40.5 -16 66.5 -16h344c-15.333 98 -42 176.333 -80 235
c-31.333 48.667 -75 90.667 -131 126l72 312c86.667 -64.667 148 -148 184 -250c33.333 -94 50 -218.667 50 -374v-321zM620.001 1637l-104 -194l-148 74l-84 -162l-182 102l110 204l142 -80l80 158z" />
    <glyph glyph-name="uni068D" unicode="&#x68d;" horiz-adv-x="702" arabic-form="isolated" 
d="M702 293h-452.999c-44 0 -77.667 9.33301 -101 28c-28.667 22.667 -43 59.667 -43 111c0 29.333 1.5 61 4.5 95s7.5 68.333 13.5 103l38 2c5.33301 -23.333 17.166 -40.333 35.499 -51s40.5 -16 66.5 -16h344c-15.333 98 -42 176.333 -80 235
c-31.333 48.667 -75 90.667 -131 126l72 312c86.667 -64.667 148 -148 184 -250c33.333 -94 50 -218.667 50 -374v-321zM680.001 117l-104 -194l-148 74l-84 -162l-182 102l110 204l142 -80l80 158z" />
    <glyph glyph-name="uni068E" unicode="&#x68e;" horiz-adv-x="702" arabic-form="isolated" 
d="M702 293l-452.999 -0.000976562c-44 0 -77.667 9.33301 -101 28c-28.667 22.667 -43 59.667 -43 111c0 29.333 1.5 61 4.5 95s7.5 68.333 13.5 103l38 2c5.33301 -23.333 17.166 -40.333 35.499 -51s40.5 -16 66.5 -16h344c-15.333 64.667 -42 119.667 -80 165
c-31.333 42 -75 74 -131 96l72 312c86.667 -51.333 148 -124.666 184 -219.999c33.333 -80.667 50 -182 50 -304v-321zM446.001 1723l-100 -208l-188 100l102 204zM640.001 1486l-110 -204l-142 80l-80 -158l-186 102l104 194l148 -74l84 162z" />
    <glyph glyph-name="afii57513" unicode="&#x691;" horiz-adv-x="886" arabic-form="isolated" 
d="M886 270c0 -40.667 -23.333 -94.499 -70 -161.499s-101.334 -125.167 -164.001 -174.5c-69.333 -54.667 -128.666 -82 -177.999 -82c-58.667 0 -121.667 16.667 -189 50c-58.667 28.667 -150.334 86 -275.001 172l42 62c60 -40 108.333 -67 145 -81
s76.334 -21 119.001 -21c46 0 92 13 138 39s108.667 74.333 188 145c110.667 98.667 166 174.667 166 228c0 26.667 -10.667 61.667 -32 105c-24 49.333 -53.333 90.333 -88 123l56 270c45.333 -46.667 80.333 -100.334 105 -161.001s37 -129.667 37 -207v-306zM852 1062
l-544.001 -0.00292969v130h64c8 0 29.333 13 64 39c14.667 10.667 31.667 24 51 40c0 67.333 -6 128.333 -18 183l-26 104l-28 17c10 46.667 25.333 93.334 46 140.001l22 -9c-1.33301 -4 -2 -8 -2 -12c0 -11.333 15.667 -24.666 47 -39.999
c7.33301 -3.33301 23 -9.66602 47 -18.999c-3.33301 -26 -8.33301 -49.333 -15 -70c-3.33301 -9.33301 -9.66602 -26 -18.999 -50l-17 6c16.667 -76.667 25 -129 25 -157v-6c0 -14 -1.66699 -29.333 -5 -46c26 19.333 65.667 46 119 80c26.667 14.667 47 22 61 22
c85.333 0 128 -41.333 128 -124v-228zM785.999 1240c0 18.667 -12 31.667 -36 39c-14 4.66699 -34.333 7 -61 7c-40 0 -101.667 -31.333 -185 -94h125c104.667 0 157 16 157 48z" />
    <glyph glyph-name="afii57508" unicode="&#x698;" horiz-adv-x="886" arabic-form="isolated" 
d="M886 270c0 -40.667 -23.333 -94.499 -70 -161.499s-101.334 -125.167 -164.001 -174.5c-69.333 -54.667 -128.666 -82 -177.999 -82c-58.667 0 -121.667 16.667 -189 50c-58.667 28.667 -150.334 86 -275.001 172l42 62c60 -40 108.333 -67 145 -81
s76.334 -21 119.001 -21c46 0 92 13 138 39s108.667 74.333 188 145c110.667 98.667 166 174.667 166 228c0 26.667 -10.667 61.667 -32 105c-24 49.333 -53.333 90.333 -88 123l56 270c45.333 -46.667 80.333 -100.334 105 -161.001s37 -129.667 37 -207v-306zM721 1569
l-100 -208l-188 100l102 204zM915 1332l-110 -204l-142 80l-80 -158l-186 102l104 194l148 -74l84 162z" />
    <glyph glyph-name="uni069A.medi" unicode="&#x69a;" horiz-adv-x="1246" 
d="M1246 293c-74.667 0 -136.668 5.33594 -186.001 16.0029s-98 27.667 -146 51c-38.667 -27.333 -73.167 -45.333 -103.5 -54s-75.833 -13 -136.5 -13h-163c-44.667 0 -80 11.667 -106 35s-49.333 62 -70 116c-36.667 -56 -77.667 -96 -123 -120
c-38.667 -20.667 -85 -31 -139 -31h-143v272h143c70 0 128.333 19.667 175 59c60.667 51.333 91 129.333 91 234l66 -10c-1.33301 -21.333 -2.66602 -45.666 -3.99902 -72.999s-2 -57.666 -2 -90.999c0 -34 11.667 -62.333 35 -85s50 -34 80 -34h123
c81.333 0 139.333 11.333 174 34c42 27.333 63 78.333 63 153c0 16 5 30.333 15 43c6 7.33301 18.333 18.333 37 33l38 30c1.33301 -12.667 2.33301 -29.834 3 -51.501s1 -35.834 1 -42.501c0 -36.667 -5.33301 -85.334 -16 -146.001c24.667 -12 52.334 -22.333 83.001 -31
s63 -15.334 97 -20.001c0 22.667 -8.33301 52 -25 88s-25 60.333 -25 73c0 17.333 2.33301 30.666 7 39.999c1.33301 3.33301 8.66602 13.666 21.999 30.999l85 115c18 -42 30.833 -80.167 38.5 -114.5s11.5 -77.166 11.5 -128.499v-378zM854.999 1175l-120 -224l-234 122
l121 226zM1055 95.0029l-120 -224l-234 122l121 226z" />
    <glyph glyph-name="uni069B.medi" unicode="&#x69b;" horiz-adv-x="1246" 
d="M1246 293c-74.667 0 -136.668 5.33594 -186.001 16.0029s-98 27.667 -146 51c-38.667 -27.333 -73.167 -45.333 -103.5 -54s-75.833 -13 -136.5 -13h-163c-44.667 0 -80 11.667 -106 35s-49.333 62 -70 116c-36.667 -56 -77.667 -96 -123 -120
c-38.667 -20.667 -85 -31 -139 -31h-143v272h143c70 0 128.333 19.667 175 59c60.667 51.333 91 129.333 91 234l66 -10c-1.33301 -21.333 -2.66602 -45.666 -3.99902 -72.999s-2 -57.666 -2 -90.999c0 -34 11.667 -62.333 35 -85s50 -34 80 -34h123
c81.333 0 139.333 11.333 174 34c42 27.333 63 78.333 63 153c0 16 5 30.333 15 43c6 7.33301 18.333 18.333 37 33l38 30c1.33301 -12.667 2.33301 -29.834 3 -51.501s1 -35.834 1 -42.501c0 -36.667 -5.33301 -85.334 -16 -146.001c24.667 -12 52.334 -22.333 83.001 -31
s63 -15.334 97 -20.001c0 22.667 -8.33301 52 -25 88s-25 60.333 -25 73c0 17.333 2.33301 30.666 7 39.999c1.33301 3.33301 8.66602 13.666 21.999 30.999l85 115c18 -42 30.833 -80.167 38.5 -114.5s11.5 -77.166 11.5 -128.499v-378zM1135 117.003l-104 -194l-148 74
l-84 -162l-182 102l110 204l142 -80l80 158zM1099 -191.997l-102 -204l-186 96l100 208z" />
    <glyph glyph-name="uni069C.medi" unicode="&#x69c;" horiz-adv-x="1246" 
d="M1246 293c-74.667 0 -136.668 5.33594 -186.001 16.0029s-98 27.667 -146 51c-38.667 -27.333 -73.167 -45.333 -103.5 -54s-75.833 -13 -136.5 -13h-163c-44.667 0 -80 11.667 -106 35s-49.333 62 -70 116c-36.667 -56 -77.667 -96 -123 -120
c-38.667 -20.667 -85 -31 -139 -31h-143v272h143c70 0 128.333 19.667 175 59c60.667 51.333 91 129.333 91 234l66 -10c-1.33301 -21.333 -2.66602 -45.666 -3.99902 -72.999s-2 -57.666 -2 -90.999c0 -34 11.667 -62.333 35 -85s50 -34 80 -34h123
c81.333 0 139.333 11.333 174 34c42 27.333 63 78.333 63 153c0 16 5 30.333 15 43c6 7.33301 18.333 18.333 37 33l38 30c1.33301 -12.667 2.33301 -29.834 3 -51.501s1 -35.834 1 -42.501c0 -36.667 -5.33301 -85.334 -16 -146.001c24.667 -12 52.334 -22.333 83.001 -31
s63 -15.334 97 -20.001c0 22.667 -8.33301 52 -25 88s-25 60.333 -25 73c0 17.333 2.33301 30.666 7 39.999c1.33301 3.33301 8.66602 13.666 21.999 30.999l85 115c18 -42 30.833 -80.167 38.5 -114.5s11.5 -77.166 11.5 -128.499v-378zM935.999 1489l-100 -208l-188 100
l102 204zM1130 1252l-110 -204l-142 80l-80 -158l-186 102l104 194l148 -74l84 162zM1135 117.003l-104 -194l-148 74l-84 -162l-182 102l110 204l142 -80l80 158zM1099 -191.997l-102 -204l-186 96l100 208z" />
    <glyph glyph-name="uni069D.medi" unicode="&#x69d;" horiz-adv-x="1580" 
d="M1580 293l-1059 -0.00195312c-47.333 0 -85.166 11.833 -113.499 35.5s-52.5 62.167 -72.5 115.5c-42.667 -59.333 -83.334 -99.666 -122.001 -120.999c-35.333 -19.333 -82 -29 -140 -29l-143 -1v272l143 1c77.333 0 136 19.333 176 58
c46.667 45.333 76.667 123.333 90 234l68 -10c-2 -24 -3.33301 -43.333 -4 -58c-2.66699 -44 -4 -79.333 -4 -106c0 -38 10 -67.333 30 -88s46.333 -31 79 -31s62.834 6.66699 90.501 20s71.167 41 130.5 83l358 256c42 30 73.667 51.333 95 64
c48.667 29.333 95.667 44 141 44c74.667 0 134.334 -26.333 179.001 -79c52 -61.333 78 -153.666 78 -276.999v-383zM1440 666.998c0 30 -23.667 54.332 -71 72.999c-39.333 15.333 -83.333 23 -132 23c-44 0 -93.5 -14.167 -148.5 -42.5s-134.833 -80.166 -239.5 -155.499
h262c219.333 0 329 34 329 102zM1290 116.997l-104 -194l-148 74l-84 -162l-182 102l110 204l142 -80l80 158z" />
    <glyph glyph-name="uni069E.medi" unicode="&#x69e;" horiz-adv-x="1580" 
d="M1580 293l-1059 -0.00195312c-47.333 0 -85.166 11.833 -113.499 35.5s-52.5 62.167 -72.5 115.5c-42.667 -59.333 -83.334 -99.666 -122.001 -120.999c-35.333 -19.333 -82 -29 -140 -29l-143 -1v272l143 1c77.333 0 136 19.333 176 58
c46.667 45.333 76.667 123.333 90 234l68 -10c-2 -24 -3.33301 -43.333 -4 -58c-2.66699 -44 -4 -79.333 -4 -106c0 -38 10 -67.333 30 -88s46.333 -31 79 -31s62.834 6.66699 90.501 20s71.167 41 130.5 83l358 256c42 30 73.667 51.333 95 64
c48.667 29.333 95.667 44 141 44c74.667 0 134.334 -26.333 179.001 -79c52 -61.333 78 -153.666 78 -276.999v-383zM1440 666.998c0 30 -23.667 54.332 -71 72.999c-39.333 15.333 -83.333 23 -132 23c-44 0 -93.5 -14.167 -148.5 -42.5s-134.833 -80.166 -239.5 -155.499
h262c219.333 0 329 34 329 102zM949.998 1584l-100 -208l-188 100l102 204zM1144 1347l-110 -204l-142 80l-80 -158l-186 102l104 194l148 -74l84 162z" />
    <glyph glyph-name="uni06A0.init" unicode="&#x6a0;" horiz-adv-x="1108" 
d="M990 770l-112 -283.999c-179.333 -55.333 -327.666 -98 -444.999 -128c-102 -26 -188 -44 -258 -54c-51.333 -7.33301 -103 -11 -155 -11h-90v272h108c19.333 0 33.666 0.333008 42.999 1c20 2.66699 39.667 4.66699 59 6c-33.333 50 -55.666 90.5 -66.999 121.5
s-17 65.833 -17 104.5c0 99.333 41.167 186.166 123.5 260.499s178.5 111.5 288.5 111.5c74 0 144.667 -24.333 212 -73c62 -45.333 107.333 -100.333 136 -165l-42 -36c-52.667 20 -94.5 33 -125.5 39s-69.167 9 -114.5 9c-82.667 0 -154.334 -6.66699 -215.001 -20
c-76.667 -16.667 -115 -40.667 -115 -72c0 -46 92.667 -122 278 -228zM466 1729l-100 -208l-188 100l102 204zM660 1492l-110 -204l-142 80l-80 -158l-186 102l104 194l148 -74l84 162z" />
    <glyph glyph-name="uni06A0.medi" unicode="&#x6a0;" horiz-adv-x="738" 
d="M738 293h-148.001c-52.667 0 -99 10.667 -139 32s-72.333 55.666 -97 102.999c-43.333 -53.333 -99.666 -91 -168.999 -113c-46 -14.667 -96 -22 -150 -22h-105v272h105c55.333 0 94.166 2.83301 116.499 8.5s52.5 18.5 90.5 38.5c-20 39.333 -37.333 67.666 -52 84.999
c-18 20.667 -36.667 31 -56 31c-7.33301 0 -14.166 -2.5 -20.499 -7.5s-13.5 -14.5 -21.5 -28.5l-44 6c0 120.667 20.833 206.834 62.5 258.501s107.5 77.5 197.5 77.5c92.667 0 165.5 -18.167 218.5 -54.5s79.5 -86.166 79.5 -149.499c0 -34 -7 -66.5 -21 -97.5
s-40.333 -73.167 -79 -126.5c9.33301 -12.667 22 -22.667 38 -30s31.333 -11 46 -11h148v-272zM375.999 1649l-100 -208l-188 100l102 204zM569.999 1412l-110 -204l-142 80l-80 -158l-186 102l104 194l148 -74l84 162z" />
    <glyph glyph-name="uni06A0.fina" unicode="&#x6a0;" horiz-adv-x="960" 
d="M1056 -182l-368.002 -224.002c-216.667 0 -373.834 40.833 -471.501 122.5s-146.5 209.5 -146.5 383.5c0 121.333 23.333 231 70 329s120 191 220 279c-8 49.333 -26 74 -54 74c-10.667 0 -19 -3 -25 -9c-8 -10 -15.667 -19 -23 -27l-48 10
c0 92.667 20.667 169.334 62 230.001c46.667 68 112 102 196 102c74.667 0 136.334 -20.667 185.001 -62s73 -94.666 73 -159.999c0 -39.333 -10 -76.666 -30 -111.999c-22 -38.667 -52 -67.334 -90 -86.001c33.333 -38.667 74 -67 122 -85
c32.667 -12 63.334 -18 92.001 -18h140v-272h-140c-95.333 0 -171.666 18.667 -228.999 56c-64 41.333 -121.667 115 -173 221c-74.667 -49.333 -132.334 -105.833 -173.001 -169.5s-61 -128.5 -61 -194.5c0 -118 52.167 -205.5 156.5 -262.5s268.833 -85.5 493.5 -85.5
c34.667 0 71.334 0.333008 110.001 1s74 1.66699 106 3zM515.998 1703l-100 -208l-188 100l102 204zM709.998 1466l-110 -204l-142 80l-80 -158l-186 102l104 194l148 -74l84 162z" />
    <glyph glyph-name="uni06A2.init" unicode="&#x6a2;" horiz-adv-x="624" 
d="M624 293l-694 0.000976562v272h600c0 58 -1.66699 99.333 -5 124c-5.33301 38 -16.333 71 -33 99c-21.333 -41.333 -50 -73 -86 -95s-74.333 -33 -115 -33c-53.333 0 -98.333 17.667 -135 53s-55 79.666 -55 132.999c0 78.667 24 172 72 280
c52.667 118.667 106 178 160 178c70 0 136 -61 198 -183s93 -251 93 -387v-441zM407 966.001c-18 31.333 -33.833 53.166 -47.5 65.499s-28.5 18.5 -44.5 18.5c-20 0 -38 -9 -54 -27s-24 -39 -24 -63c0 -15.333 6.16699 -28.166 18.5 -38.499s28.166 -15.5 47.499 -15.5
c15.333 0 30.833 4.5 46.5 13.5s34.834 24.5 57.501 46.5zM515 95.001l-120 -224l-234 122l121 226z" />
    <glyph glyph-name="uni06A2.medi" unicode="&#x6a2;" horiz-adv-x="664" 
d="M664 293l-733.999 0.000976562v272h180c30.667 0 59.667 -1.33301 87 -4l251 -27c-99.333 22 -168.833 51.167 -208.5 87.5s-59.5 89.166 -59.5 158.499c0 103.333 23.833 196.5 71.5 279.5s101.167 124.5 160.5 124.5c67.333 0 126.166 -58.167 176.499 -174.5
s75.5 -256.833 75.5 -421.5v-295zM528.001 708.001c-24 57.333 -50.668 102 -80.001 134s-58.666 48 -87.999 48c-13.333 0 -25 -4.33301 -35 -13s-15 -19 -15 -31c0 -28.667 21.5 -56.5 64.5 -83.5s94.167 -45.167 153.5 -54.5zM515 95.001l-120 -224l-234 122l121 226z
" />
    <glyph glyph-name="uni06A3.init" unicode="&#x6a3;" horiz-adv-x="624" 
d="M624 293l-694 0.000976562v272h600c0 58 -1.66699 99.333 -5 124c-5.33301 38 -16.333 71 -33 99c-21.333 -41.333 -50 -73 -86 -95s-74.333 -33 -115 -33c-53.333 0 -98.333 17.667 -135 53s-55 79.666 -55 132.999c0 78.667 24 172 72 280
c52.667 118.667 106 178 160 178c70 0 136 -61 198 -183s93 -251 93 -387v-441zM407 966.001c-18 31.333 -33.833 53.166 -47.5 65.499s-28.5 18.5 -44.5 18.5c-20 0 -38 -9 -54 -27s-24 -39 -24 -63c0 -15.333 6.16699 -28.166 18.5 -38.499s28.166 -15.5 47.499 -15.5
c15.333 0 30.833 4.5 46.5 13.5s34.834 24.5 57.501 46.5zM515 95.001l-120 -224l-234 122l121 226zM479 1616l-120 -224l-234 122l121 226z" />
    <glyph glyph-name="uni06A3.medi" unicode="&#x6a3;" horiz-adv-x="664" 
d="M664 293l-733.999 0.000976562v272h180c30.667 0 59.667 -1.33301 87 -4l251 -27c-99.333 22 -168.833 51.167 -208.5 87.5s-59.5 89.166 -59.5 158.499c0 103.333 23.833 196.5 71.5 279.5s101.167 124.5 160.5 124.5c67.333 0 126.166 -58.167 176.499 -174.5
s75.5 -256.833 75.5 -421.5v-295zM528.001 708.001c-24 57.333 -50.668 102 -80.001 134s-58.666 48 -87.999 48c-13.333 0 -25 -4.33301 -35 -13s-15 -19 -15 -31c0 -28.667 21.5 -56.5 64.5 -83.5s94.167 -45.167 153.5 -54.5zM515 95.001l-120 -224l-234 122l121 226z
M566 1482l-120 -224l-234 122l121 226z" />
    <glyph glyph-name="afii57505" unicode="&#x6a4;" horiz-adv-x="1552" arabic-form="isolated" 
d="M1552 293l-134.001 0.000976562c-116.667 0 -249 -2.66699 -397 -8c-89.333 -3.33301 -205.333 -8.33301 -348 -15s-219.334 -10 -230.001 -10c-142 0 -244.667 25 -308 75c-58.667 46.667 -88 119 -88 217c0 76 7.33301 142.333 22 199s48.667 148.334 102 275.001
l66 -30c-48 -114 -72 -197.333 -72 -250c0 -68.667 27 -118 81 -148c60 -33.333 163.667 -50 311 -50c102 6 201.333 11.167 298 15.5s189.334 6.5 278.001 6.5c-27.333 13.333 -46.166 28.166 -56.499 44.499s-15.5 40.166 -15.5 71.499c0 95.333 29 190.333 87 285
c62.667 102 131.667 153 207 153c70.667 0 122 -49.333 154 -148c28.667 -89.333 43 -226.333 43 -411v-272zM1396 692.001c-23.333 65.333 -42.666 108.333 -57.999 129s-35.333 31 -60 31c-12.667 0 -23.834 -4.83301 -33.501 -14.5s-14.5 -22.167 -14.5 -37.5
c0 -20.667 14.333 -40 43 -58s69.667 -34.667 123 -50zM1306 1689l-100 -208l-188 100l102 204zM1500 1452l-110 -204l-142 80l-80 -158l-186 102l104 194l148 -74l84 162z" />
    <glyph glyph-name="uni06A5.init" unicode="&#x6a5;" horiz-adv-x="624" 
d="M624 293l-694 0.000976562v272h600c0 58 -1.66699 99.333 -5 124c-5.33301 38 -16.333 71 -33 99c-21.333 -41.333 -50 -73 -86 -95s-74.333 -33 -115 -33c-53.333 0 -98.333 17.667 -135 53s-55 79.666 -55 132.999c0 78.667 24 172 72 280
c52.667 118.667 106 178 160 178c70 0 136 -61 198 -183s93 -251 93 -387v-441zM407 966.001c-18 31.333 -33.833 53.166 -47.5 65.499s-28.5 18.5 -44.5 18.5c-20 0 -38 -9 -54 -27s-24 -39 -24 -63c0 -15.333 6.16699 -28.166 18.5 -38.499s28.166 -15.5 47.499 -15.5
c15.333 0 30.833 4.5 46.5 13.5s34.834 24.5 57.501 46.5zM575 117.001l-104 -194l-148 74l-84 -162l-182 102l110 204l142 -80l80 158zM539 -191.999l-102 -204l-186 96l100 208z" />
    <glyph glyph-name="uni06A5.medi" unicode="&#x6a5;" horiz-adv-x="664" 
d="M664 293l-733.999 0.000976562v272h180c30.667 0 59.667 -1.33301 87 -4l251 -27c-99.333 22 -168.833 51.167 -208.5 87.5s-59.5 89.166 -59.5 158.499c0 103.333 23.833 196.5 71.5 279.5s101.167 124.5 160.5 124.5c67.333 0 126.166 -58.167 176.499 -174.5
s75.5 -256.833 75.5 -421.5v-295zM528.001 708.001c-24 57.333 -50.668 102 -80.001 134s-58.666 48 -87.999 48c-13.333 0 -25 -4.33301 -35 -13s-15 -19 -15 -31c0 -28.667 21.5 -56.5 64.5 -83.5s94.167 -45.167 153.5 -54.5zM591 117.001l-104 -194l-148 74l-84 -162
l-182 102l110 204l142 -80l80 158zM555 -191.999l-102 -204l-186 96l100 208z" />
    <glyph glyph-name="uni06A6" unicode="&#x6a6;" horiz-adv-x="1552" arabic-form="isolated" 
d="M1552 293l-134.001 0.000976562c-116.667 0 -249 -2.66699 -397 -8c-89.333 -3.33301 -205.333 -8.33301 -348 -15s-219.334 -10 -230.001 -10c-142 0 -244.667 25 -308 75c-58.667 46.667 -88 119 -88 217c0 76 7.33301 142.333 22 199s48.667 148.334 102 275.001
l66 -30c-48 -114 -72 -197.333 -72 -250c0 -68.667 27 -118 81 -148c60 -33.333 163.667 -50 311 -50c102 6 201.333 11.167 298 15.5s189.334 6.5 278.001 6.5c-27.333 13.333 -46.166 28.166 -56.499 44.499s-15.5 40.166 -15.5 71.499c0 95.333 29 190.333 87 285
c62.667 102 131.667 153 207 153c70.667 0 122 -49.333 154 -148c28.667 -89.333 43 -226.333 43 -411v-272zM1396 692.001c-23.333 65.333 -42.666 108.333 -57.999 129s-35.333 31 -60 31c-12.667 0 -23.834 -4.83301 -33.501 -14.5s-14.5 -22.167 -14.5 -37.5
c0 -20.667 14.333 -40 43 -58s69.667 -34.667 123 -50zM1372 1707l-104 -194l-148 74l-84 -162l-182 102l110 204l142 -80l80 158zM1097 1466l142 -80l80 158l186 -102l-104 -194l-148 74l-84 -162l-182 102z" />
    <glyph glyph-name="uni06A7.fina" unicode="&#x6a7;" horiz-adv-x="1254" 
d="M1254 266c0 -132 -7.33008 -219.002 -21.9971 -261.002c-15.333 -42 -50.333 -85 -105 -129c-120.667 -94.667 -291.334 -142 -512.001 -142c-92.667 0 -174.834 7.66699 -246.501 23s-131.834 38 -180.501 68s-85.667 66.833 -111 110.5s-38 93.834 -38 150.501
c0 98.667 15.333 187.667 46 267c34 88 97.333 196.333 190 325l60 -42c-60.667 -87.333 -104 -161.666 -130 -222.999c-25.333 -62 -38 -121 -38 -177c0 -82 42 -145.333 126 -190c84.667 -45.333 202.667 -68 354 -68c137.333 0 258.666 26.667 363.999 80
s158 114 158 182c0 8.66699 -0.166992 16.5 -0.5 23.5s-2.16602 16.833 -5.49902 29.5l-156 -3c-74 -1.33301 -131.5 16.667 -172.5 54s-61.5 89.333 -61.5 156c0 98 24.667 195.667 74 293c52.667 104.667 112 157 178 157c72 0 129 -51.667 171 -155
c38.667 -94 58 -211.667 58 -353v-176zM1073 565.998c-18 42 -36.332 71.5 -54.999 88.5s-41 25.5 -67 25.5c-16.667 0 -29.834 -5.16699 -39.501 -15.5s-14.5 -23.833 -14.5 -40.5c0 -44 28 -66 84 -66h26c7.33301 0 13.333 0.333008 18 1zM1095 1275l-120 -224l-234 122
l121 226z" />
    <glyph glyph-name="uni06A8.fina" unicode="&#x6a8;" horiz-adv-x="1254" 
d="M1254 266c0 -132 -7.33008 -219.002 -21.9971 -261.002c-15.333 -42 -50.333 -85 -105 -129c-120.667 -94.667 -291.334 -142 -512.001 -142c-92.667 0 -174.834 7.66699 -246.501 23s-131.834 38 -180.501 68s-85.667 66.833 -111 110.5s-38 93.834 -38 150.501
c0 98.667 15.333 187.667 46 267c34 88 97.333 196.333 190 325l60 -42c-60.667 -87.333 -104 -161.666 -130 -222.999c-25.333 -62 -38 -121 -38 -177c0 -82 42 -145.333 126 -190c84.667 -45.333 202.667 -68 354 -68c137.333 0 258.666 26.667 363.999 80
s158 114 158 182c0 8.66699 -0.166992 16.5 -0.5 23.5s-2.16602 16.833 -5.49902 29.5l-156 -3c-74 -1.33301 -131.5 16.667 -172.5 54s-61.5 89.333 -61.5 156c0 98 24.667 195.667 74 293c52.667 104.667 112 157 178 157c72 0 129 -51.667 171 -155
c38.667 -94 58 -211.667 58 -353v-176zM1073 565.998c-18 42 -36.332 71.5 -54.999 88.5s-41 25.5 -67 25.5c-16.667 0 -29.834 -5.16699 -39.501 -15.5s-14.5 -23.833 -14.5 -40.5c0 -44 28 -66 84 -66h26c7.33301 0 13.333 0.333008 18 1zM986.004 1483l-100 -208
l-188 100l102 204zM1180 1246l-110 -204l-142 80l-80 -158l-186 102l104 194l148 -74l84 162z" />
    <glyph glyph-name="uni06A9" unicode="&#x6a9;" horiz-adv-x="1550" arabic-form="isolated" 
d="M437 293c-144 0 -247.666 24.667 -310.999 74c-56.667 44 -85 112.333 -85 205c0 62 9.5 122.833 28.5 182.5s51.5 130.834 97.5 213.501l60 -42c-26 -51.333 -42.833 -89.5 -50.5 -114.5s-11.5 -51.5 -11.5 -79.5c0 -64 23.667 -107.833 71 -131.5
s137.666 -35.5 270.999 -35.5h884c-26 31.333 -51.333 58.666 -76 81.999c-20 18.667 -47 41.334 -81 68.001l-113 88l-32 -36c-59.333 58.667 -94.666 94.334 -105.999 107.001c-33.333 38 -50 81.667 -50 131c0 67.333 4.66699 114.666 14 141.999
c13.333 38.667 41.666 73 84.999 103c38.667 26.667 80 51 124 73c34.667 17.333 80.667 37.666 138 60.999l169 66v-238c-3.33301 0 -31.333 -8.66699 -84 -26c-65.333 -21.333 -117.333 -40 -156 -56c-56 -22.667 -84 -39.667 -84 -51c0 -6 23.667 -32 71 -78
c64.667 -62.667 119 -120 163 -172c72.667 -86 131.667 -171.667 177 -257v-279h-1113z" />
    <glyph glyph-name="uni06AA.init" unicode="&#x6aa;" horiz-adv-x="1856" 
d="M1786 803c0 -181.333 -73 -304.334 -219 -369.001c-102 -45.333 -311.667 -81.666 -629 -108.999c-247.333 -21.333 -466.666 -32 -657.999 -32h-350v272h369c487.333 0 884.666 31 1192 93c89.333 18 134 46.667 134 86c0 24.667 -23.333 37 -70 37
c-53.333 0 -228 -10.667 -524 -32c-425.333 -30.667 -703.666 -46 -834.999 -46c-38 0 -68.667 10.333 -92 31c-20.667 18.667 -31 40.334 -31 65.001c0 44 8 97 24 159c17.333 69.333 37.666 116.666 60.999 141.999c99.333 108 263 203.667 491 287v-203
c-118.667 -38.667 -221.334 -82.667 -308.001 -132c-68.667 -39.333 -103 -73 -103 -101c0 -22 33 -33 99 -33c119.333 0 341.333 12 666 36c306.667 22.667 517.667 34 633 34c50.667 0 89.334 -19.333 116.001 -58c22.667 -32.667 34 -75 34 -127z" />
    <glyph glyph-name="uni06AA.medi" unicode="&#x6aa;" horiz-adv-x="1856" 
d="M1856 293l-74.998 -0.000976562c-100.667 0 -158.334 54 -173.001 162c-12.667 -7.33301 -26.334 -14.333 -41.001 -21c-102 -45.333 -311.667 -81.666 -629 -108.999c-247.333 -21.333 -466.666 -32 -657.999 -32h-350v272h369c487.333 0 884.666 31 1192 93
c89.333 18 134 46.667 134 86c0 24.667 -23.333 37 -70 37c-53.333 0 -228 -10.667 -524 -32c-425.333 -30.667 -703.666 -46 -834.999 -46c-38 0 -68.667 10.667 -92 32c-20.667 18 -31 39.333 -31 64c0 44 8 97 24 159c17.333 69.333 37.666 116.666 60.999 141.999
c99.333 108 263 203.667 491 287v-203c-118.667 -38.667 -221.334 -82.667 -308.001 -132c-68.667 -39.333 -103 -73 -103 -101c0 -22 33 -33 99 -33c119.333 0 341.333 12 666 36c306.667 22.667 517.667 34 633 34c50.667 0 89.334 -19.333 116.001 -58
c22.667 -32.667 34 -75 34 -127c0 -89.333 -19 -165.666 -57 -228.999c14 -6 31.333 -9 52 -9h75v-272z" />
    <glyph glyph-name="uni06AA.fina" unicode="&#x6aa;" horiz-adv-x="2366" 
d="M2366 293l-74.998 -0.000976562c-100.667 0 -158.334 54 -173 162c-12.667 -7.33301 -26.334 -14.333 -41.001 -21c-101.333 -44.667 -327.666 -81 -678.999 -109c-271.333 -21.333 -507.333 -32 -708 -32c-124.667 0 -264.334 7.66699 -419.001 23l-221 294l6 12
c189.333 -38 407 -57 653 -57c554 0 984.667 31 1292 93c89.333 18 134 46.667 134 86c0 24.667 -23.333 37 -70 37c-53.333 0 -228 -10.667 -524 -32c-425.333 -30.667 -703.666 -46 -834.999 -46c-38 0 -68.667 10.333 -92 31c-20.667 18.667 -31 40.334 -31 65.001
c0 44 8 97 24 159c17.333 69.333 37.666 116.666 60.999 141.999c99.333 108 263 203.667 491 287v-203c-118.667 -38.667 -221.334 -82.667 -308.001 -132c-68.667 -39.333 -103 -73 -103 -101c0 -22 33 -33 99 -33c119.333 0 341.333 12 666 36
c306.667 22.667 517.667 34 633 34c50.667 0 89.334 -19.333 116 -58c22.667 -32.667 34 -75 34 -127c0 -89.333 -19 -165.666 -57 -228.999c14 -6 31.333 -9 52 -9h75v-272z" />
    <glyph glyph-name="uni06AB.init" unicode="&#x6ab;" horiz-adv-x="738" 
d="M738 293l-808 0.000976562v272h649c-26 31.333 -51.333 58.666 -76 81.999c-20 18.667 -47 41.334 -81 68.001l-113 88l-32 -36c-59.333 58.667 -94.666 94.334 -105.999 107.001c-33.333 38 -50 81.667 -50 131c0 67.333 4.66699 114.666 14 141.999
c13.333 38.667 41.666 73 84.999 103c38.667 26.667 80 51 124 73c34.667 17.333 80.667 37.666 138 60.999l169 66v-238c-3.33301 0 -31.333 -8.66699 -84 -26c-65.333 -21.333 -117.333 -40 -156 -56c-56 -22.667 -84 -39.667 -84 -51c0 -6 23.667 -32 71 -78
c64.667 -62.667 119 -120 163 -172c72.667 -86 131.667 -171.667 177 -257v-279zM717 1108c0 -41.333 -15.332 -78.333 -45.999 -111s-68.334 -49 -113.001 -49c-36 0 -63 10 -81 30s-27 48 -27 84c0 51.333 13.333 96.833 40 136.5s59.667 59.5 99 59.5
c36 0 66.333 -15 91 -45s37 -65 37 -105zM657.001 1081c0 18.667 -13 39.3311 -39 61.998s-48 34 -66 34c-17.333 0 -32 -7.5 -44 -22.5s-18 -30.5 -18 -46.5c0 -23.333 11 -39.666 33 -48.999c17.333 -7.33301 42.333 -11 75 -11c16.667 0 30.667 2.33301 42 7
s17 13.334 17 26.001z" />
    <glyph glyph-name="uni06AB.medi" unicode="&#x6ab;" horiz-adv-x="1110" 
d="M-70 293l0.00195312 271.999h170c72 0 126.333 1.66699 163 5c57.333 5.33301 101.333 15.666 132 30.999c36 18 54 44.667 54 80c0 18 -11.333 40.333 -34 67s-47.667 47.334 -75 62.001l-35 -35c-51.333 48.667 -83.333 80 -96 94c-37.333 42 -56 87.333 -56 136
c0 67.333 4.66699 114.666 14 141.999c13.333 38.667 41.666 73 84.999 103c36.667 25.333 86 52 148 80c50 22.667 110.667 47.667 182 75l193 73v-238l-107 -33c-82 -26 -149 -49 -201 -69c-72 -28 -108 -47.667 -108 -59c-0.666992 -10 -1 -17 -1 -21
c0 -15.333 7 -31 21 -47c18.667 -21.333 57.667 -55.333 117 -102c43.333 -34.667 104 -89 182 -163c66 -63.333 115.333 -106.333 148 -129c49.333 -34.667 96 -52 140 -52h144v-272h-136c-50 0 -105.667 21.667 -167 65c-50 35.333 -101.333 82 -154 140
c-28 30.667 -64.667 75.334 -110 134.001c0 -111.333 -36.667 -194.666 -110 -249.999c-78.667 -59.333 -204.334 -89 -377.001 -89h-126zM787.002 1118c0 -41.333 -15.332 -78.333 -45.999 -111s-68.334 -49 -113.001 -49c-36 0 -63 10 -81 30s-27 48 -27 84
c0 51.333 13.333 96.833 40 136.5s59.667 59.5 99 59.5c36 0 66.333 -15 91 -45s37 -65 37 -105zM727.003 1091c0 18.667 -13 39.3311 -39 61.998s-48 34 -66 34c-17.333 0 -32 -7.5 -44 -22.5s-18 -30.5 -18 -46.5c0 -23.333 11 -39.666 33 -48.999
c17.333 -7.33301 42.333 -11 75 -11c16.667 0 30.667 2.33301 42 7s17 13.334 17 26.001z" />
    <glyph glyph-name="uni06AB.fina" unicode="&#x6ab;" horiz-adv-x="1800" 
d="M790 565c72 0 126.336 1.66504 163.003 4.99805c57.333 5.33301 101.333 15.666 132 30.999c36 18 54 44.667 54 80c0 18 -11.333 40.333 -34 67s-47.667 47.334 -75 62.001l-35 -35c-51.333 48.667 -83.333 80 -96 94c-37.333 42 -56 87.333 -56 136
c0 67.333 4.66699 114.666 14 141.999c13.333 38.667 41.666 73 84.999 103c36.667 25.333 86 52 148 80c50 22.667 110.667 47.667 182 75l193 73v-238l-107 -33c-82 -26 -149 -49 -201 -69c-72 -28 -108 -47.667 -108 -59c-0.666992 -10 -1 -17 -1 -21
c0 -15.333 7 -31 21 -47c18.667 -21.333 57.667 -55.333 117 -102c43.333 -34.667 104 -89 182 -163c66 -63.333 115.333 -106.333 148 -129c49.333 -34.667 96 -52 140 -52h144v-272h-136c-50 0 -105.667 21.667 -167 65c-50 35.333 -101.333 82 -154 140
c-28 30.667 -64.667 75.334 -110 134.001c0 -111.333 -36.667 -194.666 -110 -249.999c-78.667 -59.333 -204.334 -89 -377.001 -89h-309c-144 0 -247.667 24.667 -311 74c-56.667 44 -85 112.333 -85 205c0 62 9.5 122.833 28.5 182.5s51.5 130.834 97.5 213.501l60 -42
c-26 -51.333 -42.833 -89.5 -50.5 -114.5s-11.5 -51.5 -11.5 -79.5c0 -64 23.667 -107.833 71 -131.5s137.666 -35.5 270.999 -35.5h283zM1477 1118c0 -41.333 -15.332 -78.333 -45.999 -111s-68.334 -49 -113.001 -49c-36 0 -63 10 -81 30s-27 48 -27 84
c0 51.333 13.333 96.833 40 136.5s59.667 59.5 99 59.5c36 0 66.333 -15 91 -45s37 -65 37 -105zM1417 1091c0 18.667 -13 39.3311 -39 61.998s-48 34 -66 34c-17.333 0 -32 -7.5 -44 -22.5s-18 -30.5 -18 -46.5c0 -23.333 11 -39.666 33 -48.999
c17.333 -7.33301 42.333 -11 75 -11c16.667 0 30.667 2.33301 42 7s17 13.334 17 26.001z" />
    <glyph glyph-name="uni06AC.medi" unicode="&#x6ac;" horiz-adv-x="738" 
d="M738 293l-808 0.000976562v272h649c-26 31.333 -51.333 58.666 -76 81.999c-20 18.667 -47 41.334 -81 68.001l-113 88l-32 -36c-59.333 58.667 -94.666 94.334 -105.999 107.001c-33.333 38 -50 81.667 -50 131c0 67.333 4.66699 114.666 14 141.999
c13.333 38.667 41.666 73 84.999 103c38.667 26.667 80 51 124 73c34.667 17.333 80.667 37.666 138 60.999l169 66v-238c-3.33301 0 -31.333 -8.66699 -84 -26c-65.333 -21.333 -117.333 -40 -156 -56c-56 -22.667 -84 -39.667 -84 -51c0 -6 23.667 -32 71 -78
c64.667 -62.667 119 -120 163 -172c72.667 -86 131.667 -171.667 177 -257v-279zM495 1675l-120 -224l-234 122l121 226z" />
    <glyph glyph-name="uni06AD" unicode="&#x6ad;" horiz-adv-x="1108" arabic-form="isolated" 
d="M765 1038c0 -88.667 -26.168 -157.834 -78.501 -207.501s-125.5 -74.5 -219.5 -74.5c-26 0 -46.833 0.666992 -62.5 2s-41.5 5.33301 -77.5 12l12 64h18c66 0 126.833 9.16699 182.5 27.5s83.5 39.833 83.5 64.5c0 9.33301 -3.33301 15.833 -10 19.5s-20 6.5 -40 8.5
c-64 0 -96 28 -96 84c0 40 7.83301 84.5 23.5 133.5s37.834 98.5 66.501 148.5c18.667 30.667 37.667 53.334 57 68.001s48.333 28 87 40c-1.33301 -26 -2.33301 -54.333 -3 -85s-1 -57.667 -1 -81c-36 -10 -66 -24 -90 -42c-21.333 -16 -32 -30 -32 -42
c0 -14 22.667 -24 68 -30c41.333 0 70.333 -8.33301 87 -25s25 -45 25 -85zM1108 293l-670.998 0.000976562c-144 0 -247.667 24.667 -311 74c-56.667 44 -85 112.333 -85 205c0 62 9.5 122.833 28.5 182.5s51.5 130.834 97.5 213.501l60 -42
c-26 -51.333 -42.833 -89.5 -50.5 -114.5s-11.5 -51.5 -11.5 -79.5c0 -64 23.667 -107.833 71 -131.5s137.666 -35.5 270.999 -35.5h481l-121 679l-64 42c0 39.333 6 79 18 119c15.333 50.667 41.333 111 78 181l46 -24c0 -4 -1.33301 -14.667 -4 -32
c0 -22 14 -43.333 42 -64c24.667 -18.667 64 -39.334 118 -62.001c-6 -42.667 -14.833 -84.334 -26.5 -125.001s-24.834 -77 -39.501 -109l-36 14l109 -619v-272zM588.001 1724l-57 -96l-130 36l54 96zM763.001 1675l-57 -96l-130 36l54 96zM546.001 1587l-57 -96l-130 36
l54 96z" />
    <glyph glyph-name="uni06AE.medi" unicode="&#x6ae;" horiz-adv-x="738" 
d="M738 293l-808 0.000976562v272h649c-26 31.333 -51.333 58.666 -76 81.999c-20 18.667 -47 41.334 -81 68.001l-113 88l-32 -36c-59.333 58.667 -94.666 94.334 -105.999 107.001c-33.333 38 -50 81.667 -50 131c0 67.333 4.66699 114.666 14 141.999
c13.333 38.667 41.666 73 84.999 103c38.667 26.667 80 51 124 73c34.667 17.333 80.667 37.666 138 60.999l169 66v-238c-3.33301 0 -31.333 -8.66699 -84 -26c-65.333 -21.333 -117.333 -40 -156 -56c-56 -22.667 -84 -39.667 -84 -51c0 -6 23.667 -32 71 -78
c64.667 -62.667 119 -120 163 -172c72.667 -86 131.667 -171.667 177 -257v-279zM628 117.001l-104 -194l-148 74l-84 -162l-182 102l110 204l142 -80l80 158zM592 -191.999l-102 -204l-186 96l100 208z" />
    <glyph glyph-name="afii57509" unicode="&#x6af;" horiz-adv-x="1550" arabic-form="isolated" 
d="M437 293c-144 0 -247.666 24.667 -310.999 74c-56.667 44 -85 112.333 -85 205c0 62 9.5 122.833 28.5 182.5s51.5 130.834 97.5 213.501l60 -42c-26 -51.333 -42.833 -89.5 -50.5 -114.5s-11.5 -51.5 -11.5 -79.5c0 -64 23.667 -107.833 71 -131.5
s137.666 -35.5 270.999 -35.5h884c-26 31.333 -51.333 58.666 -76 81.999c-20 18.667 -47 41.334 -81 68.001l-113 88l-32 -36c-59.333 58.667 -94.666 94.334 -105.999 107.001c-33.333 38 -50 81.667 -50 131c0 67.333 4.66699 114.666 14 141.999
c13.333 38.667 41.666 73 84.999 103c38.667 26.667 80 51 124 73c34.667 17.333 80.667 37.666 138 60.999l169 66v-238c-3.33301 0 -31.333 -8.66699 -84 -26c-65.333 -21.333 -117.333 -40 -156 -56c-56 -22.667 -84 -39.667 -84 -51c0 -6 23.667 -32 71 -78
c64.667 -62.667 119 -120 163 -172c72.667 -86 131.667 -171.667 177 -257v-279h-1113zM1463 1767l-0.000976562 -223.001c-143.333 -52.667 -267.333 -103.667 -372 -153c-96 -45.333 -172.333 -87 -229 -125v154c22.667 22.667 62.334 53.334 119.001 92.001
c66 44.667 136 87 210 127c91.333 49.333 182 92 272 128z" />
    <glyph glyph-name="uni06B0.init" unicode="&#x6b0;" horiz-adv-x="738" 
d="M738 293l-808 0.000976562v272h649c-26 31.333 -51.333 58.666 -76 81.999c-20 18.667 -47 41.334 -81 68.001l-113 88l-32 -36c-59.333 58.667 -94.666 94.334 -105.999 107.001c-33.333 38 -50 81.667 -50 131c0 67.333 4.66699 114.666 14 141.999
c13.333 38.667 41.666 73 84.999 103c38.667 26.667 80 51 124 73c34.667 17.333 80.667 37.666 138 60.999l169 66v-238c-3.33301 0 -31.333 -8.66699 -84 -26c-65.333 -21.333 -117.333 -40 -156 -56c-56 -22.667 -84 -39.667 -84 -51c0 -6 23.667 -32 71 -78
c64.667 -62.667 119 -120 163 -172c72.667 -86 131.667 -171.667 177 -257v-279zM651 1767l-0.000976562 -223.001c-143.333 -52.667 -267.333 -103.667 -372 -153c-96 -45.333 -172.333 -87 -229 -125v154c22.667 22.667 62.334 53.334 119.001 92.001
c66 44.667 136 87 210 127c91.333 49.333 182 92 272 128zM716.999 1108c0 -41.333 -15.332 -78.333 -45.999 -111s-68.334 -49 -113.001 -49c-36 0 -63 10 -81 30s-27 48 -27 84c0 51.333 13.333 96.833 40 136.5s59.667 59.5 99 59.5c36 0 66.333 -15 91 -45
s37 -65 37 -105zM657 1081c0 18.667 -13 39.3311 -39 61.998s-48 34 -66 34c-17.333 0 -32 -7.5 -44 -22.5s-18 -30.5 -18 -46.5c0 -23.333 11 -39.666 33 -48.999c17.333 -7.33301 42.333 -11 75 -11c16.667 0 30.667 2.33301 42 7s17 13.334 17 26.001z" />
    <glyph glyph-name="uni06B0.medi" unicode="&#x6b0;" horiz-adv-x="1110" 
d="M-70 293l0.00195312 271.999h170c72 0 126.333 1.66699 163 5c57.333 5.33301 101.333 15.666 132 30.999c36 18 54 44.667 54 80c0 18 -11.333 40.333 -34 67s-47.667 47.334 -75 62.001l-35 -35c-51.333 48.667 -83.333 80 -96 94c-37.333 42 -56 87.333 -56 136
c0 67.333 4.66699 114.666 14 141.999c13.333 38.667 41.666 73 84.999 103c36.667 25.333 86 52 148 80c50 22.667 110.667 47.667 182 75l193 73v-238l-107 -33c-82 -26 -149 -49 -201 -69c-72 -28 -108 -47.667 -108 -59c-0.666992 -10 -1 -17 -1 -21
c0 -15.333 7 -31 21 -47c18.667 -21.333 57.667 -55.333 117 -102c43.333 -34.667 104 -89 182 -163c66 -63.333 115.333 -106.333 148 -129c49.333 -34.667 96 -52 140 -52h144v-272h-136c-50 0 -105.667 21.667 -167 65c-50 35.333 -101.333 82 -154 140
c-28 30.667 -64.667 75.334 -110 134.001c0 -111.333 -36.667 -194.666 -110 -249.999c-78.667 -59.333 -204.334 -89 -377.001 -89h-126zM775.002 1795l-0.000976562 -223.001c-143.333 -52.667 -267.333 -103.667 -372 -153c-96 -45.333 -172.333 -87 -229 -125v154
c22.667 22.667 62.334 53.334 119.001 92.001c66 44.667 136 87 210 127c91.333 49.333 182 92 272 128zM787.001 1118c0 -41.333 -15.332 -78.333 -45.999 -111s-68.334 -49 -113.001 -49c-36 0 -63 10 -81 30s-27 48 -27 84c0 51.333 13.333 96.833 40 136.5
s59.667 59.5 99 59.5c36 0 66.333 -15 91 -45s37 -65 37 -105zM727.002 1091c0 18.667 -13 39.3311 -39 61.998s-48 34 -66 34c-17.333 0 -32 -7.5 -44 -22.5s-18 -30.5 -18 -46.5c0 -23.333 11 -39.666 33 -48.999c17.333 -7.33301 42.333 -11 75 -11
c16.667 0 30.667 2.33301 42 7s17 13.334 17 26.001z" />
    <glyph glyph-name="uni06B0.fina" unicode="&#x6b0;" horiz-adv-x="1800" 
d="M790 565c72 0 126.336 1.66504 163.003 4.99805c57.333 5.33301 101.333 15.666 132 30.999c36 18 54 44.667 54 80c0 18 -11.333 40.333 -34 67s-47.667 47.334 -75 62.001l-35 -35c-51.333 48.667 -83.333 80 -96 94c-37.333 42 -56 87.333 -56 136
c0 67.333 4.66699 114.666 14 141.999c13.333 38.667 41.666 73 84.999 103c36.667 25.333 86 52 148 80c50 22.667 110.667 47.667 182 75l193 73v-238l-107 -33c-82 -26 -149 -49 -201 -69c-72 -28 -108 -47.667 -108 -59c-0.666992 -10 -1 -17 -1 -21
c0 -15.333 7 -31 21 -47c18.667 -21.333 57.667 -55.333 117 -102c43.333 -34.667 104 -89 182 -163c66 -63.333 115.333 -106.333 148 -129c49.333 -34.667 96 -52 140 -52h144v-272h-136c-50 0 -105.667 21.667 -167 65c-50 35.333 -101.333 82 -154 140
c-28 30.667 -64.667 75.334 -110 134.001c0 -111.333 -36.667 -194.666 -110 -249.999c-78.667 -59.333 -204.334 -89 -377.001 -89h-309c-144 0 -247.667 24.667 -311 74c-56.667 44 -85 112.333 -85 205c0 62 9.5 122.833 28.5 182.5s51.5 130.834 97.5 213.501l60 -42
c-26 -51.333 -42.833 -89.5 -50.5 -114.5s-11.5 -51.5 -11.5 -79.5c0 -64 23.667 -107.833 71 -131.5s137.666 -35.5 270.999 -35.5h283zM1465 1795l-0.000976562 -223.001c-143.333 -52.667 -267.333 -103.667 -372 -153c-96 -45.333 -172.333 -87 -229 -125v154
c22.667 22.667 62.334 53.334 119.001 92.001c66 44.667 136 87 210 127c91.333 49.333 182 92 272 128zM1477 1118c0 -41.333 -15.332 -78.333 -45.999 -111s-68.334 -49 -113.001 -49c-36 0 -63 10 -81 30s-27 48 -27 84c0 51.333 13.333 96.833 40 136.5
s59.667 59.5 99 59.5c36 0 66.333 -15 91 -45s37 -65 37 -105zM1417 1091c0 18.667 -13 39.3311 -39 61.998s-48 34 -66 34c-17.333 0 -32 -7.5 -44 -22.5s-18 -30.5 -18 -46.5c0 -23.333 11 -39.666 33 -48.999c17.333 -7.33301 42.333 -11 75 -11
c16.667 0 30.667 2.33301 42 7s17 13.334 17 26.001z" />
    <glyph glyph-name="uni06B1" unicode="&#x6b1;" horiz-adv-x="1550" arabic-form="isolated" 
d="M437 293c-144 0 -247.666 24.667 -310.999 74c-56.667 44 -85 112.333 -85 205c0 62 9.5 122.833 28.5 182.5s51.5 130.834 97.5 213.501l60 -42c-26 -51.333 -42.833 -89.5 -50.5 -114.5s-11.5 -51.5 -11.5 -79.5c0 -64 23.667 -107.833 71 -131.5
s137.666 -35.5 270.999 -35.5h884c-26 31.333 -51.333 58.666 -76 81.999c-20 18.667 -47 41.334 -81 68.001l-113 88l-32 -36c-59.333 58.667 -94.666 94.334 -105.999 107.001c-33.333 38 -50 81.667 -50 131c0 67.333 4.66699 114.666 14 141.999
c13.333 38.667 41.666 73 84.999 103c38.667 26.667 80 51 124 73c34.667 17.333 80.667 37.666 138 60.999l169 66v-238c-3.33301 0 -31.333 -8.66699 -84 -26c-65.333 -21.333 -117.333 -40 -156 -56c-56 -22.667 -84 -39.667 -84 -51c0 -6 23.667 -32 71 -78
c64.667 -62.667 119 -120 163 -172c72.667 -86 131.667 -171.667 177 -257v-279h-1113zM1463 1767l-0.000976562 -223.001c-143.333 -52.667 -267.333 -103.667 -372 -153c-96 -45.333 -172.333 -87 -229 -125v154c22.667 22.667 62.334 53.334 119.001 92.001
c66 44.667 136 87 210 127c91.333 49.333 182 92 272 128zM1274 1781l-54 -105l-144 44l56 105zM1065 1690l-54 -105l-144 44l56 105z" />
    <glyph glyph-name="uni06B2.init" unicode="&#x6b2;" horiz-adv-x="738" 
d="M738 293l-808 0.000976562v272h649c-26 31.333 -51.333 58.666 -76 81.999c-20 18.667 -47 41.334 -81 68.001l-113 88l-32 -36c-59.333 58.667 -94.666 94.334 -105.999 107.001c-33.333 38 -50 81.667 -50 131c0 67.333 4.66699 114.666 14 141.999
c13.333 38.667 41.666 73 84.999 103c38.667 26.667 80 51 124 73c34.667 17.333 80.667 37.666 138 60.999l169 66v-238c-3.33301 0 -31.333 -8.66699 -84 -26c-65.333 -21.333 -117.333 -40 -156 -56c-56 -22.667 -84 -39.667 -84 -51c0 -6 23.667 -32 71 -78
c64.667 -62.667 119 -120 163 -172c72.667 -86 131.667 -171.667 177 -257v-279zM651 1767l-0.000976562 -223.001c-143.333 -52.667 -267.333 -103.667 -372 -153c-96 -45.333 -172.333 -87 -229 -125v154c22.667 22.667 62.334 53.334 119.001 92.001
c66 44.667 136 87 210 127c91.333 49.333 182 92 272 128zM627.999 117l-104 -194l-148 74l-84 -162l-182 102l110 204l142 -80l80 158z" />
    <glyph glyph-name="uni06B2.medi" unicode="&#x6b2;" horiz-adv-x="1110" 
d="M-70 293l0.00195312 271.999h170c72 0 126.333 1.66699 163 5c57.333 5.33301 101.333 15.666 132 30.999c36 18 54 44.667 54 80c0 18 -11.333 40.333 -34 67s-47.667 47.334 -75 62.001l-35 -35c-51.333 48.667 -83.333 80 -96 94c-37.333 42 -56 87.333 -56 136
c0 67.333 4.66699 114.666 14 141.999c13.333 38.667 41.666 73 84.999 103c36.667 25.333 86 52 148 80c50 22.667 110.667 47.667 182 75l193 73v-238l-107 -33c-82 -26 -149 -49 -201 -69c-72 -28 -108 -47.667 -108 -59c-0.666992 -10 -1 -17 -1 -21
c0 -15.333 7 -31 21 -47c18.667 -21.333 57.667 -55.333 117 -102c43.333 -34.667 104 -89 182 -163c66 -63.333 115.333 -106.333 148 -129c49.333 -34.667 96 -52 140 -52h144v-272h-136c-50 0 -105.667 21.667 -167 65c-50 35.333 -101.333 82 -154 140
c-28 30.667 -64.667 75.334 -110 134.001c0 -111.333 -36.667 -194.666 -110 -249.999c-78.667 -59.333 -204.334 -89 -377.001 -89h-126zM775.002 1795l-0.000976562 -223.001c-143.333 -52.667 -267.333 -103.667 -372 -153c-96 -45.333 -172.333 -87 -229 -125v154
c22.667 22.667 62.334 53.334 119.001 92.001c66 44.667 136 87 210 127c91.333 49.333 182 92 272 128zM560.001 116.998l-104 -194l-148 74l-84 -162l-182 102l110 204l142 -80l80 158z" />
    <glyph glyph-name="uni06B2.fina" unicode="&#x6b2;" horiz-adv-x="1800" 
d="M790 565c72 0 126.336 1.66504 163.003 4.99805c57.333 5.33301 101.333 15.666 132 30.999c36 18 54 44.667 54 80c0 18 -11.333 40.333 -34 67s-47.667 47.334 -75 62.001l-35 -35c-51.333 48.667 -83.333 80 -96 94c-37.333 42 -56 87.333 -56 136
c0 67.333 4.66699 114.666 14 141.999c13.333 38.667 41.666 73 84.999 103c36.667 25.333 86 52 148 80c50 22.667 110.667 47.667 182 75l193 73v-238l-107 -33c-82 -26 -149 -49 -201 -69c-72 -28 -108 -47.667 -108 -59c-0.666992 -10 -1 -17 -1 -21
c0 -15.333 7 -31 21 -47c18.667 -21.333 57.667 -55.333 117 -102c43.333 -34.667 104 -89 182 -163c66 -63.333 115.333 -106.333 148 -129c49.333 -34.667 96 -52 140 -52h144v-272h-136c-50 0 -105.667 21.667 -167 65c-50 35.333 -101.333 82 -154 140
c-28 30.667 -64.667 75.334 -110 134.001c0 -111.333 -36.667 -194.666 -110 -249.999c-78.667 -59.333 -204.334 -89 -377.001 -89h-309c-144 0 -247.667 24.667 -311 74c-56.667 44 -85 112.333 -85 205c0 62 9.5 122.833 28.5 182.5s51.5 130.834 97.5 213.501l60 -42
c-26 -51.333 -42.833 -89.5 -50.5 -114.5s-11.5 -51.5 -11.5 -79.5c0 -64 23.667 -107.833 71 -131.5s137.666 -35.5 270.999 -35.5h283zM1465 1795l-0.000976562 -223.001c-143.333 -52.667 -267.333 -103.667 -372 -153c-96 -45.333 -172.333 -87 -229 -125v154
c22.667 22.667 62.334 53.334 119.001 92.001c66 44.667 136 87 210 127c91.333 49.333 182 92 272 128zM880.002 116.997l-104 -194l-148 74l-84 -162l-182 102l110 204l142 -80l80 158z" />
    <glyph glyph-name="uni06B3" unicode="&#x6b3;" horiz-adv-x="1550" arabic-form="isolated" 
d="M437 293c-144 0 -247.666 24.667 -310.999 74c-56.667 44 -85 112.333 -85 205c0 62 9.5 122.833 28.5 182.5s51.5 130.834 97.5 213.501l60 -42c-26 -51.333 -42.833 -89.5 -50.5 -114.5s-11.5 -51.5 -11.5 -79.5c0 -64 23.667 -107.833 71 -131.5
s137.666 -35.5 270.999 -35.5h884c-26 31.333 -51.333 58.666 -76 81.999c-20 18.667 -47 41.334 -81 68.001l-113 88l-32 -36c-59.333 58.667 -94.666 94.334 -105.999 107.001c-33.333 38 -50 81.667 -50 131c0 67.333 4.66699 114.666 14 141.999
c13.333 38.667 41.666 73 84.999 103c38.667 26.667 80 51 124 73c34.667 17.333 80.667 37.666 138 60.999l169 66v-238c-3.33301 0 -31.333 -8.66699 -84 -26c-65.333 -21.333 -117.333 -40 -156 -56c-56 -22.667 -84 -39.667 -84 -51c0 -6 23.667 -32 71 -78
c64.667 -62.667 119 -120 163 -172c72.667 -86 131.667 -171.667 177 -257v-279h-1113zM1463 1767l-0.000976562 -223.001c-143.333 -52.667 -267.333 -103.667 -372 -153c-96 -45.333 -172.333 -87 -229 -125v154c22.667 22.667 62.334 53.334 119.001 92.001
c66 44.667 136 87 210 127c91.333 49.333 182 92 272 128zM905 122.999l-100 -208l-188 100l102 204zM852 -46.001l186 -96l-100 -208l-188 100z" />
    <glyph glyph-name="uni06B4.init" unicode="&#x6b4;" horiz-adv-x="738" 
d="M738 293l-808 0.000976562v272h649c-26 31.333 -51.333 58.666 -76 81.999c-20 18.667 -47 41.334 -81 68.001l-113 88l-32 -36c-59.333 58.667 -94.666 94.334 -105.999 107.001c-33.333 38 -50 81.667 -50 131c0 67.333 4.66699 114.666 14 141.999
c13.333 38.667 41.666 73 84.999 103c38.667 26.667 80 51 124 73c34.667 17.333 80.667 37.666 138 60.999l169 66v-238c-3.33301 0 -31.333 -8.66699 -84 -26c-65.333 -21.333 -117.333 -40 -156 -56c-56 -22.667 -84 -39.667 -84 -51c0 -6 23.667 -32 71 -78
c64.667 -62.667 119 -120 163 -172c72.667 -86 131.667 -171.667 177 -257v-279zM651 1767l-0.000976562 -223.001c-143.333 -52.667 -267.333 -103.667 -372 -153c-96 -45.333 -172.333 -87 -229 -125v154c22.667 22.667 62.334 53.334 119.001 92.001
c66 44.667 136 87 210 127c91.333 49.333 182 92 272 128zM257.999 1789l-57 -96l-130 36l54 96zM432.999 1740l-57 -96l-130 36l54 96zM215.999 1652l-57 -96l-130 36l54 96z" />
    <glyph glyph-name="uni06B4.medi" unicode="&#x6b4;" horiz-adv-x="1110" 
d="M-70 293l0.00195312 271.999h170c72 0 126.333 1.66699 163 5c57.333 5.33301 101.333 15.666 132 30.999c36 18 54 44.667 54 80c0 18 -11.333 40.333 -34 67s-47.667 47.334 -75 62.001l-35 -35c-51.333 48.667 -83.333 80 -96 94c-37.333 42 -56 87.333 -56 136
c0 67.333 4.66699 114.666 14 141.999c13.333 38.667 41.666 73 84.999 103c36.667 25.333 86 52 148 80c50 22.667 110.667 47.667 182 75l193 73v-238l-107 -33c-82 -26 -149 -49 -201 -69c-72 -28 -108 -47.667 -108 -59c-0.666992 -10 -1 -17 -1 -21
c0 -15.333 7 -31 21 -47c18.667 -21.333 57.667 -55.333 117 -102c43.333 -34.667 104 -89 182 -163c66 -63.333 115.333 -106.333 148 -129c49.333 -34.667 96 -52 140 -52h144v-272h-136c-50 0 -105.667 21.667 -167 65c-50 35.333 -101.333 82 -154 140
c-28 30.667 -64.667 75.334 -110 134.001c0 -111.333 -36.667 -194.666 -110 -249.999c-78.667 -59.333 -204.334 -89 -377.001 -89h-126zM775.002 1795l-0.000976562 -223.001c-143.333 -52.667 -267.333 -103.667 -372 -153c-96 -45.333 -172.333 -87 -229 -125v154
c22.667 22.667 62.334 53.334 119.001 92.001c66 44.667 136 87 210 127c91.333 49.333 182 92 272 128zM318.001 1789l-57 -96l-130 36l54 96zM493.001 1740l-57 -96l-130 36l54 96zM276.001 1652l-57 -96l-130 36l54 96z" />
    <glyph glyph-name="uni06B4.fina" unicode="&#x6b4;" horiz-adv-x="1800" 
d="M790 565c72 0 126.336 1.66504 163.003 4.99805c57.333 5.33301 101.333 15.666 132 30.999c36 18 54 44.667 54 80c0 18 -11.333 40.333 -34 67s-47.667 47.334 -75 62.001l-35 -35c-51.333 48.667 -83.333 80 -96 94c-37.333 42 -56 87.333 -56 136
c0 67.333 4.66699 114.666 14 141.999c13.333 38.667 41.666 73 84.999 103c36.667 25.333 86 52 148 80c50 22.667 110.667 47.667 182 75l193 73v-238l-107 -33c-82 -26 -149 -49 -201 -69c-72 -28 -108 -47.667 -108 -59c-0.666992 -10 -1 -17 -1 -21
c0 -15.333 7 -31 21 -47c18.667 -21.333 57.667 -55.333 117 -102c43.333 -34.667 104 -89 182 -163c66 -63.333 115.333 -106.333 148 -129c49.333 -34.667 96 -52 140 -52h144v-272h-136c-50 0 -105.667 21.667 -167 65c-50 35.333 -101.333 82 -154 140
c-28 30.667 -64.667 75.334 -110 134.001c0 -111.333 -36.667 -194.666 -110 -249.999c-78.667 -59.333 -204.334 -89 -377.001 -89h-309c-144 0 -247.667 24.667 -311 74c-56.667 44 -85 112.333 -85 205c0 62 9.5 122.833 28.5 182.5s51.5 130.834 97.5 213.501l60 -42
c-26 -51.333 -42.833 -89.5 -50.5 -114.5s-11.5 -51.5 -11.5 -79.5c0 -64 23.667 -107.833 71 -131.5s137.666 -35.5 270.999 -35.5h283zM1465 1795l-0.000976562 -223.001c-143.333 -52.667 -267.333 -103.667 -372 -153c-96 -45.333 -172.333 -87 -229 -125v154
c22.667 22.667 62.334 53.334 119.001 92.001c66 44.667 136 87 210 127c91.333 49.333 182 92 272 128zM1028 1789l-57 -96l-130 36l54 96zM1203 1740l-57 -96l-130 36l54 96zM986.002 1652l-57 -96l-130 36l54 96z" />
    <glyph glyph-name="uni06B5.init" unicode="&#x6b5;" horiz-adv-x="480" 
d="M480 293l-549.999 0.00195312v272h430l-121 679l-64 42c0 39.333 6 79 18 119c15.333 50.667 41.333 111 78 181l46 -24c0 -4 -1.33301 -14.667 -4 -32c0 -22 14 -43.333 42 -64c24.667 -18.667 64 -39.334 118 -62.001c-6 -42.667 -14.833 -84.334 -26.5 -125.001
s-24.834 -77 -39.501 -109l-36 14l109 -619v-272zM392.001 1825l-136 -230h-96l-136 230h117l67 -120l67 120h117z" />
    <glyph glyph-name="uni06B5.medi" unicode="&#x6b5;" horiz-adv-x="480" 
d="M480 293l-549.999 0.00195312v272h430l-121 679l-64 42c0 39.333 6 79 18 119c15.333 50.667 41.333 111 78 181l46 -24c0 -4 -1.33301 -14.667 -4 -32c0 -22 14 -43.333 42 -64c24.667 -18.667 64 -39.334 118 -62.001c-6 -42.667 -14.833 -84.334 -26.5 -125.001
s-24.834 -77 -39.501 -109l-36 14l109 -619v-272zM392.001 1825l-136 -230h-96l-136 230h117l67 -120l67 120h117z" />
    <glyph glyph-name="uni06B6.init" unicode="&#x6b6;" horiz-adv-x="480" 
d="M480 293l-549.999 0.00195312v272h430l-121 679l-64 42c0 39.333 6 79 18 119c15.333 50.667 41.333 111 78 181l46 -24c0 -4 -1.33301 -14.667 -4 -32c0 -22 14 -43.333 42 -64c24.667 -18.667 64 -39.334 118 -62.001c-6 -42.667 -14.833 -84.334 -26.5 -125.001
s-24.834 -77 -39.501 -109l-36 14l109 -619v-272zM275.001 1701l-120 -224l-234 122l121 226z" />
    <glyph glyph-name="uni06B6.medi" unicode="&#x6b6;" horiz-adv-x="480" 
d="M480 293l-549.999 0.00195312v272h430l-121 679l-64 42c0 39.333 6 79 18 119c15.333 50.667 41.333 111 78 181l46 -24c0 -4 -1.33301 -14.667 -4 -32c0 -22 14 -43.333 42 -64c24.667 -18.667 64 -39.334 118 -62.001c-6 -42.667 -14.833 -84.334 -26.5 -125.001
s-24.834 -77 -39.501 -109l-36 14l109 -619v-272zM275.001 1701l-120 -224l-234 122l121 226z" />
    <glyph glyph-name="uni06B7.init" unicode="&#x6b7;" horiz-adv-x="480" 
d="M480 293l-549.999 0.00195312v272h430l-121 679l-64 42c0 39.333 6 79 18 119c15.333 50.667 41.333 111 78 181l46 -24c0 -4 -1.33301 -14.667 -4 -32c0 -22 14 -43.333 42 -64c24.667 -18.667 64 -39.334 118 -62.001c-6 -42.667 -14.833 -84.334 -26.5 -125.001
s-24.834 -77 -39.501 -109l-36 14l109 -619v-272zM228.001 1789l-57 -96l-130 36l54 96zM403.001 1740l-57 -96l-130 36l54 96zM186.001 1652l-57 -96l-130 36l54 96z" />
    <glyph glyph-name="uni06B7.medi" unicode="&#x6b7;" horiz-adv-x="480" 
d="M480 293l-549.999 0.00195312v272h430l-121 679l-64 42c0 39.333 6 79 18 119c15.333 50.667 41.333 111 78 181l46 -24c0 -4 -1.33301 -14.667 -4 -32c0 -22 14 -43.333 42 -64c24.667 -18.667 64 -39.334 118 -62.001c-6 -42.667 -14.833 -84.334 -26.5 -125.001
s-24.834 -77 -39.501 -109l-36 14l109 -619v-272zM228.001 1789l-57 -96l-130 36l54 96zM403.001 1740l-57 -96l-130 36l54 96zM186.001 1652l-57 -96l-130 36l54 96z" />
    <glyph glyph-name="uni06B8.init" unicode="&#x6b8;" horiz-adv-x="480" 
d="M480 293l-549.999 0.00195312v272h430l-121 679l-64 42c0 39.333 6 79 18 119c15.333 50.667 41.333 111 78 181l46 -24c0 -4 -1.33301 -14.667 -4 -32c0 -22 14 -43.333 42 -64c24.667 -18.667 64 -39.334 118 -62.001c-6 -42.667 -14.833 -84.334 -26.5 -125.001
s-24.834 -77 -39.501 -109l-36 14l109 -619v-272zM495.001 117.002l-104 -194l-148 74l-84 -162l-182 102l110 204l142 -80l80 158zM459.001 -191.998l-102 -204l-186 96l100 208z" />
    <glyph glyph-name="uni06B8.medi" unicode="&#x6b8;" horiz-adv-x="480" 
d="M480 293l-549.999 0.00195312v272h430l-121 679l-64 42c0 39.333 6 79 18 119c15.333 50.667 41.333 111 78 181l46 -24c0 -4 -1.33301 -14.667 -4 -32c0 -22 14 -43.333 42 -64c24.667 -18.667 64 -39.334 118 -62.001c-6 -42.667 -14.833 -84.334 -26.5 -125.001
s-24.834 -77 -39.501 -109l-36 14l109 -619v-272zM495.001 117.002l-104 -194l-148 74l-84 -162l-182 102l110 204l142 -80l80 158zM459.001 -191.998l-102 -204l-186 96l100 208z" />
    <glyph glyph-name="uni06B9.medi" unicode="&#x6b9;" horiz-adv-x="556" 
d="M556 293l-626.001 0.000976562v272h526c-7.33301 45.333 -20.666 83.666 -39.999 114.999c-10 17.333 -33.333 47.333 -70 90l80 238c50 -56.667 84.167 -116 102.5 -178s27.5 -154 27.5 -276v-261zM561.999 1382l-120 -224l-234 122l121 226zM454.999 95.001l-120 -224
l-234 122l121 226z" />
    <glyph glyph-name="afii57514" unicode="&#x6ba;" horiz-adv-x="1108" arabic-form="isolated" 
d="M1108 342c0 -92 -9.00195 -165.833 -27.002 -221.5s-47.5 -100.5 -88.5 -134.5s-101 -61.833 -180 -83.5s-160.5 -32.5 -244.5 -32.5c-162 0 -286.833 29.5 -374.5 88.5s-131.5 142.833 -131.5 251.5c0 92.667 14 177.334 42 254.001
c30.667 84.667 90.667 194.667 180 330l60 -42c-66 -112.667 -109.167 -194.334 -129.5 -245.001s-30.5 -103 -30.5 -157c0 -70 37.5 -127.167 112.5 -171.5s173.5 -66.5 295.5 -66.5c120 0 221 23 303 69s123 102.333 123 169c0 41.333 -7.16699 82.333 -21.5 123
s-45.166 105.667 -92.499 195l88 270c46.667 -84.667 75.334 -143 86.001 -175c20 -58 30 -131.667 30 -221v-200z" />
    <glyph glyph-name="uni06BB" unicode="&#x6bb;" horiz-adv-x="1108" arabic-form="isolated" 
d="M1108 342c0 -92 -9.00195 -165.833 -27.002 -221.5s-47.5 -100.5 -88.5 -134.5s-101 -61.833 -180 -83.5s-160.5 -32.5 -244.5 -32.5c-162 0 -286.833 29.5 -374.5 88.5s-131.5 142.833 -131.5 251.5c0 92.667 14 177.334 42 254.001
c30.667 84.667 90.667 194.667 180 330l60 -42c-66 -112.667 -109.167 -194.334 -129.5 -245.001s-30.5 -103 -30.5 -157c0 -70 37.5 -127.167 112.5 -171.5s173.5 -66.5 295.5 -66.5c120 0 221 23 303 69s123 102.333 123 169c0 41.333 -7.16699 82.333 -21.5 123
s-45.166 105.667 -92.499 195l88 270c46.667 -84.667 75.334 -143 86.001 -175c20 -58 30 -131.667 30 -221v-200zM871.998 982l-544.001 -0.00292969v130h64c8 0 29.333 13 64 39c14.667 10.667 31.667 24 51 40c0 67.333 -6 128.333 -18 183l-26 104l-28 17
c10 46.667 25.333 93.334 46 140.001l22 -9c-1.33301 -4 -2 -8 -2 -12c0 -11.333 15.667 -24.666 47 -39.999c7.33301 -3.33301 23 -9.66602 47 -18.999c-3.33301 -26 -8.33301 -49.333 -15 -70c-3.33301 -9.33301 -9.66602 -26 -18.999 -50l-17 6
c16.667 -76.667 25 -129 25 -157v-6c0 -14 -1.66699 -29.333 -5 -46c26 19.333 65.667 46 119 80c26.667 14.667 47 22 61 22c85.333 0 128 -41.333 128 -124v-228zM805.997 1160c0 18.667 -12 31.667 -36 39c-14 4.66699 -34.333 7 -61 7c-40 0 -101.667 -31.333 -185 -94
h125c104.667 0 157 16 157 48z" />
    <glyph glyph-name="uni06BC.medi" unicode="&#x6bc;" horiz-adv-x="556" 
d="M556 293l-626.001 0.000976562v272h526c-7.33301 45.333 -20.666 83.666 -39.999 114.999c-10 17.333 -33.333 47.333 -70 90l80 238c50 -56.667 84.167 -116 102.5 -178s27.5 -154 27.5 -276v-261zM561.999 1382l-120 -224l-234 122l121 226zM410.999 225.001
c0 -41.333 -15.332 -78.333 -45.999 -111s-68.334 -49 -113.001 -49c-36 0 -63 10 -81 30s-27 48 -27 84c0 51.333 13.333 96.833 40 136.5s59.667 59.5 99 59.5c36 0 66.333 -15 91 -45s37 -65 37 -105zM351 198.001c0 18.667 -13 39.3311 -39 61.998s-48 34 -66 34
c-17.333 0 -32 -7.5 -44 -22.5s-18 -30.5 -18 -46.5c0 -23.333 11 -39.666 33 -48.999c17.333 -7.33301 42.333 -11 75 -11c16.667 0 30.667 2.33301 42 7s17 13.334 17 26.001z" />
    <glyph glyph-name="uni06BE" unicode="&#x647;" horiz-adv-x="960" arabic-form="initial" 
d="M816 506c0 -48.667 -9.66504 -102.001 -28.998 -160.001c-23.333 -70.667 -51 -106 -83 -106c-28 0 -74.333 13.333 -139 40c-74.667 30.667 -152.334 71.334 -233.001 122.001c-44.667 -39.333 -98.334 -68.333 -161.001 -87c-49.333 -14.667 -99.666 -22 -150.999 -22
h-90v272h90c20 0 41.5 3 64.5 9s40.833 13.333 53.5 22v36c0 80.667 11.333 151 34 211c25.333 67.333 62.666 116.333 111.999 147l-48 36c8 54 15.5 96.333 22.5 127s19.5 74.334 37.5 131.001c100 -70 191.667 -155.333 275 -256
c76.667 -92.667 136.667 -185.834 180 -279.501s65 -174.5 65 -242.5zM422.002 737.999c0 34 -4.83301 60.498 -14.5 79.498s-23.5 28.5 -41.5 28.5c-30 0 -55.333 -11 -76 -33c-17.333 -18.667 -26 -37.667 -26 -57c0 -26.667 30.667 -54 92 -82
c14.667 6.66699 25.667 12.334 33 17.001c22 14.667 33 30.334 33 47.001zM698.002 551.997c0 20 -14.499 50.501 -43.499 91.501s-64.5 81.167 -106.5 120.5c-4 -32 -8.83301 -56.333 -14.5 -73s-18.834 -44.334 -39.501 -83.001c87.333 -48 149.333 -72 186 -72
c12 0 18 5.33301 18 16z" />
    <glyph glyph-name="uni06BF.medi" unicode="&#x6bf;" horiz-adv-x="1072" 
d="M1072 293l-1142 -0.00195312v272h711c-80.667 83.333 -155.334 143.333 -224.001 180c-60.667 32.667 -120 49 -178 49c-17.333 0 -33.166 -0.833008 -47.499 -2.5s-35.166 -5.5 -62.499 -11.5c36.667 84 77.5 146 122.5 186s96.167 60 153.5 60
c44 0 86.333 -10.667 127 -32s86.334 -55.666 137.001 -102.999c40 -37.333 96.667 -95.666 170 -174.999c50 -56 88.167 -92.333 114.5 -109s65.833 -30.667 118.5 -42v-272zM764.998 116.998l-104 -194l-148 74l-84 -162l-182 102l110 204l142 -80l80 158z
M728.998 -192.002l-102 -204l-186 96l100 208zM674.998 1358l-120 -224l-234 122l121 226z" />
    <glyph glyph-name="uni06BF.fina" unicode="&#x6bf;" horiz-adv-x="1144" 
d="M1144 293h-155.999c-117.333 0 -197.333 17 -240 51s-64 98 -64 192c0 42 2.66699 82.333 8 121c2 13.333 7.33301 45 16 95c-152 -35.333 -274.667 -96.333 -368 -183c-96 -89.333 -144 -191 -144 -305c0 -133.333 57.167 -236 171.5 -308s279.166 -108 494.499 -108
c63.333 0 154 6 272 18l18 -32l-380 -244l-96 -2c-195.333 0 -345.833 49.5 -451.5 148.5s-158.5 240.167 -158.5 423.5c0 139.333 31.833 268.5 95.5 387.5s145.167 205.167 244.5 258.5h-22c-62 0 -113.167 -5.83301 -153.5 -17.5s-101.166 -38.5 -182.499 -80.5
c30 248 151.333 372 364 372c24.667 0 71.667 -3.83301 141 -11.5s131 -13.5 185 -17.5c101.333 -7.33301 200.666 -11 297.999 -11l-60 -242c-39.333 0 -73 -2.33301 -101 -7l-101 -21c-2 -12.667 -3.83301 -27 -5.5 -43s-2.5 -28.333 -2.5 -37
c0 -47.333 15.667 -80 47 -98s89.333 -27 174 -27h157v-272zM686.001 381l-88 -165l-126 63l-72 -138l-154 87l93 173l121 -68l68 135zM655.001 118l-86 -173l-158 82l85 176zM712.001 1403l-120 -224l-234 122l121 226z" />
    <glyph glyph-name="uni06C0" unicode="&#x6c0;" horiz-adv-x="702" arabic-form="isolated" 
d="M622 668c0 -40 -3.16797 -80.502 -9.50098 -121.502s-14.5 -74.5 -24.5 -100.5c-18.667 -50.667 -64.667 -95.334 -138 -134.001c-68 -36 -132 -54 -192 -54c-52 0 -93.333 18 -124 54s-46 84 -46 144c0 54.667 7.83301 108.334 23.5 161.001s43.834 119 84.501 199
l-36 24c11.333 30.667 26.666 67.834 45.999 111.501s36.666 80.5 51.999 110.5l98 -58c42.667 -26 83.334 -54 122.001 -84c54.667 -41.333 92.334 -80.166 113.001 -116.499s31 -81.5 31 -135.5zM473.999 587.998c0 12.667 -23.167 38.999 -69.5 78.999
s-91.833 74.333 -136.5 103c-42.667 -67.333 -64 -123.333 -64 -168c0 -21.333 8.83301 -39.666 26.5 -54.999s38.834 -23 63.501 -23c33.333 0 71.666 7.83301 114.999 23.5s65 29.167 65 40.5zM429.999 1263c-7.33301 -19.333 -16.002 -34 -26.002 -44
c-7.33301 -7.33301 -18.666 -13.333 -33.999 -18l-216 -66c13.333 24 25 40.5 35 49.5s28 17.167 54 24.5c-18.667 12 -32.167 23.167 -40.5 33.5s-12.5 20.5 -12.5 30.5c0 8.66699 2.66699 18.5 8 29.5s12.333 21.833 21 32.5c43.333 58 86.333 87 129 87
c12.667 0 22.834 -4.16699 30.501 -12.5s11.5 -19.166 11.5 -32.499c0 -10.667 -1.5 -19.834 -4.5 -27.501s-9.16699 -19.167 -18.5 -34.5c-33.333 16.667 -56 25 -68 25s-24 -3 -36 -9c-8 -4 -15.333 -9.33301 -22 -16c0 -8.66699 16 -22 48 -40s55 -27 69 -27
c8.66699 0 32.667 5 72 15z" />
    <glyph glyph-name="uni06C1" unicode="&#x6c1;" horiz-adv-x="794" arabic-form="final" 
d="M794 293h-71.9971c-47.333 0 -89 11.667 -125 35c-26.667 16 -59.334 45.667 -98.001 89l-55 61c-24.667 23.333 -48.334 35 -71.001 35c-52 0 -110 -50.667 -174 -152c-22.667 -36 -61.334 -110 -116.001 -222l-57 35c159.333 398 295.333 597 408 597
c38 0 85 -32.333 141 -97c62.667 -72.667 115.667 -109 159 -109h60v-272z" />
    <glyph glyph-name="uni06C5" unicode="&#x6c5;" horiz-adv-x="924" arabic-form="isolated" 
d="M924 362c0 -106.667 -45.332 -216.666 -135.999 -329.999c-94.667 -118.667 -194 -178 -298 -178c-68.667 0 -154.334 32.333 -257.001 97c-41.333 26 -117 81 -227 165l42 58c72 -48 131 -80 177 -96c38 -13.333 81 -20 129 -20c93.333 0 187 38 281 114
c-18.667 -4 -38.334 -6 -59.001 -6c-45.333 0 -93.666 11 -144.999 33c-37.333 17.333 -65.666 26 -84.999 26c-9.33301 0 -28.666 -4.66699 -57.999 -14l-14 14c30.667 51.333 66 77 106 77c24 0 57 -8.66699 99 -26c53.333 -22 101.666 -33 144.999 -33
c32 0 68.667 8.33301 110 25l44 50c-28 -4 -51.333 -6 -70 -6c-68.667 0 -122.334 23.333 -161.001 70c-36.667 43.333 -55 100 -55 170c0 100 23 196.333 69 289c50 100.667 107 151 171 151c65.333 0 116 -48.333 152 -145c26.667 -72.667 40 -148.334 40 -227.001v-258z
M804.001 565.001c-18.667 107.333 -56.667 161.001 -114 161.001c-20 0 -36.333 -7.83301 -49 -23.5s-19 -33.834 -19 -54.501c0 -28.667 18 -50.667 54 -66c26.667 -11.333 56.667 -17 90 -17h38z" />
    <glyph glyph-name="uni06C6" unicode="&#x6c6;" horiz-adv-x="924" arabic-form="isolated" 
d="M924 362c0 -114.667 -48.666 -228 -145.999 -340s-193.333 -168 -288 -168c-55.333 0 -115.833 17.667 -181.5 53s-166.5 105 -302.5 209l42 58c72 -48 131 -80 177 -96c38 -13.333 81 -20 129 -20c64.667 0 128.667 18 192 54c74.667 42.667 152 111.334 232 206.001
c-28 -4 -51.333 -6 -70 -6c-66 0 -118.5 21.5 -157.5 64.5s-58.5 101.5 -58.5 175.5c0 100 23 196.333 69 289c50 100.667 107 151 171 151c53.333 0 98.666 -36.333 135.999 -109s56 -160.334 56 -263.001v-258zM804.001 565
c-18.667 107.333 -56.666 160.999 -113.999 160.999c-20.667 0 -37.167 -8.16699 -49.5 -24.5s-18.5 -34.166 -18.5 -53.499c0 -24 13.167 -43.833 39.5 -59.5s61.166 -23.5 104.499 -23.5h38zM862.002 1365l-136 -230h-96l-136 230h117l67 -120l67 120h117z" />
    <glyph glyph-name="uni06C7" unicode="&#x6c7;" horiz-adv-x="924" arabic-form="isolated" 
d="M924 362c0 -114.667 -48.666 -228 -145.999 -340s-193.333 -168 -288 -168c-55.333 0 -115.833 17.667 -181.5 53s-166.5 105 -302.5 209l42 58c72 -48 131 -80 177 -96c38 -13.333 81 -20 129 -20c64.667 0 128.667 18 192 54c74.667 42.667 152 111.334 232 206.001
c-28 -4 -51.333 -6 -70 -6c-66 0 -118.5 21.5 -157.5 64.5s-58.5 101.5 -58.5 175.5c0 100 23 196.333 69 289c50 100.667 107 151 171 151c53.333 0 98.666 -36.333 135.999 -109s56 -160.334 56 -263.001v-258zM804.001 565
c-18.667 107.333 -56.666 160.999 -113.999 160.999c-20.667 0 -37.167 -8.16699 -49.5 -24.5s-18.5 -34.166 -18.5 -53.499c0 -24 13.167 -43.833 39.5 -59.5s61.166 -23.5 104.499 -23.5h38zM829.002 1324c0 -11.333 -0.999023 -22.998 -2.99902 -34.998l-6 -36l-83 50
c-33.333 -36.667 -56 -61 -68 -73c-49.333 -48 -90.666 -72 -123.999 -72h-73c35.333 16.667 76.666 43.667 123.999 81c42.667 34 75 64 97 90c-20.667 12.667 -36.334 26 -47.001 40c-13.333 17.333 -20 36.333 -20 57c0 44 12.833 82.833 38.5 116.5s53.5 50.5 83.5 50.5
c17.333 0 33 -9.33301 47 -28s21 -41.334 21 -68.001c0 -12.667 -1.83301 -25.834 -5.5 -39.501s-12.167 -38.834 -25.5 -75.501c10.667 -9.33301 21.667 -18.333 33 -27c7.33301 -7.33301 11 -17.666 11 -30.999zM754.003 1437c0 18 -6.33203 34.6689 -18.999 50.002
s-25 23 -37 23c-6.66699 0 -11.834 -2.33301 -15.501 -7s-5.5 -9.33398 -5.5 -14.001c0 -14.667 8.33301 -30 25 -46l44 -34c5.33301 13.333 8 22.666 8 27.999z" />
    <glyph glyph-name="uni06C8" unicode="&#x6c8;" horiz-adv-x="924" arabic-form="isolated" 
d="M924 362c0 -114.667 -48.666 -228 -145.999 -340s-193.333 -168 -288 -168c-55.333 0 -115.833 17.667 -181.5 53s-166.5 105 -302.5 209l42 58c72 -48 131 -80 177 -96c38 -13.333 81 -20 129 -20c64.667 0 128.667 18 192 54c74.667 42.667 152 111.334 232 206.001
c-28 -4 -51.333 -6 -70 -6c-66 0 -118.5 21.5 -157.5 64.5s-58.5 101.5 -58.5 175.5c0 100 23 196.333 69 289c50 100.667 107 151 171 151c53.333 0 98.666 -36.333 135.999 -109s56 -160.334 56 -263.001v-258zM804.001 565
c-18.667 107.333 -56.666 160.999 -113.999 160.999c-20.667 0 -37.167 -8.16699 -49.5 -24.5s-18.5 -34.166 -18.5 -53.499c0 -24 13.167 -43.833 39.5 -59.5s61.166 -23.5 104.499 -23.5h38zM699.002 1234c0 -47.333 -16.333 -104.666 -49 -171.999l-28 12
c7.33301 39.333 11 72.333 11 99c0 43.333 -5.66699 108.666 -17 195.999c-5.33301 39.333 -13 83 -23 131c-4 18.667 -6 31 -6 37c0 20 18.667 65.333 56 136l29 -169c18 -104.667 27 -194.667 27 -270z" />
    <glyph glyph-name="uni06C9" unicode="&#x6c9;" horiz-adv-x="924" arabic-form="isolated" 
d="M924 362c0 -114.667 -48.666 -228 -145.999 -340s-193.333 -168 -288 -168c-55.333 0 -115.833 17.667 -181.5 53s-166.5 105 -302.5 209l42 58c72 -48 131 -80 177 -96c38 -13.333 81 -20 129 -20c64.667 0 128.667 18 192 54c74.667 42.667 152 111.334 232 206.001
c-28 -4 -51.333 -6 -70 -6c-66 0 -118.5 21.5 -157.5 64.5s-58.5 101.5 -58.5 175.5c0 100 23 196.333 69 289c50 100.667 107 151 171 151c53.333 0 98.666 -36.333 135.999 -109s56 -160.334 56 -263.001v-258zM804.001 565
c-18.667 107.333 -56.666 160.999 -113.999 160.999c-20.667 0 -37.167 -8.16699 -49.5 -24.5s-18.5 -34.166 -18.5 -53.499c0 -24 13.167 -43.833 39.5 -59.5s61.166 -23.5 104.499 -23.5h38zM862.002 1135h-117l-67 120l-67 -120h-117l136 230h96z" />
    <glyph glyph-name="uni06CB" unicode="&#x6cb;" horiz-adv-x="924" arabic-form="isolated" 
d="M924 362c0 -114.667 -48.666 -228 -145.999 -340s-193.333 -168 -288 -168c-55.333 0 -115.833 17.667 -181.5 53s-166.5 105 -302.5 209l42 58c72 -48 131 -80 177 -96c38 -13.333 81 -20 129 -20c64.667 0 128.667 18 192 54c74.667 42.667 152 111.334 232 206.001
c-28 -4 -51.333 -6 -70 -6c-66 0 -118.5 21.5 -157.5 64.5s-58.5 101.5 -58.5 175.5c0 100 23 196.333 69 289c50 100.667 107 151 171 151c53.333 0 98.666 -36.333 135.999 -109s56 -160.334 56 -263.001v-258zM804.001 565
c-18.667 107.333 -56.666 160.999 -113.999 160.999c-20.667 0 -37.167 -8.16699 -49.5 -24.5s-18.5 -34.166 -18.5 -53.499c0 -24 13.167 -43.833 39.5 -59.5s61.166 -23.5 104.499 -23.5h38zM706.002 1576l-100 -208l-188 100l102 204zM900.002 1339l-110 -204l-142 80
l-80 -158l-186 102l104 194l148 -74l84 162z" />
    <glyph glyph-name="uni06CC" unicode="&#x6cc;" horiz-adv-x="1320" arabic-form="isolated" 
d="M1177 780c0 -36.667 -3.67188 -67.001 -11.0049 -91.001s-23 -55.667 -47 -95c-18 47.333 -33.167 78.166 -45.5 92.499s-30.166 21.5 -53.499 21.5c-36 0 -85.5 -20.5 -148.5 -61.5s-94.5 -75.5 -94.5 -103.5c0 -14.667 12.667 -25 38 -31c18 -4 46 -6 84 -6h29.5
c9.66699 0 19.5 0.333008 29.5 1c72.667 0 121 -7.33301 145 -22c20.667 -12.667 31 -37.334 31 -74.001c0 -72 -13.333 -141 -40 -207c-33.333 -83.333 -81.666 -142.666 -144.999 -177.999c-79.333 -44.667 -161.833 -80.667 -247.5 -108s-165.5 -41 -239.5 -41
c-207.333 0 -311 93 -311 279c0 94 11.667 175 35 243c26 76 81 179 165 309l46 -30c-49.333 -83.333 -86.333 -157.5 -111 -222.5s-37 -121.833 -37 -170.5c0 -126 71 -189 213 -189c53.333 0 104 4.83301 152 14.5s96.667 23.167 146 40.5c32 11.333 68.667 26 110 44
c66 29.333 101 45 105 47c30 16 45 30.333 45 43c0 6.66699 -16.167 10.834 -48.5 12.501s-55.166 2.5 -68.499 2.5c-102.667 0 -171.334 14.667 -206.001 44c-28 24 -42 68.333 -42 133c0 30.667 9.83301 69.334 29.5 116.001s45.5 93 77.5 139
c48.667 70 97.334 123 146.001 159s96.334 54 143.001 54c38.667 0 69.334 -15 92.001 -45s34 -70 34 -120z" />
    <glyph glyph-name="uni06CD.fina" unicode="&#x6cd;" horiz-adv-x="1135" 
d="M1135 293l-85 0.000976562c-54.667 0 -82 -7.66699 -82 -23c0 -5.33301 16.333 -14.5 49 -27.5s49 -31.833 49 -56.5c0 -38 -5.33301 -82 -16 -132s-25.834 -96.167 -45.501 -138.5s-75.167 -87.5 -166.5 -135.5c-67.333 -36 -134.666 -64.667 -201.999 -86
c-104 -33.333 -203.333 -50 -298 -50c-218.667 0 -328 98 -328 294c0 182.667 55.667 353.667 167 513l-216 -110v61l288 150l43 -16c-109.333 -186 -164 -333.333 -164 -442c0 -64.667 21.333 -114.334 64 -149.001c39.333 -32.667 92 -49 158 -49c84 0 175 13 273 39
c88 23.333 163.5 51.5 226.5 84.5s94.5 60.167 94.5 81.5c0 9.33301 -52 14 -156 14h-97c-47.333 5.33301 -71 20.333 -71 45c0 84.667 21.667 153 65 205s94 96.667 152 134c68 44 130 66 186 66h112v-272z" />
    <glyph glyph-name="uni06CE.medi" unicode="&#x6ce;" horiz-adv-x="556" 
d="M556 293l-626.001 0.000976562v272h526c-7.33301 45.333 -20.666 83.666 -39.999 114.999c-10 17.333 -33.333 47.333 -70 90l80 238c50 -56.667 84.167 -116 102.5 -178s27.5 -154 27.5 -276v-261zM539.999 117.001l-104 -194l-148 74l-84 -162l-182 102l110 204
l142 -80l80 158zM551.999 1366l-136 -230h-96l-136 230h117l67 -120l67 120h117z" />
    <glyph glyph-name="uni06CE.fina" unicode="&#x6ce;" horiz-adv-x="1135" 
d="M1135 293l-84.999 0.00292969c-24.667 0 -44.5 -2 -59.5 -6s-22.5 -9.66699 -22.5 -17c0 -4 16.333 -12.333 49 -25s49 -32.334 49 -59.001c0 -36.667 -5.5 -80.834 -16.5 -132.501s-26.167 -98.167 -45.5 -139.5c-14.667 -32 -55.667 -68.667 -123 -110
c-72 -44 -153.667 -80.667 -245 -110c-104.667 -33.333 -204 -50 -298 -50c-108 0 -189.667 25 -245 75s-83 123 -83 219c0 105.333 12.667 196.666 38 273.999c30.667 93.333 93.334 215.333 188.001 366l56 -42c-62.667 -106.667 -105.667 -191.667 -129 -255
s-35 -125.666 -35 -186.999s19.667 -109.666 59 -144.999s93.666 -53 162.999 -53c84.667 0 175.667 13 273 39c88 23.333 163.5 51.5 226.5 84.5s94.5 60.167 94.5 81.5c0 6.66699 -18.667 10.667 -56 12s-70.666 2 -99.999 2c-70.667 0 -116.334 2.66699 -137.001 8
s-31 17.666 -31 36.999c0 36 6.5 74 19.5 114s28.5 70.667 46.5 92c44 53.333 96 98.666 156 135.999c67.333 42 127.666 63 180.999 63h112v-272zM712.001 869.003l-136 -230h-96l-136 230h117l67 -120l67 120h117z" />
    <glyph glyph-name="uni06D0" unicode="&#x6d0;" horiz-adv-x="1320" arabic-form="isolated" 
d="M1177 780c0 -36.667 -3.67188 -67.001 -11.0049 -91.001s-23 -55.667 -47 -95c-18 47.333 -33.167 78.166 -45.5 92.499s-30.166 21.5 -53.499 21.5c-36 0 -85.5 -20.5 -148.5 -61.5s-94.5 -75.5 -94.5 -103.5c0 -14.667 12.667 -25 38 -31c18 -4 46 -6 84 -6h29.5
c9.66699 0 19.5 0.333008 29.5 1c72.667 0 121 -7.33301 145 -22c20.667 -12.667 31 -37.334 31 -74.001c0 -72 -13.333 -141 -40 -207c-33.333 -83.333 -81.666 -142.666 -144.999 -177.999c-79.333 -44.667 -161.833 -80.667 -247.5 -108s-165.5 -41 -239.5 -41
c-207.333 0 -311 93 -311 279c0 94 11.667 175 35 243c26 76 81 179 165 309l46 -30c-49.333 -83.333 -86.333 -157.5 -111 -222.5s-37 -121.833 -37 -170.5c0 -126 71 -189 213 -189c53.333 0 104 4.83301 152 14.5s96.667 23.167 146 40.5c32 11.333 68.667 26 110 44
c66 29.333 101 45 105 47c30 16 45 30.333 45 43c0 6.66699 -16.167 10.834 -48.5 12.501s-55.166 2.5 -68.499 2.5c-102.667 0 -171.334 14.667 -206.001 44c-28 24 -42 68.333 -42 133c0 30.667 9.83301 69.334 29.5 116.001s45.5 93 77.5 139
c48.667 70 97.334 123 146.001 159s96.334 54 143.001 54c38.667 0 69.334 -15 92.001 -45s34 -70 34 -120zM644.995 -204.001l-34 -70l-94 24l36 70zM670.995 -312.001l-34 -70l-94 24l36 70z" />
    <glyph glyph-name="uni06D1.fina" unicode="&#x6d1;" horiz-adv-x="1135" 
d="M1135 293l-85.002 -0.000976562c-54.667 0 -82 -7.66699 -82 -23c0 -1.33301 16.333 -9.5 49 -24.5s49 -34.833 49 -59.5c0 -38 -5.33301 -82 -16 -132c-11.333 -54 -26.666 -100.667 -45.999 -140c-48.667 -100 -270.667 -150 -666 -150c-106.667 0 -186 18 -238 54
c-60 41.333 -90 111.333 -90 210c0 106 23.333 207.667 70 305c29.333 60.667 81.333 142.334 156 245.001l56 -42c-109.333 -155.333 -164 -276 -164 -362c0 -48 21.333 -86.667 64 -116c40.667 -28 93.334 -42 158.001 -42c396 0 594 28.333 594 85
c0 9.33301 -52 14 -156 14h-97c-47.333 5.33301 -71 20.333 -71 45c0 84.667 21.667 153 65 205s94 96.667 152 134c68 44 130 66 186 66h112v-272zM684.998 -264.001l-34 -70l-102 29l34 70zM650.998 -364.001l-34 -70l-102 29l34 70zM525.998 -315.001l-34 -70l-102 29
l34 70z" />
    <glyph glyph-name="afii57519" unicode="&#x6d2;" horiz-adv-x="1663" arabic-form="isolated" 
d="M1663 192l-252.997 -242.998h-1169c-77.333 0 -124.333 4.66699 -141 14c-18.667 10.667 -28.334 26.667 -29.001 48c-2 59.333 6.33301 144 25 254c18.667 112.667 38.667 183 60 211c12.667 16.667 64.667 50 156 100l178 96c28 15.333 88.333 74.666 181 177.999
l60 69c28.667 28 54.667 42 78 42c59.333 0 89 -77.667 89 -233c0 -78 -3.66699 -132.333 -11 -163c-40.667 82.667 -81.334 124 -122.001 124c-54.667 0 -112.334 -52.667 -173.001 -158c-15.333 -28 -37.333 -59.333 -66 -94l-203 -104
c-80 -40.667 -120 -68.334 -120 -83.001c0 -19.333 31.333 -29 94 -29h1366v-29z" />
    <glyph glyph-name="uni06D3" unicode="&#x6d3;" horiz-adv-x="1663" arabic-form="isolated" 
d="M1663 192l-252.997 -242.998h-1169c-77.333 0 -124.333 4.66699 -141 14c-18.667 10.667 -28.334 26.667 -29.001 48c-2 59.333 6.33301 144 25 254c18.667 112.667 38.667 183 60 211c12.667 16.667 64.667 50 156 100l178 96c28 15.333 88.333 74.666 181 177.999
l60 69c28.667 28 54.667 42 78 42c59.333 0 89 -77.667 89 -233c0 -78 -3.66699 -132.333 -11 -163c-40.667 82.667 -81.334 124 -122.001 124c-54.667 0 -112.334 -52.667 -173.001 -158c-15.333 -28 -37.333 -59.333 -66 -94l-203 -104
c-80 -40.667 -120 -68.334 -120 -83.001c0 -19.333 31.333 -29 94 -29h1366v-29zM630.003 1063c-7.33301 -19.333 -16.002 -34 -26.002 -44c-7.33301 -7.33301 -18.666 -13.333 -33.999 -18l-216 -66c13.333 24 25 40.5 35 49.5s28 17.167 54 24.5
c-18.667 12 -32.167 23.167 -40.5 33.5s-12.5 20.5 -12.5 30.5c0 8.66699 2.66699 18.5 8 29.5s12.333 21.833 21 32.5c43.333 58 86.333 87 129 87c12.667 0 22.834 -4.16699 30.501 -12.5s11.5 -19.166 11.5 -32.499c0 -10.667 -1.5 -19.834 -4.5 -27.501
s-9.16699 -19.167 -18.5 -34.5c-33.333 16.667 -56 25 -68 25s-24 -3 -36 -9c-8 -4 -15.333 -9.33301 -22 -16c0 -8.66699 16 -22 48 -40s55 -27 69 -27c8.66699 0 32.667 5 72 15z" />
    <glyph glyph-name="uni06EE.fina" unicode="&#x6ee;" horiz-adv-x="702" 
d="M702 293h-452.999c-44 0 -77.667 9.33301 -101 28c-28.667 22.667 -43 59.667 -43 111c0 29.333 1.5 61 4.5 95s7.5 68.333 13.5 103l38 2c5.33301 -23.333 17.166 -40.333 35.499 -51s40.5 -16 66.5 -16h344c-15.333 98 -42 176.333 -80 235
c-31.333 48.667 -75 90.667 -131 126l72 312c86.667 -64.667 148 -148 184 -250c33.333 -94 50 -218.667 50 -374v-321zM542.001 1398h-117l-67 120l-67 -120h-117l136 230h96z" />
    <glyph glyph-name="uni06EF.fina" unicode="&#x6ef;" horiz-adv-x="886" 
d="M886 270c0 -40.667 -23.333 -94.499 -70 -161.499s-101.334 -125.167 -164.001 -174.5c-69.333 -54.667 -128.666 -82 -177.999 -82c-58.667 0 -121.667 16.667 -189 50c-58.667 28.667 -150.334 86 -275.001 172l42 62c60 -40 108.333 -67 145 -81
s76.334 -21 119.001 -21c46 0 92 13 138 39s108.667 74.333 188 145c110.667 98.667 166 174.667 166 228c0 26.667 -10.667 61.667 -32 105c-24 49.333 -53.333 90.333 -88 123l56 270c45.333 -46.667 80.333 -100.334 105 -161.001s37 -129.667 37 -207v-306zM872 1062
h-117l-67 120l-67 -120h-117l136 230h96z" />
    <glyph glyph-name="uni06FA.medi" unicode="&#x6fa;" horiz-adv-x="1246" 
d="M1246 293c-74.667 0 -136.668 5.33594 -186.001 16.0029s-98 27.667 -146 51c-38.667 -27.333 -73.167 -45.333 -103.5 -54s-75.833 -13 -136.5 -13h-163c-44.667 0 -80 11.667 -106 35s-49.333 62 -70 116c-36.667 -56 -77.667 -96 -123 -120
c-38.667 -20.667 -85 -31 -139 -31h-143v272h143c70 0 128.333 19.667 175 59c60.667 51.333 91 129.333 91 234l66 -10c-1.33301 -21.333 -2.66602 -45.666 -3.99902 -72.999s-2 -57.666 -2 -90.999c0 -34 11.667 -62.333 35 -85s50 -34 80 -34h123
c81.333 0 139.333 11.333 174 34c42 27.333 63 78.333 63 153c0 16 5 30.333 15 43c6 7.33301 18.333 18.333 37 33l38 30c1.33301 -12.667 2.33301 -29.834 3 -51.501s1 -35.834 1 -42.501c0 -36.667 -5.33301 -85.334 -16 -146.001c24.667 -12 52.334 -22.333 83.001 -31
s63 -15.334 97 -20.001c0 22.667 -8.33301 52 -25 88s-25 60.333 -25 73c0 17.333 2.33301 30.666 7 39.999c1.33301 3.33301 8.66602 13.666 21.999 30.999l85 115c18 -42 30.833 -80.167 38.5 -114.5s11.5 -77.166 11.5 -128.499v-378zM935.999 1489l-100 -208l-188 100
l102 204zM1130 1252l-110 -204l-142 80l-80 -158l-186 102l104 194l148 -74l84 162zM1055 95.0029l-120 -224l-234 122l121 226z" />
    <glyph glyph-name="uni06FB.medi" unicode="&#x6fb;" horiz-adv-x="1580" 
d="M1580 293l-1059 -0.00195312c-47.333 0 -85.166 11.833 -113.499 35.5s-52.5 62.167 -72.5 115.5c-42.667 -59.333 -83.334 -99.666 -122.001 -120.999c-35.333 -19.333 -82 -29 -140 -29l-143 -1v272l143 1c77.333 0 136 19.333 176 58
c46.667 45.333 76.667 123.333 90 234l68 -10c-2 -24 -3.33301 -43.333 -4 -58c-2.66699 -44 -4 -79.333 -4 -106c0 -38 10 -67.333 30 -88s46.333 -31 79 -31s62.834 6.66699 90.501 20s71.167 41 130.5 83l358 256c42 30 73.667 51.333 95 64
c48.667 29.333 95.667 44 141 44c74.667 0 134.334 -26.333 179.001 -79c52 -61.333 78 -153.666 78 -276.999v-383zM1440 666.998c0 30 -23.667 54.332 -71 72.999c-39.333 15.333 -83.333 23 -132 23c-44 0 -93.5 -14.167 -148.5 -42.5s-134.833 -80.166 -239.5 -155.499
h262c219.333 0 329 34 329 102zM1222 94.9971l-120 -224l-234 122l121 226zM1082 1367l-120 -224l-234 122l121 226z" />
    <glyph glyph-name="uni06FC.init" unicode="&#x6fc;" horiz-adv-x="1108" 
d="M990 770l-112 -283.999c-179.333 -55.333 -327.666 -98 -444.999 -128c-102 -26 -188 -44 -258 -54c-51.333 -7.33301 -103 -11 -155 -11h-90v272h108c19.333 0 33.666 0.333008 42.999 1c20 2.66699 39.667 4.66699 59 6c-33.333 50 -55.666 90.5 -66.999 121.5
s-17 65.833 -17 104.5c0 99.333 41.167 186.166 123.5 260.499s178.5 111.5 288.5 111.5c74 0 144.667 -24.333 212 -73c62 -45.333 107.333 -100.333 136 -165l-42 -36c-52.667 20 -94.5 33 -125.5 39s-69.167 9 -114.5 9c-82.667 0 -154.334 -6.66699 -215.001 -20
c-76.667 -16.667 -115 -40.667 -115 -72c0 -46 92.667 -122 278 -228zM755 95.001l-120 -224l-234 122l121 226zM583 1514l-120 -224l-234 122l121 226z" />
    <glyph glyph-name="uni06FC.medi" unicode="&#x6fc;" horiz-adv-x="738" 
d="M738 293h-148.001c-52.667 0 -99 10.667 -139 32s-72.333 55.666 -97 102.999c-43.333 -53.333 -99.666 -91 -168.999 -113c-46 -14.667 -96 -22 -150 -22h-105v272h105c55.333 0 94.166 2.83301 116.499 8.5s52.5 18.5 90.5 38.5c-20 39.333 -37.333 67.666 -52 84.999
c-18 20.667 -36.667 31 -56 31c-7.33301 0 -14.166 -2.5 -20.499 -7.5s-13.5 -14.5 -21.5 -28.5l-44 6c0 120.667 20.833 206.834 62.5 258.501s107.5 77.5 197.5 77.5c92.667 0 165.5 -18.167 218.5 -54.5s79.5 -86.166 79.5 -149.499c0 -34 -7 -66.5 -21 -97.5
s-40.333 -73.167 -79 -126.5c9.33301 -12.667 22 -22.667 38 -30s31.333 -11 46 -11h148v-272zM554.999 95l-120 -224l-234 122l121 226zM480.999 1424l-120 -224l-234 122l121 226z" />
    <glyph glyph-name="uni06FC.fina" unicode="&#x6fc;" horiz-adv-x="960" 
d="M1056 -182l-368.002 -224.002c-216.667 0 -373.834 40.833 -471.501 122.5s-146.5 209.5 -146.5 383.5c0 121.333 23.333 231 70 329s120 191 220 279c-8 49.333 -26 74 -54 74c-10.667 0 -19 -3 -25 -9c-8 -10 -15.667 -19 -23 -27l-48 10
c0 92.667 20.667 169.334 62 230.001c46.667 68 112 102 196 102c74.667 0 136.334 -20.667 185.001 -62s73 -94.666 73 -159.999c0 -39.333 -10 -76.666 -30 -111.999c-22 -38.667 -52 -67.334 -90 -86.001c33.333 -38.667 74 -67 122 -85
c32.667 -12 63.334 -18 92.001 -18h140v-272h-140c-95.333 0 -171.666 18.667 -228.999 56c-64 41.333 -121.667 115 -173 221c-74.667 -49.333 -132.334 -105.833 -173.001 -169.5s-61 -128.5 -61 -194.5c0 -118 52.167 -205.5 156.5 -262.5s268.833 -85.5 493.5 -85.5
c34.667 0 71.334 0.333008 110.001 1s74 1.66699 106 3zM744.998 164.998l-120 -224l-234 122l121 226zM646.998 1433l-120 -224l-234 122l121 226z" />
    <glyph glyph-name="uni06FF.init" unicode="&#x6ff;" horiz-adv-x="960" 
d="M816 506c0 -48.667 -9.66504 -102.001 -28.998 -160.001c-23.333 -70.667 -51 -106 -83 -106c-28 0 -74.333 13.333 -139 40c-74.667 30.667 -152.334 71.334 -233.001 122.001c-44.667 -39.333 -98.334 -68.333 -161.001 -87c-49.333 -14.667 -99.666 -22 -150.999 -22
h-90v272h90c20 0 41.5 3 64.5 9s40.833 13.333 53.5 22v36c0 80.667 11.333 151 34 211c25.333 67.333 62.666 116.333 111.999 147l-48 36c8 54 15.5 96.333 22.5 127s19.5 74.334 37.5 131.001c100 -70 191.667 -155.333 275 -256
c76.667 -92.667 136.667 -185.834 180 -279.501s65 -174.5 65 -242.5zM422.002 737.999c0 34 -4.83301 60.498 -14.5 79.498s-23.5 28.5 -41.5 28.5c-30 0 -55.333 -11 -76 -33c-17.333 -18.667 -26 -37.667 -26 -57c0 -26.667 30.667 -54 92 -82
c14.667 6.66699 25.667 12.334 33 17.001c22 14.667 33 30.334 33 47.001zM698.002 551.997c0 20 -14.499 50.501 -43.499 91.501s-64.5 81.167 -106.5 120.5c-4 -32 -8.83301 -56.333 -14.5 -73s-18.834 -44.334 -39.501 -83.001c87.333 -48 149.333 -72 186 -72
c12 0 18 5.33301 18 16zM512.003 1398h-117l-67 120l-67 -120h-117l136 230h96z" />
    <glyph glyph-name="uni06FF.medi" unicode="&#x6ff;" horiz-adv-x="924" 
d="M924 293l-204 0.000976562c-15.333 0 -31 -0.166992 -47 -0.5s-39.667 -1.83301 -71 -4.5l72 -41c22.667 -17.333 34 -39.666 34 -66.999c0 -26 -3.66699 -53.667 -11 -83c-4 -16.667 -13.667 -46.334 -29 -89.001c-28 -83.333 -54 -139.833 -78 -169.5
s-54.667 -44.5 -92 -44.5c-92.667 0 -172.5 48.833 -239.5 146.5s-100.5 215.167 -100.5 352.5h-228v272h90c36 0 72.667 3.33301 110 10c42 9.33301 71.333 15.666 88 18.999c74 200.667 139.333 345.667 196 435c50 78 96 117 138 117c34 0 63.333 -33.333 88 -100
c21.333 -57.333 32 -114 32 -170c0 -77.333 -15.333 -143.333 -46 -198c-33.333 -60 -83.333 -104 -150 -132c48.667 8 93 13.167 133 15.5s77 3.5 111 3.5h204v-272zM516 750.001c0 17.333 -6.33301 38.668 -19 64.001s-25.667 38 -39 38
c-17.333 0 -37.5 -18.833 -60.5 -56.5s-50.833 -96.834 -83.5 -177.501c76.667 26.667 129.5 49.5 158.5 68.5s43.5 40.167 43.5 63.5zM558 80.0029c0 37.333 -21.335 72.667 -64.002 106c-51.333 40 -125.333 70 -222 90c10.667 -58.667 41.334 -109.667 92.001 -153
s105.334 -65 164.001 -65c20 0 30 7.33301 30 22zM691.998 1289h-117l-67 120l-67 -120h-117l136 230h96z" />
    <glyph glyph-name="uni06FF.fina" unicode="&#x6ff;" horiz-adv-x="924" 
d="M924 293l-204 0.000976562c-15.333 0 -31 -0.166992 -47 -0.5s-39.667 -1.83301 -71 -4.5l72 -41c22.667 -17.333 34 -39.666 34 -66.999c0 -26 -3.66699 -53.667 -11 -83c-4 -16.667 -13.667 -46.334 -29 -89.001c-28 -83.333 -54 -139.833 -78 -169.5
s-54.667 -44.5 -92 -44.5c-92.667 0 -172.5 48.833 -239.5 146.5s-100.5 215.167 -100.5 352.5h-228v272h90c36 0 72.667 3.33301 110 10c42 9.33301 71.333 15.666 88 18.999c74 200.667 139.333 345.667 196 435c50 78 96 117 138 117c34 0 63.333 -33.333 88 -100
c21.333 -57.333 32 -114 32 -170c0 -77.333 -15.333 -143.333 -46 -198c-33.333 -60 -83.333 -104 -150 -132c48.667 8 93 13.167 133 15.5s77 3.5 111 3.5h204v-272zM516 750.001c0 17.333 -6.33301 38.668 -19 64.001s-25.667 38 -39 38
c-17.333 0 -37.5 -18.833 -60.5 -56.5s-50.833 -96.834 -83.5 -177.501c76.667 26.667 129.5 49.5 158.5 68.5s43.5 40.167 43.5 63.5zM558 80.0029c0 37.333 -21.335 72.667 -64.002 106c-51.333 40 -125.333 70 -222 90c10.667 -58.667 41.334 -109.667 92.001 -153
s105.334 -65 164.001 -65c20 0 30 7.33301 30 22zM691.998 1289h-117l-67 120l-67 -120h-117l136 230h96z" />
    <glyph glyph-name="uniFB51" unicode="&#x671;" horiz-adv-x="480" arabic-form="final" 
d="M480 293h-140c-78 0 -134.333 32 -169 96c-38.667 70.667 -58 189.667 -58 357v285c0 64.667 -9 115 -27 151c-8.66699 17.333 -28.667 42.333 -60 75l108 250c38.667 -53.333 65.667 -106 81 -158c18 -60.667 27 -138 27 -232v-197c0 -139.333 9.33301 -236 28 -290
c14.667 -43.333 38 -65 70 -65h140v-272zM351 1724c0 -35.333 -16 -67.668 -48 -97.001c-34.667 -32 -76 -48 -124 -48h-167c-20.667 0 -31 -15 -31 -45c0 -3.33301 0.666992 -9.33301 2 -18c0.666992 -8 0.666992 -14 0 -18c-32 32.667 -48 66.334 -48 101.001
c0 44 25.333 66 76 66h24c78.667 106 156.667 159 234 159c54.667 0 82 -33.333 82 -100zM261 1725c0 25.333 -10.666 38 -31.999 38c-36.667 0 -83.334 -32.667 -140.001 -98h82c60 0 90 20 90 60z" />
    <glyph glyph-name="uniFB53" unicode="&#x67b;" horiz-adv-x="1330" arabic-form="final" 
d="M1330 293l-838.996 -0.000976562c-40.667 0 -74.334 0.333008 -101.001 1s-46.667 1.66699 -60 3c-25.333 2.66699 -53.666 9.66699 -84.999 21c-55.333 18.667 -100.333 56.667 -135 114c-35.333 57.333 -53 121.333 -53 192c0 28 1.83301 56.667 5.5 86
s11.167 60.666 22.5 93.999c13.333 40 29.166 75.833 47.499 107.5s37.166 61.834 56.499 90.501l56 -36c-14.667 -26.667 -26.834 -51 -36.501 -73s-17.167 -40.667 -22.5 -56c-10 -31.333 -15 -61.666 -15 -90.999c0 -38 12 -72.333 36 -103
c25.333 -30.667 57.333 -50.334 96 -59.001c23.333 -6 53.666 -10.667 90.999 -14s77 -5 119 -5h723c-19.333 52.667 -34.666 88.667 -45.999 108c-14.667 26 -37.334 58.333 -68.001 97l90 232c50 -71.333 82.667 -136.666 98 -195.999c13.333 -53.333 20 -130 20 -230
v-283zM855.004 122.999l-100 -208l-188 100l102 204zM802.004 -46.001l186 -96l-100 -208l-188 100z" />
    <glyph glyph-name="uniFB54" unicode="&#x67b;" horiz-adv-x="556" arabic-form="initial" 
d="M556 293l-626.001 0.000976562v272h526c-7.33301 45.333 -20.666 83.666 -39.999 114.999c-10 17.333 -33.333 47.333 -70 90l80 238c50 -56.667 84.167 -116 102.5 -178s27.5 -154 27.5 -276v-261zM354.999 123.001l-100 -208l-188 100l102 204zM301.999 -45.999
l186 -96l-100 -208l-188 100z" />
    <glyph glyph-name="uniFB55" unicode="&#x67b;" horiz-adv-x="556" arabic-form="medial" 
d="M556 293l-626.001 0.000976562v272h526c-7.33301 45.333 -20.666 83.666 -39.999 114.999c-10 17.333 -33.333 47.333 -70 90l80 238c50 -56.667 84.167 -116 102.5 -178s27.5 -154 27.5 -276v-261zM354.999 123.001l-100 -208l-188 100l102 204zM301.999 -45.999
l186 -96l-100 -208l-188 100z" />
    <glyph glyph-name="uniFB57" unicode="&#x67e;" horiz-adv-x="1330" arabic-form="final" 
d="M1330 293l-838.996 -0.000976562c-40.667 0 -74.334 0.333008 -101.001 1s-46.667 1.66699 -60 3c-25.333 2.66699 -53.666 9.66699 -84.999 21c-55.333 18.667 -100.333 56.667 -135 114c-35.333 57.333 -53 121.333 -53 192c0 28 1.83301 56.667 5.5 86
s11.167 60.666 22.5 93.999c13.333 40 29.166 75.833 47.499 107.5s37.166 61.834 56.499 90.501l56 -36c-14.667 -26.667 -26.834 -51 -36.501 -73s-17.167 -40.667 -22.5 -56c-10 -31.333 -15 -61.666 -15 -90.999c0 -38 12 -72.333 36 -103
c25.333 -30.667 57.333 -50.334 96 -59.001c23.333 -6 53.666 -10.667 90.999 -14s77 -5 119 -5h723c-19.333 52.667 -34.666 88.667 -45.999 108c-14.667 26 -37.334 58.333 -68.001 97l90 232c50 -71.333 82.667 -136.666 98 -195.999c13.333 -53.333 20 -130 20 -230
v-283zM984.004 116.999l-104 -194l-148 74l-84 -162l-182 102l110 204l142 -80l80 158zM948.004 -192.001l-102 -204l-186 96l100 208z" />
    <glyph glyph-name="uniFB58" unicode="&#x67e;" horiz-adv-x="556" arabic-form="initial" 
d="M556 293l-626.001 0.000976562v272h526c-7.33301 45.333 -20.666 83.666 -39.999 114.999c-10 17.333 -33.333 47.333 -70 90l80 238c50 -56.667 84.167 -116 102.5 -178s27.5 -154 27.5 -276v-261zM539.999 117.001l-104 -194l-148 74l-84 -162l-182 102l110 204
l142 -80l80 158zM503.999 -191.999l-102 -204l-186 96l100 208z" />
    <glyph glyph-name="uniFB59" unicode="&#x67e;" horiz-adv-x="556" arabic-form="medial" 
d="M556 293l-626.001 0.000976562v272h526c-7.33301 45.333 -20.666 83.666 -39.999 114.999c-10 17.333 -33.333 47.333 -70 90l80 238c50 -56.667 84.167 -116 102.5 -178s27.5 -154 27.5 -276v-261zM539.999 117.001l-104 -194l-148 74l-84 -162l-182 102l110 204
l142 -80l80 158zM503.999 -191.999l-102 -204l-186 96l100 208z" />
    <glyph glyph-name="uniFB5B" unicode="&#x680;" horiz-adv-x="1330" arabic-form="final" 
d="M1330 293l-838.996 -0.000976562c-40.667 0 -74.334 0.333008 -101.001 1s-46.667 1.66699 -60 3c-25.333 2.66699 -53.666 9.66699 -84.999 21c-55.333 18.667 -100.333 56.667 -135 114c-35.333 57.333 -53 121.333 -53 192c0 28 1.83301 56.667 5.5 86
s11.167 60.666 22.5 93.999c13.333 40 29.166 75.833 47.499 107.5s37.166 61.834 56.499 90.501l56 -36c-14.667 -26.667 -26.834 -51 -36.501 -73s-17.167 -40.667 -22.5 -56c-10 -31.333 -15 -61.666 -15 -90.999c0 -38 12 -72.333 36 -103
c25.333 -30.667 57.333 -50.334 96 -59.001c23.333 -6 53.666 -10.667 90.999 -14s77 -5 119 -5h723c-19.333 52.667 -34.666 88.667 -45.999 108c-14.667 26 -37.334 58.333 -68.001 97l90 232c50 -71.333 82.667 -136.666 98 -195.999c13.333 -53.333 20 -130 20 -230
v-283zM932.004 116.999l-104 -194l-148 74l-84 -162l-182 102l110 204l142 -80l80 158zM657.004 -124.001l142 -80l80 158l186 -102l-104 -194l-148 74l-84 -162l-182 102z" />
    <glyph glyph-name="uniFB5C" unicode="&#x680;" horiz-adv-x="556" arabic-form="initial" 
d="M556 293l-626.001 0.000976562v272h526c-7.33301 45.333 -20.666 83.666 -39.999 114.999c-10 17.333 -33.333 47.333 -70 90l80 238c50 -56.667 84.167 -116 102.5 -178s27.5 -154 27.5 -276v-261zM471.999 117.001l-104 -194l-148 74l-84 -162l-182 102l110 204
l142 -80l80 158zM196.999 -123.999l142 -80l80 158l186 -102l-104 -194l-148 74l-84 -162l-182 102z" />
    <glyph glyph-name="uniFB5D" unicode="&#x680;" horiz-adv-x="556" arabic-form="medial" 
d="M556 293l-626.001 0.000976562v272h526c-7.33301 45.333 -20.666 83.666 -39.999 114.999c-10 17.333 -33.333 47.333 -70 90l80 238c50 -56.667 84.167 -116 102.5 -178s27.5 -154 27.5 -276v-261zM471.999 117.001l-104 -194l-148 74l-84 -162l-182 102l110 204
l142 -80l80 158zM196.999 -123.999l142 -80l80 158l186 -102l-104 -194l-148 74l-84 -162l-182 102z" />
    <glyph glyph-name="uniFB5F" unicode="&#x67a;" horiz-adv-x="1330" arabic-form="final" 
d="M1330 293l-838.996 -0.000976562c-40.667 0 -74.334 0.333008 -101.001 1s-46.667 1.66699 -60 3c-25.333 2.66699 -53.666 9.66699 -84.999 21c-55.333 18.667 -100.333 56.667 -135 114c-35.333 57.333 -53 121.333 -53 192c0 28 1.83301 56.667 5.5 86
s11.167 60.666 22.5 93.999c13.333 40 29.166 75.833 47.499 107.5s37.166 61.834 56.499 90.501l56 -36c-14.667 -26.667 -26.834 -51 -36.501 -73s-17.167 -40.667 -22.5 -56c-10 -31.333 -15 -61.666 -15 -90.999c0 -38 12 -72.333 36 -103
c25.333 -30.667 57.333 -50.334 96 -59.001c23.333 -6 53.666 -10.667 90.999 -14s77 -5 119 -5h723c-19.333 52.667 -34.666 88.667 -45.999 108c-14.667 26 -37.334 58.333 -68.001 97l90 232c50 -71.333 82.667 -136.666 98 -195.999c13.333 -53.333 20 -130 20 -230
v-283zM755.004 1473l-100 -208l-188 100l102 204zM702.004 1304l186 -96l-100 -208l-188 100z" />
    <glyph glyph-name="uniFB60" unicode="&#x67a;" horiz-adv-x="556" arabic-form="initial" 
d="M556 293l-626.001 0.000976562v272h526c-7.33301 45.333 -20.666 83.666 -39.999 114.999c-10 17.333 -33.333 47.333 -70 90l80 238c50 -56.667 84.167 -116 102.5 -178s27.5 -154 27.5 -276v-261zM314.999 1599l-100 -208l-188 100l102 204zM261.999 1430l186 -96
l-100 -208l-188 100z" />
    <glyph glyph-name="uniFB61" unicode="&#x67a;" horiz-adv-x="556" arabic-form="medial" 
d="M556 293l-626.001 0.000976562v272h526c-7.33301 45.333 -20.666 83.666 -39.999 114.999c-10 17.333 -33.333 47.333 -70 90l80 238c50 -56.667 84.167 -116 102.5 -178s27.5 -154 27.5 -276v-261zM314.999 1599l-100 -208l-188 100l102 204zM261.999 1430l186 -96
l-100 -208l-188 100z" />
    <glyph glyph-name="uniFB63" unicode="&#x67f;" horiz-adv-x="1330" arabic-form="final" 
d="M1330 293l-838.996 -0.000976562c-40.667 0 -74.334 0.333008 -101.001 1s-46.667 1.66699 -60 3c-25.333 2.66699 -53.666 9.66699 -84.999 21c-55.333 18.667 -100.333 56.667 -135 114c-35.333 57.333 -53 121.333 -53 192c0 28 1.83301 56.667 5.5 86
s11.167 60.666 22.5 93.999c13.333 40 29.166 75.833 47.499 107.5s37.166 61.834 56.499 90.501l56 -36c-14.667 -26.667 -26.834 -51 -36.501 -73s-17.167 -40.667 -22.5 -56c-10 -31.333 -15 -61.666 -15 -90.999c0 -38 12 -72.333 36 -103
c25.333 -30.667 57.333 -50.334 96 -59.001c23.333 -6 53.666 -10.667 90.999 -14s77 -5 119 -5h723c-19.333 52.667 -34.666 88.667 -45.999 108c-14.667 26 -37.334 58.333 -68.001 97l90 232c50 -71.333 82.667 -136.666 98 -195.999c13.333 -53.333 20 -130 20 -230
v-283zM872.004 1501l-104 -194l-148 74l-84 -162l-182 102l110 204l142 -80l80 158zM597.004 1260l142 -80l80 158l186 -102l-104 -194l-148 74l-84 -162l-182 102z" />
    <glyph glyph-name="uniFB64" unicode="&#x67f;" horiz-adv-x="556" arabic-form="initial" 
d="M556 293l-626.001 0.000976562v272h526c-7.33301 45.333 -20.666 83.666 -39.999 114.999c-10 17.333 -33.333 47.333 -70 90l80 238c50 -56.667 84.167 -116 102.5 -178s27.5 -154 27.5 -276v-261zM471.999 1627l-104 -194l-148 74l-84 -162l-182 102l110 204l142 -80
l80 158zM196.999 1386l142 -80l80 158l186 -102l-104 -194l-148 74l-84 -162l-182 102z" />
    <glyph glyph-name="uniFB65" unicode="&#x67f;" horiz-adv-x="556" arabic-form="medial" 
d="M556 293l-626.001 0.000976562v272h526c-7.33301 45.333 -20.666 83.666 -39.999 114.999c-10 17.333 -33.333 47.333 -70 90l80 238c50 -56.667 84.167 -116 102.5 -178s27.5 -154 27.5 -276v-261zM471.999 1627l-104 -194l-148 74l-84 -162l-182 102l110 204l142 -80
l80 158zM196.999 1386l142 -80l80 158l186 -102l-104 -194l-148 74l-84 -162l-182 102z" />
    <glyph glyph-name="uniFB67" unicode="&#x679;" horiz-adv-x="1330" arabic-form="final" 
d="M1330 293l-838.996 -0.000976562c-40.667 0 -74.334 0.333008 -101.001 1s-46.667 1.66699 -60 3c-25.333 2.66699 -53.666 9.66699 -84.999 21c-55.333 18.667 -100.333 56.667 -135 114c-35.333 57.333 -53 121.333 -53 192c0 28 1.83301 56.667 5.5 86
s11.167 60.666 22.5 93.999c13.333 40 29.166 75.833 47.499 107.5s37.166 61.834 56.499 90.501l56 -36c-14.667 -26.667 -26.834 -51 -36.501 -73s-17.167 -40.667 -22.5 -56c-10 -31.333 -15 -61.666 -15 -90.999c0 -38 12 -72.333 36 -103
c25.333 -30.667 57.333 -50.334 96 -59.001c23.333 -6 53.666 -10.667 90.999 -14s77 -5 119 -5h723c-19.333 52.667 -34.666 88.667 -45.999 108c-14.667 26 -37.334 58.333 -68.001 97l90 232c50 -71.333 82.667 -136.666 98 -195.999c13.333 -53.333 20 -130 20 -230
v-283zM965.004 1062l-544.001 -0.00292969v130h64c8 0 29.333 13 64 39c14.667 10.667 31.667 24 51 40c0 67.333 -6 128.333 -18 183l-26 104l-28 17c10 46.667 25.333 93.334 46 140.001l22 -9c-1.33301 -4 -2 -8 -2 -12c0 -11.333 15.667 -24.666 47 -39.999
c7.33301 -3.33301 23 -9.66602 47 -18.999c-3.33301 -26 -8.33301 -49.333 -15 -70c-3.33301 -9.33301 -9.66602 -26 -18.999 -50l-17 6c16.667 -76.667 25 -129 25 -157v-6c0 -14 -1.66699 -29.333 -5 -46c26 19.333 65.667 46 119 80c26.667 14.667 47 22 61 22
c85.333 0 128 -41.333 128 -124v-228zM899.003 1240c0 18.667 -12 31.667 -36 39c-14 4.66699 -34.333 7 -61 7c-40 0 -101.667 -31.333 -185 -94h125c104.667 0 157 16 157 48z" />
    <glyph glyph-name="uniFB68" unicode="&#x679;" horiz-adv-x="556" arabic-form="initial" 
d="M556 293l-626.001 0.000976562v272h526c-7.33301 45.333 -20.666 83.666 -39.999 114.999c-10 17.333 -33.333 47.333 -70 90l80 238c50 -56.667 84.167 -116 102.5 -178s27.5 -154 27.5 -276v-261zM555.999 1062l-544.001 -0.00292969v130h64c8 0 29.333 13 64 39
c14.667 10.667 31.667 24 51 40c0 67.333 -6 128.333 -18 183l-26 104l-28 17c10 46.667 25.333 93.334 46 140.001l22 -9c-1.33301 -4 -2 -8 -2 -12c0 -11.333 15.667 -24.666 47 -39.999c7.33301 -3.33301 23 -9.66602 47 -18.999c-3.33301 -26 -8.33301 -49.333 -15 -70
c-3.33301 -9.33301 -9.66602 -26 -18.999 -50l-17 6c16.667 -76.667 25 -129 25 -157v-6c0 -14 -1.66699 -29.333 -5 -46c26 19.333 65.667 46 119 80c26.667 14.667 47 22 61 22c85.333 0 128 -41.333 128 -124v-228zM489.998 1240c0 18.667 -12 31.667 -36 39
c-14 4.66699 -34.333 7 -61 7c-40 0 -101.667 -31.333 -185 -94h125c104.667 0 157 16 157 48z" />
    <glyph glyph-name="uniFB69" unicode="&#x679;" horiz-adv-x="556" arabic-form="medial" 
d="M556 293l-626.001 0.000976562v272h526c-7.33301 45.333 -20.666 83.666 -39.999 114.999c-10 17.333 -33.333 47.333 -70 90l80 238c50 -56.667 84.167 -116 102.5 -178s27.5 -154 27.5 -276v-261zM555.999 1062l-544.001 -0.00292969v130h64c8 0 29.333 13 64 39
c14.667 10.667 31.667 24 51 40c0 67.333 -6 128.333 -18 183l-26 104l-28 17c10 46.667 25.333 93.334 46 140.001l22 -9c-1.33301 -4 -2 -8 -2 -12c0 -11.333 15.667 -24.666 47 -39.999c7.33301 -3.33301 23 -9.66602 47 -18.999c-3.33301 -26 -8.33301 -49.333 -15 -70
c-3.33301 -9.33301 -9.66602 -26 -18.999 -50l-17 6c16.667 -76.667 25 -129 25 -157v-6c0 -14 -1.66699 -29.333 -5 -46c26 19.333 65.667 46 119 80c26.667 14.667 47 22 61 22c85.333 0 128 -41.333 128 -124v-228zM489.998 1240c0 18.667 -12 31.667 -36 39
c-14 4.66699 -34.333 7 -61 7c-40 0 -101.667 -31.333 -185 -94h125c104.667 0 157 16 157 48z" />
    <glyph glyph-name="uniFB6B" unicode="&#x6a4;" horiz-adv-x="1552" arabic-form="final" 
d="M1552 293l-134.001 0.000976562c-116.667 0 -249 -2.66699 -397 -8c-89.333 -3.33301 -205.333 -8.33301 -348 -15s-219.334 -10 -230.001 -10c-142 0 -244.667 25 -308 75c-58.667 46.667 -88 119 -88 217c0 76 7.33301 142.333 22 199s48.667 148.334 102 275.001
l66 -30c-48 -114 -72 -197.333 -72 -250c0 -68.667 27 -118 81 -148c60 -33.333 163.667 -50 311 -50c102 6 201.333 11.167 298 15.5s189.334 6.5 278.001 6.5c-27.333 13.333 -46.166 28.166 -56.499 44.499s-15.5 40.166 -15.5 71.499c0 95.333 29 190.333 87 285
c62.667 102 131.667 153 207 153c70.667 0 122 -49.333 154 -148c28.667 -89.333 43 -226.333 43 -411v-272zM1396 692.001c-23.333 65.333 -42.666 108.333 -57.999 129s-35.333 31 -60 31c-12.667 0 -23.834 -4.83301 -33.501 -14.5s-14.5 -22.167 -14.5 -37.5
c0 -20.667 14.333 -40 43 -58s69.667 -34.667 123 -50zM1306 1689l-100 -208l-188 100l102 204zM1500 1452l-110 -204l-142 80l-80 -158l-186 102l104 194l148 -74l84 162z" />
    <glyph glyph-name="uniFB6C" unicode="&#x6a4;" horiz-adv-x="624" arabic-form="initial" 
d="M624 293l-694 0.000976562v272h600c0 58 -1.66699 99.333 -5 124c-5.33301 38 -16.333 71 -33 99c-21.333 -41.333 -50 -73 -86 -95s-74.333 -33 -115 -33c-53.333 0 -98.333 17.667 -135 53s-55 79.666 -55 132.999c0 78.667 24 172 72 280
c52.667 118.667 106 178 160 178c70 0 136 -61 198 -183s93 -251 93 -387v-441zM407 966.001c-18 31.333 -33.833 53.166 -47.5 65.499s-28.5 18.5 -44.5 18.5c-20 0 -38 -9 -54 -27s-24 -39 -24 -63c0 -15.333 6.16699 -28.166 18.5 -38.499s28.166 -15.5 47.499 -15.5
c15.333 0 30.833 4.5 46.5 13.5s34.834 24.5 57.501 46.5zM288 1624l-57 -96l-130 36l54 96zM463 1575l-57 -96l-130 36l54 96zM246 1487l-57 -96l-130 36l54 96z" />
    <glyph glyph-name="uniFB6D" unicode="&#x6a4;" horiz-adv-x="664" arabic-form="medial" 
d="M664 293l-733.999 0.000976562v272h180c30.667 0 59.667 -1.33301 87 -4l251 -27c-99.333 22 -168.833 51.167 -208.5 87.5s-59.5 89.166 -59.5 158.499c0 103.333 23.833 196.5 71.5 279.5s101.167 124.5 160.5 124.5c67.333 0 126.166 -58.167 176.499 -174.5
s75.5 -256.833 75.5 -421.5v-295zM528.001 708.001c-24 57.333 -50.668 102 -80.001 134s-58.666 48 -87.999 48c-13.333 0 -25 -4.33301 -35 -13s-15 -19 -15 -31c0 -28.667 21.5 -56.5 64.5 -83.5s94.167 -45.167 153.5 -54.5zM346 1729l-100 -208l-188 100l102 204z
M540 1492l-110 -204l-142 80l-80 -158l-186 102l104 194l148 -74l84 162z" />
    <glyph glyph-name="uniFB6F" unicode="&#x6a6;" horiz-adv-x="1552" arabic-form="final" 
d="M1552 293l-134.001 0.000976562c-116.667 0 -249 -2.66699 -397 -8c-89.333 -3.33301 -205.333 -8.33301 -348 -15s-219.334 -10 -230.001 -10c-142 0 -244.667 25 -308 75c-58.667 46.667 -88 119 -88 217c0 76 7.33301 142.333 22 199s48.667 148.334 102 275.001
l66 -30c-48 -114 -72 -197.333 -72 -250c0 -68.667 27 -118 81 -148c60 -33.333 163.667 -50 311 -50c102 6 201.333 11.167 298 15.5s189.334 6.5 278.001 6.5c-27.333 13.333 -46.166 28.166 -56.499 44.499s-15.5 40.166 -15.5 71.499c0 95.333 29 190.333 87 285
c62.667 102 131.667 153 207 153c70.667 0 122 -49.333 154 -148c28.667 -89.333 43 -226.333 43 -411v-272zM1396 692.001c-23.333 65.333 -42.666 108.333 -57.999 129s-35.333 31 -60 31c-12.667 0 -23.834 -4.83301 -33.501 -14.5s-14.5 -22.167 -14.5 -37.5
c0 -20.667 14.333 -40 43 -58s69.667 -34.667 123 -50zM1372 1707l-104 -194l-148 74l-84 -162l-182 102l110 204l142 -80l80 158zM1097 1466l142 -80l80 158l186 -102l-104 -194l-148 74l-84 -162l-182 102z" />
    <glyph glyph-name="uniFB70" unicode="&#x6a6;" horiz-adv-x="624" arabic-form="initial" 
d="M624 293l-694 0.000976562v272h600c0 58 -1.66699 99.333 -5 124c-5.33301 38 -16.333 71 -33 99c-21.333 -41.333 -50 -73 -86 -95s-74.333 -33 -115 -33c-53.333 0 -98.333 17.667 -135 53s-55 79.666 -55 132.999c0 78.667 24 172 72 280
c52.667 118.667 106 178 160 178c70 0 136 -61 198 -183s93 -251 93 -387v-441zM407 966.001c-18 31.333 -33.833 53.166 -47.5 65.499s-28.5 18.5 -44.5 18.5c-20 0 -38 -9 -54 -27s-24 -39 -24 -63c0 -15.333 6.16699 -28.166 18.5 -38.499s28.166 -15.5 47.499 -15.5
c15.333 0 30.833 4.5 46.5 13.5s34.834 24.5 57.501 46.5zM504 1536l-54 -105l-144 44l56 105zM295 1445l-54 -105l-144 44l56 105zM404 1726l-54 -105l-144 44l56 105zM195 1635l-54 -105l-144 44l56 105z" />
    <glyph glyph-name="uniFB71" unicode="&#x6a6;" horiz-adv-x="664" arabic-form="medial" 
d="M664 293l-733.999 0.000976562v272h180c30.667 0 59.667 -1.33301 87 -4l251 -27c-99.333 22 -168.833 51.167 -208.5 87.5s-59.5 89.166 -59.5 158.499c0 103.333 23.833 196.5 71.5 279.5s101.167 124.5 160.5 124.5c67.333 0 126.166 -58.167 176.499 -174.5
s75.5 -256.833 75.5 -421.5v-295zM528.001 708.001c-24 57.333 -50.668 102 -80.001 134s-58.666 48 -87.999 48c-13.333 0 -25 -4.33301 -35 -13s-15 -19 -15 -31c0 -28.667 21.5 -56.5 64.5 -83.5s94.167 -45.167 153.5 -54.5zM498 1723l-104 -194l-148 74l-84 -162
l-182 102l110 204l142 -80l80 158zM223 1482l142 -80l80 158l186 -102l-104 -194l-148 74l-84 -162l-182 102z" />
    <glyph glyph-name="uniFB73" unicode="&#x684;" horiz-adv-x="1144" arabic-form="final" 
d="M1144 293h-155.999c-117.333 0 -197.333 17 -240 51s-64 98 -64 192c0 42 2.66699 82.333 8 121c2 13.333 7.33301 45 16 95c-152 -35.333 -274.667 -96.333 -368 -183c-96 -89.333 -144 -191 -144 -305c0 -133.333 57.167 -236 171.5 -308s279.166 -108 494.499 -108
c63.333 0 154 6 272 18l18 -32l-380 -244l-96 -2c-195.333 0 -345.833 49.5 -451.5 148.5s-158.5 240.167 -158.5 423.5c0 139.333 31.833 268.5 95.5 387.5s145.167 205.167 244.5 258.5h-22c-62 0 -113.167 -5.83301 -153.5 -17.5s-101.166 -38.5 -182.499 -80.5
c30 248 151.333 372 364 372c24.667 0 71.667 -3.83301 141 -11.5s131 -13.5 185 -17.5c101.333 -7.33301 200.666 -11 297.999 -11l-60 -242c-39.333 0 -73 -2.33301 -101 -7l-101 -21c-2 -12.667 -3.83301 -27 -5.5 -43s-2.5 -28.333 -2.5 -37
c0 -47.333 15.667 -80 47 -98s89.333 -27 174 -27h157v-272zM605.001 433l-100 -208l-188 100l102 204zM552.001 264l186 -96l-100 -208l-188 100z" />
    <glyph glyph-name="uniFB74" unicode="&#x684;" horiz-adv-x="1072" arabic-form="initial" 
d="M1072 293l-1142 -0.00195312v272h711c-80.667 83.333 -155.334 143.333 -224.001 180c-60.667 32.667 -120 49 -178 49c-17.333 0 -33.166 -0.833008 -47.499 -2.5s-35.166 -5.5 -62.499 -11.5c36.667 84 77.5 146 122.5 186s96.167 60 153.5 60
c44 0 86.333 -10.667 127 -32s86.334 -55.666 137.001 -102.999c40 -37.333 96.667 -95.666 170 -174.999c50 -56 88.167 -92.333 114.5 -109s65.833 -30.667 118.5 -42v-272zM614.998 122.998l-100 -208l-188 100l102 204zM561.998 -46.002l186 -96l-100 -208l-188 100z
" />
    <glyph glyph-name="uniFB75" unicode="&#x684;" horiz-adv-x="1072" arabic-form="medial" 
d="M1072 293l-1142 -0.00195312v272h711c-80.667 83.333 -155.334 143.333 -224.001 180c-60.667 32.667 -120 49 -178 49c-17.333 0 -33.166 -0.833008 -47.499 -2.5s-35.166 -5.5 -62.499 -11.5c36.667 84 77.5 146 122.5 186s96.167 60 153.5 60
c44 0 86.333 -10.667 127 -32s86.334 -55.666 137.001 -102.999c40 -37.333 96.667 -95.666 170 -174.999c50 -56 88.167 -92.333 114.5 -109s65.833 -30.667 118.5 -42v-272zM614.998 122.998l-100 -208l-188 100l102 204zM561.998 -46.002l186 -96l-100 -208l-188 100z
" />
    <glyph glyph-name="uniFB77" unicode="&#x683;" horiz-adv-x="1144" arabic-form="final" 
d="M1144 293h-155.999c-117.333 0 -197.333 17 -240 51s-64 98 -64 192c0 42 2.66699 82.333 8 121c2 13.333 7.33301 45 16 95c-152 -35.333 -274.667 -96.333 -368 -183c-96 -89.333 -144 -191 -144 -305c0 -133.333 57.167 -236 171.5 -308s279.166 -108 494.499 -108
c63.333 0 154 6 272 18l18 -32l-380 -244l-96 -2c-195.333 0 -345.833 49.5 -451.5 148.5s-158.5 240.167 -158.5 423.5c0 139.333 31.833 268.5 95.5 387.5s145.167 205.167 244.5 258.5h-22c-62 0 -113.167 -5.83301 -153.5 -17.5s-101.166 -38.5 -182.499 -80.5
c30 248 151.333 372 364 372c24.667 0 71.667 -3.83301 141 -11.5s131 -13.5 185 -17.5c101.333 -7.33301 200.666 -11 297.999 -11l-60 -242c-39.333 0 -73 -2.33301 -101 -7l-101 -21c-2 -12.667 -3.83301 -27 -5.5 -43s-2.5 -28.333 -2.5 -37
c0 -47.333 15.667 -80 47 -98s89.333 -27 174 -27h157v-272zM780.001 277l-104 -194l-148 74l-84 -162l-182 102l110 204l142 -80l80 158z" />
    <glyph glyph-name="uniFB78" unicode="&#x683;" horiz-adv-x="1072" arabic-form="initial" 
d="M1072 293l-1142 -0.00195312v272h711c-80.667 83.333 -155.334 143.333 -224.001 180c-60.667 32.667 -120 49 -178 49c-17.333 0 -33.166 -0.833008 -47.499 -2.5s-35.166 -5.5 -62.499 -11.5c36.667 84 77.5 146 122.5 186s96.167 60 153.5 60
c44 0 86.333 -10.667 127 -32s86.334 -55.666 137.001 -102.999c40 -37.333 96.667 -95.666 170 -174.999c50 -56 88.167 -92.333 114.5 -109s65.833 -30.667 118.5 -42v-272zM799.998 116.998l-104 -194l-148 74l-84 -162l-182 102l110 204l142 -80l80 158z" />
    <glyph glyph-name="uniFB79" unicode="&#x683;" horiz-adv-x="1072" arabic-form="medial" 
d="M1072 293l-1142 -0.00195312v272h711c-80.667 83.333 -155.334 143.333 -224.001 180c-60.667 32.667 -120 49 -178 49c-17.333 0 -33.166 -0.833008 -47.499 -2.5s-35.166 -5.5 -62.499 -11.5c36.667 84 77.5 146 122.5 186s96.167 60 153.5 60
c44 0 86.333 -10.667 127 -32s86.334 -55.666 137.001 -102.999c40 -37.333 96.667 -95.666 170 -174.999c50 -56 88.167 -92.333 114.5 -109s65.833 -30.667 118.5 -42v-272zM799.998 116.998l-104 -194l-148 74l-84 -162l-182 102l110 204l142 -80l80 158z" />
    <glyph glyph-name="uniFB7B" unicode="&#x686;" horiz-adv-x="1144" arabic-form="final" 
d="M1144 293h-155.999c-117.333 0 -197.333 17 -240 51s-64 98 -64 192c0 42 2.66699 82.333 8 121c2 13.333 7.33301 45 16 95c-152 -35.333 -274.667 -96.333 -368 -183c-96 -89.333 -144 -191 -144 -305c0 -133.333 57.167 -236 171.5 -308s279.166 -108 494.499 -108
c63.333 0 154 6 272 18l18 -32l-380 -244l-96 -2c-195.333 0 -345.833 49.5 -451.5 148.5s-158.5 240.167 -158.5 423.5c0 139.333 31.833 268.5 95.5 387.5s145.167 205.167 244.5 258.5h-22c-62 0 -113.167 -5.83301 -153.5 -17.5s-101.166 -38.5 -182.499 -80.5
c30 248 151.333 372 364 372c24.667 0 71.667 -3.83301 141 -11.5s131 -13.5 185 -17.5c101.333 -7.33301 200.666 -11 297.999 -11l-60 -242c-39.333 0 -73 -2.33301 -101 -7l-101 -21c-2 -12.667 -3.83301 -27 -5.5 -43s-2.5 -28.333 -2.5 -37
c0 -47.333 15.667 -80 47 -98s89.333 -27 174 -27h157v-272zM686.001 381l-88 -165l-126 63l-72 -138l-154 87l93 173l121 -68l68 135zM655.001 118l-86 -173l-158 82l85 176z" />
    <glyph glyph-name="uniFB7C" unicode="&#x686;" horiz-adv-x="1072" arabic-form="initial" 
d="M1072 293l-1142 -0.00195312v272h711c-80.667 83.333 -155.334 143.333 -224.001 180c-60.667 32.667 -120 49 -178 49c-17.333 0 -33.166 -0.833008 -47.499 -2.5s-35.166 -5.5 -62.499 -11.5c36.667 84 77.5 146 122.5 186s96.167 60 153.5 60
c44 0 86.333 -10.667 127 -32s86.334 -55.666 137.001 -102.999c40 -37.333 96.667 -95.666 170 -174.999c50 -56 88.167 -92.333 114.5 -109s65.833 -30.667 118.5 -42v-272zM764.998 116.998l-104 -194l-148 74l-84 -162l-182 102l110 204l142 -80l80 158z
M728.998 -192.002l-102 -204l-186 96l100 208z" />
    <glyph glyph-name="uniFB7D" unicode="&#x686;" horiz-adv-x="1072" arabic-form="medial" 
d="M1072 293l-1142 -0.00195312v272h711c-80.667 83.333 -155.334 143.333 -224.001 180c-60.667 32.667 -120 49 -178 49c-17.333 0 -33.166 -0.833008 -47.499 -2.5s-35.166 -5.5 -62.499 -11.5c36.667 84 77.5 146 122.5 186s96.167 60 153.5 60
c44 0 86.333 -10.667 127 -32s86.334 -55.666 137.001 -102.999c40 -37.333 96.667 -95.666 170 -174.999c50 -56 88.167 -92.333 114.5 -109s65.833 -30.667 118.5 -42v-272zM764.998 116.998l-104 -194l-148 74l-84 -162l-182 102l110 204l142 -80l80 158z
M728.998 -192.002l-102 -204l-186 96l100 208z" />
    </font>
</defs>
</svg>
